<svg width="24" height="24" viewBox="0 0 24 24" fill="none" xmlns="http://www.w3.org/2000/svg">
<path d="M11.9992 18.9147C13.5312 18.9132 15.074 18.7103 16.4998 18.2112C17.8865 17.6971 19.3341 16.9078 19.7698 15.3174C20.2149 16.974 18.6657 18.5569 17.0635 19.3867C15.505 20.2165 13.7357 20.5217 12.0008 20.5548C10.2643 20.5217 8.49651 20.2165 6.93802 19.3867C5.33424 18.5569 3.78512 16.974 4.23174 15.3174C4.66743 16.9078 6.11505 17.6956 7.50176 18.2112C8.92439 18.7103 10.4688 18.9132 11.9992 18.9147Z" fill="black"/>
<path d="M19.8839 20.7423C22.7588 19.3803 24.3173 17.4817 22.6385 14.8134C24.717 16.6068 24.7014 19.5081 20.5725 22.0111C17.9365 23.4497 14.9382 23.9623 11.9993 23.9999C9.06032 23.9623 6.06202 23.4482 3.42602 22.0111C-0.701323 19.5081 -0.716939 16.6068 1.36157 14.8134C-0.318727 17.4817 1.24132 19.3818 4.11625 20.7423C6.63513 21.8006 9.53661 22.2065 11.9993 22.1854C14.4635 22.2065 17.3665 21.8006 19.8839 20.7423Z" fill="black"/>
<path d="M11.9999 0C11.9999 0 5.31927 7.31346 5.31927 10.8657C5.31927 14.4195 8.30978 17.2998 11.9999 17.2998C15.6916 17.2998 18.6821 14.4195 18.6821 10.8657C18.6821 7.31346 11.9999 0 11.9999 0ZM8.49717 13.8903C7.39154 12.6997 7.25724 11.1213 7.76477 10.0374C7.90375 11.0251 8.29572 12.1465 9.32795 13.1733C10.457 14.2947 11.4174 14.666 12.3997 14.9652C11.3018 15.3831 9.67151 15.1576 8.49717 13.8903Z" fill="black"/>
</svg>
