<svg width="15" height="24" viewBox="0 0 15 24" fill="none" xmlns="http://www.w3.org/2000/svg">
<path d="M14.9065 7.58695C14.5218 7.58695 14.1954 7.82939 14.1954 8.14343C14.1954 8.8896 13.5543 9.47247 12.7675 9.47247C11.9783 9.47247 11.3372 8.86448 11.3372 8.11957C11.3372 7.79924 11.0178 7.53922 10.625 7.53922C10.2403 7.53922 9.9151 7.80552 9.9151 8.11957C9.9151 8.86448 9.27166 9.47247 8.48484 9.47247C7.69569 9.47247 7.05457 8.86448 7.05457 8.11957C7.05457 7.79924 6.73518 7.53922 6.34352 7.53922C5.95885 7.53922 5.63247 7.80552 5.63247 8.11957C5.63247 8.86448 4.99135 9.47247 4.2022 9.47247C3.41422 9.47247 2.77077 8.86448 2.77077 8.11957C2.77077 7.79924 2.45371 7.53922 2.06089 7.53922C1.67622 7.53922 1.351 7.80552 1.351 8.11957C1.351 8.83935 0.750685 9.46995 0 9.51266C0.139879 10.2525 0.388165 10.8819 0.758844 11.3768L0.747188 11.3806L5.08577 20.2931V23.2916C5.08577 23.5052 5.24663 23.6773 5.4448 23.6773H9.76123C9.9594 23.6773 10.1203 23.5039 10.1203 23.2916V20.1977C10.1203 20.1663 10.1098 20.1399 10.1051 20.1123L14.1768 11.3241C14.657 10.6168 14.9671 9.59934 14.9671 8.11705C14.9671 7.93742 14.9531 7.7603 14.9414 7.58444C14.9274 7.58695 14.9181 7.58695 14.9065 7.58695ZM5.66044 19.8133L2.06089 12.4169C2.67402 12.6971 3.3979 12.8553 4.26515 12.8553H5.27228L6.15701 19.8133H5.66044ZM6.88322 19.8133L5.99849 12.8553H8.85552L7.97195 19.8133H6.88322ZM9.43835 19.8133H8.69582L9.57939 12.8553H10.5597C11.2917 12.8553 12.1159 12.7775 12.8526 12.4421L9.43835 19.8133Z" fill="black"/>
<path d="M0.0611025 8.7467C0.452764 8.7467 0.772154 8.46155 0.772154 8.14249C0.772154 7.39758 1.41327 6.77703 2.20125 6.77703C2.98924 6.77703 3.63151 7.37874 3.63151 8.1249C3.63151 8.43769 3.9579 8.70148 4.34373 8.70148C4.73539 8.70148 5.05362 8.43894 5.05362 8.11988C5.05362 7.37371 5.6959 6.76698 6.48388 6.76698C7.27303 6.76698 7.91414 7.37371 7.91414 8.11862C7.91414 8.43392 8.23936 8.69897 8.62403 8.69897C9.01802 8.69897 9.33625 8.43894 9.33625 8.11862C9.33625 7.37371 9.97853 6.76573 10.7665 6.76573C11.5545 6.76573 12.1968 7.37371 12.1968 8.11862C12.1968 8.43392 12.522 8.69897 12.9067 8.69897C13.2983 8.69897 13.6177 8.43894 13.6177 8.11862C13.6177 7.38879 14.2332 6.8411 15.0002 6.81848C14.4174 2.95953 11.305 0 7.55279 0C3.38906 0 0.000488281 3.64163 0.000488281 8.11862C0.000488281 8.33971 0.02147 8.53818 0.0377894 8.74419C0.0471146 8.74419 0.0552743 8.7467 0.0611025 8.7467Z" fill="black"/>
</svg>
