<svg width="24" height="24" viewBox="0 0 24 24" fill="none" xmlns="http://www.w3.org/2000/svg">
<path d="M24 12C23.9946 18.6055 18.6631 24.0036 11.992 24C5.36727 23.9964 -0.00178601 18.6484 4.45679e-07 11.9929C0.00357244 5.33194 5.39406 0.00178791 12.0027 1.77833e-06C18.6256 -0.00357094 24 5.3766 24 12ZM14.0728 14.6276C14.0728 13.1486 14.071 11.6731 14.0746 10.1941C14.0781 9.63322 13.8781 9.15987 13.4655 8.7919C12.8136 8.20959 12.058 8.08812 11.2454 8.37392C10.4702 8.649 9.95222 9.39387 9.9558 10.2352C9.97187 13.1825 9.96473 16.128 9.95937 19.0735C9.95937 20.7365 11.3865 21.0188 12.067 21.0152C13.0922 21.0116 14.0996 20.1864 14.0799 19.0003C14.0531 17.5427 14.0728 16.0851 14.0728 14.6276ZM14.2139 5.17654C14.2121 3.9476 13.2315 2.96874 12.0009 2.96874C10.7685 2.96874 9.78254 3.95654 9.78611 5.18905C9.7879 6.40727 10.7828 7.40042 12.0027 7.40042C13.2315 7.40042 14.2139 6.41084 14.2139 5.17654Z" fill="black"/>
</svg>
