<svg width="24" height="24" viewBox="0 0 24 24" fill="none" xmlns="http://www.w3.org/2000/svg">
<path d="M2.38661 23.239C3.95813 24.1313 5.45489 24.2585 5.7305 23.5203C5.98118 22.8555 5.14997 21.7142 3.83206 20.8416L3.57845 21.5189C4.12086 21.9346 4.44191 22.4237 4.32903 22.723C4.18829 23.0974 3.43038 23.0329 2.63436 22.5814C1.83834 22.1281 1.30619 21.4598 1.44692 21.0853C1.5598 20.7861 2.06996 20.7682 2.67834 21.0065L2.93195 20.331C1.53781 19.6609 0.2932 19.6232 0.0439845 20.288C-0.231618 21.0244 0.816553 22.3467 2.38661 23.239Z" fill="black"/>
<path d="M2.43799 21.6466C2.4893 21.5105 2.73265 21.514 2.9804 21.6556C3.22962 21.7971 3.38941 22.0229 3.3381 22.1591L3.57853 21.5176L3.83214 20.8421L5.20284 17.1869C5.04598 17.1242 4.89205 17.0507 4.74105 16.9647C4.59006 16.8787 4.44346 16.7802 4.30272 16.6763L2.93203 20.3297L2.67841 21.0052L2.43799 21.6466Z" fill="black"/>
<path d="M5.20311 17.1894C7.25548 18.0226 9.67435 16.9457 10.3941 14.405C10.7504 13.149 11.3456 9.83072 11.5962 8.40629C11.6637 8.01748 11.5039 7.6233 11.2107 7.45667L6.4272 4.73681C6.13401 4.57018 5.78511 4.67589 5.58866 4.99124C4.87033 6.15049 3.20498 8.8596 2.65964 10.0081C1.55576 12.3302 2.45733 15.2955 4.303 16.677C4.44373 16.7827 4.59033 16.8812 4.74133 16.9672C4.89232 17.0532 5.04625 17.1267 5.20311 17.1894ZM3.76205 10.4148C3.96583 9.9884 4.37923 9.26633 4.8073 8.54784C4.82635 8.51559 4.85567 8.49409 4.88646 8.4905C5.0961 8.46363 5.31013 8.51738 5.51537 8.67864C6.88605 9.67126 8.87099 10.5116 10.1156 9.11044C10.1977 9.01907 10.3296 9.10686 10.3076 9.23945C10.3076 9.23945 10.3076 9.24124 10.3076 9.24303C10.1244 10.2858 9.68754 12.7154 9.4266 13.6364C8.85926 15.6377 6.85087 16.401 5.28667 15.5123C3.72247 14.6236 2.89126 12.246 3.76205 10.4148Z" fill="black"/>
<path d="M2.79331 22.1525C3.04253 22.294 3.28589 22.2976 3.33719 22.1597C3.3885 22.0217 3.22871 21.7959 2.97949 21.6562C2.73174 21.5146 2.48839 21.5111 2.43708 21.6472C2.38577 21.7852 2.54556 22.0109 2.79331 22.1525Z" fill="#F1F8F0"/>
<path d="M21.3227 21.0065C21.931 20.7682 22.4412 20.7861 22.5541 21.0853C22.6933 21.4598 22.1627 22.1281 21.3666 22.5814C20.5706 23.033 19.8127 23.0975 19.672 22.723C19.5591 22.4238 19.8801 21.9346 20.4226 21.5189L20.1689 20.8434C18.8496 21.7142 18.0198 22.8556 18.269 23.5203C18.5461 24.2585 20.0429 24.1313 21.6129 23.239C23.1844 22.3467 24.2326 21.0262 23.9555 20.288C23.7063 19.6232 22.4632 19.6609 21.069 20.331L21.3227 21.0065Z" fill="black"/>
<path d="M20.6619 22.1579C20.6106 22.0199 20.7704 21.7942 21.0181 21.6544C21.2673 21.5129 21.5107 21.5093 21.562 21.6455L21.3216 21.004L21.068 20.3285L19.6973 16.6735C19.5565 16.7792 19.41 16.8777 19.259 16.9637C19.108 17.0497 18.9526 17.1214 18.7972 17.1859L20.1679 20.8392L20.4215 21.5164L20.6619 22.1579Z" fill="black"/>
<path d="M19.6975 16.677C21.5432 15.2955 22.4447 12.3302 21.3409 10.0081C20.794 8.8596 19.1302 6.15049 18.4104 4.99124C18.2154 4.67589 17.8665 4.57018 17.5733 4.73681L12.7898 7.45667C12.4966 7.6233 12.3368 8.01748 12.4042 8.40629C12.6535 9.83072 13.2501 13.149 13.6063 14.405C14.3261 16.9457 16.745 18.0226 18.7974 17.1894C18.9528 17.1267 19.1082 17.0532 19.2592 16.9672C19.4102 16.8812 19.5568 16.7827 19.6975 16.677ZM14.5739 13.6364C14.313 12.7154 13.8761 10.2858 13.6928 9.24303C13.6928 9.24124 13.6928 9.23945 13.6928 9.23945C13.6694 9.10686 13.8028 9.01907 13.8834 9.11044C14.9228 10.2805 16.4797 9.88627 17.7624 9.14807C18.016 9.00115 18.2579 8.84168 18.4837 8.67864C18.6904 8.51738 18.9029 8.46363 19.1126 8.4905C19.1448 8.49409 19.1741 8.51559 19.1917 8.54784C19.6198 9.26633 20.0347 9.9884 20.2384 10.4148C21.1078 12.246 20.278 14.6236 18.7138 15.5123C17.1496 16.401 15.1412 15.6377 14.5739 13.6364Z" fill="black"/>
<path d="M21.2032 22.1525C21.4524 22.011 21.6122 21.7852 21.5609 21.6472C21.5096 21.5111 21.2662 21.5146 21.017 21.6562C20.7693 21.7978 20.6095 22.0235 20.6608 22.1597C20.7121 22.2959 20.9554 22.2941 21.2032 22.1525Z" fill="#F1F8F0"/>
<path d="M11.5948 0.422847V3.26811C11.5948 3.50103 11.7488 3.68916 11.9379 3.68916C12.127 3.68916 12.2809 3.50103 12.2809 3.26811V0.422847C12.2809 0.189923 12.127 0 11.9379 0C11.7488 0 11.5948 0.189923 11.5948 0.422847Z" fill="black"/>
<path d="M13.3071 4.22191C13.4127 4.22191 13.5182 4.16099 13.5842 4.04632L14.9387 1.74031C15.0487 1.55218 15.015 1.28879 14.861 1.15262C14.7086 1.01644 14.4946 1.05765 14.3831 1.24758L13.0301 3.55358C12.9186 3.74172 12.9538 4.00511 13.1063 4.14128C13.1679 4.19683 13.2368 4.22191 13.3071 4.22191Z" fill="black"/>
<path d="M9.06878 1.09775C8.91339 1.23034 8.87527 1.49372 8.98229 1.68365L10.2987 4.02366C10.3662 4.14191 10.4732 4.20462 10.5817 4.20462C10.6476 4.20462 10.7165 4.17954 10.7752 4.12937C10.932 3.99678 10.9702 3.73519 10.8617 3.54347L9.54522 1.20346C9.43821 1.01354 9.22418 0.965161 9.06878 1.09775Z" fill="black"/>
</svg>
