<svg width="24" height="24" viewBox="0 0 24 24" fill="none" xmlns="http://www.w3.org/2000/svg">
<path d="M24 11.9981C24 11.6364 23.9841 11.2759 23.9511 10.9155C23.9181 10.5551 23.8692 10.196 23.8044 9.84079C23.7383 9.48431 23.6577 9.13177 23.5612 8.78318C23.4634 8.43459 23.3511 8.09126 23.2229 7.75188C23.0947 7.41381 22.9519 7.08232 22.7933 6.75609C22.6347 6.43118 22.4629 6.11285 22.2752 5.80372C22.0889 5.49328 21.888 5.19204 21.6739 4.90001C21.4597 4.6093 21.2337 4.3278 20.9932 4.0555C20.754 3.78452 20.5029 3.52538 20.2398 3.27677C19.9768 3.02815 19.7032 2.79137 19.4178 2.56775C19.1336 2.34412 18.8402 2.13365 18.5362 1.93634C18.2335 1.73902 17.9216 1.55618 17.6018 1.3878C17.2806 1.21811 16.9542 1.0642 16.6198 0.924766C16.2867 0.78533 15.9471 0.661679 15.6008 0.553813C15.2558 0.444632 14.9069 0.351236 14.5527 0.274941C14.1998 0.19733 13.843 0.13682 13.4835 0.0920949C13.1253 0.0473703 12.7645 0.0184304 12.4023 0.00659157C12.0415 -0.00524727 11.6794 -0.00130105 11.3186 0.0197459C10.9577 0.0394772 10.5969 0.0763098 10.2401 0.130243C9.88191 0.18286 9.52638 0.252578 9.17481 0.336766C8.82325 0.422269 8.47565 0.523558 8.13334 0.640632C7.79102 0.75639 7.454 0.889249 7.12358 1.03526C6.79316 1.18259 6.46935 1.34439 6.15347 1.52066C5.83759 1.69693 5.52964 1.88767 5.23095 2.09156C4.93225 2.29545 4.64412 2.5125 4.36393 2.7427C4.08506 2.9729 3.81676 3.21626 3.56035 3.47014C3.30263 3.72533 3.0568 3.99105 2.82418 4.26729C2.59157 4.54485 2.37085 4.83161 2.16335 5.12758C1.95584 5.42487 1.76288 5.73005 1.58313 6.04444C1.40339 6.35752 1.23818 6.6798 1.08751 7.00866C0.936836 7.33752 0.802026 7.67295 0.681754 8.01497C0.561482 8.35567 0.457069 8.70162 0.368518 9.05285C0.278644 9.40407 0.205952 9.75792 0.14912 10.1157C0.0922885 10.4735 0.0513166 10.8326 0.0275264 11.1931C0.00241456 11.5548 -0.00551547 11.9152 0.00373631 12.2783C0.0116662 12.64 0.0354567 13.0005 0.0764282 13.3596C0.1174 13.72 0.175554 14.0765 0.248246 14.4303C0.320938 14.7855 0.410811 15.1354 0.515223 15.4827C0.620957 15.8287 0.741229 16.1694 0.876039 16.5048C1.01217 16.8402 1.16284 17.1691 1.32805 17.4914C1.49458 17.8123 1.67433 18.1267 1.86729 18.4319C2.06158 18.7384 2.26908 19.0344 2.4898 19.3211C2.71052 19.6079 2.94313 19.8841 3.18896 20.1499C3.4348 20.4156 3.6912 20.6695 3.96082 20.9128C4.22912 21.1549 4.50799 21.3851 4.79744 21.6021C5.08688 21.8192 5.38558 22.023 5.69353 22.2125C6.00148 22.4032 6.31736 22.5795 6.64117 22.7413C6.96498 22.9018 7.2954 23.0491 7.63242 23.1806C8.22453 23.4108 8.83118 23.5937 9.45104 23.7292L9.72199 23.7818C11.1216 24.0515 12.5266 24.0712 13.9342 23.841C14.6531 23.7252 15.3549 23.5437 16.0409 23.299C16.6198 23.0925 17.1789 22.8426 17.7194 22.5492C18.26 22.2559 18.7741 21.9231 19.2645 21.5508C19.7535 21.1785 20.2108 20.7708 20.6377 20.3274C21.0646 19.8855 21.4558 19.4119 21.81 18.9094C22.1629 18.4069 22.4774 17.8794 22.7497 17.3296C23.0233 16.7784 23.2533 16.2101 23.4383 15.6235C23.6246 15.0368 23.7647 14.4396 23.8586 13.8318C23.9524 13.2254 24 12.6137 24 11.9981ZM16.103 21.7139L15.9946 21.7573L15.7435 13.9765C16.9476 13.6516 17.8344 12.523 17.8344 10.7208C17.8344 8.56613 16.5616 6.26807 14.9888 6.26807C13.4174 6.26807 12.1433 8.56219 12.1433 10.7208C12.1433 12.5559 13.0685 13.695 14.3108 13.9936L13.9989 22.3559C12.557 22.6308 11.119 22.6097 9.68498 22.2901L9.42725 13.6187C9.55149 13.595 9.67176 13.5608 9.79071 13.5148C9.90834 13.4701 10.022 13.4148 10.1304 13.3491C10.2374 13.2833 10.3392 13.2083 10.4344 13.1254C10.5295 13.0412 10.6154 12.9492 10.6947 12.8505C10.7727 12.7505 10.8414 12.6453 10.9022 12.5335C10.9617 12.423 11.0106 12.3059 11.0489 12.1862C11.0886 12.0652 11.1163 11.9429 11.1335 11.8166C11.1494 11.6916 11.156 11.5653 11.1494 11.439L10.9419 6.44697H10.5837L10.4582 11.3706C10.4582 11.439 10.4357 11.4996 10.3908 11.5522C10.3445 11.6035 10.2877 11.635 10.2189 11.6443C10.1423 11.6535 10.0736 11.6324 10.0128 11.5824C9.95328 11.5311 9.92156 11.468 9.91627 11.3891L9.64533 6.44697H9.20125L8.99903 11.3746C8.99771 11.443 8.97392 11.5035 8.92766 11.5535C8.8814 11.6048 8.82457 11.635 8.75584 11.6443C8.67787 11.6521 8.60914 11.6311 8.54966 11.5798C8.49019 11.5285 8.45979 11.464 8.45582 11.3851L8.26418 6.44697H7.77252L7.50026 11.3891C7.49629 11.468 7.46325 11.5311 7.40377 11.5824C7.3443 11.6324 7.27557 11.6535 7.19759 11.6443C7.12887 11.635 7.07203 11.6035 7.02578 11.5522C6.98084 11.4996 6.95705 11.439 6.95705 11.3706L6.83413 6.44697H6.22484L6.00809 11.439C6.0028 11.5732 6.00941 11.7061 6.02924 11.8376C6.04774 11.9705 6.07946 12.0994 6.12307 12.2257C6.16669 12.352 6.2222 12.473 6.28828 12.5887C6.35569 12.7045 6.43235 12.8137 6.51825 12.915C6.60548 13.0163 6.70065 13.1083 6.80506 13.1912C6.90947 13.2754 7.02181 13.3477 7.13944 13.4109C7.25707 13.4727 7.37998 13.524 7.50819 13.5622C7.63507 13.6016 7.76591 13.6292 7.89808 13.6437L7.67604 21.6166C7.31258 21.4521 6.95837 21.268 6.61474 21.0628C6.2711 20.8589 5.94068 20.6353 5.62216 20.3932C5.30364 20.1512 5.00098 19.892 4.71153 19.6145C4.42341 19.3382 4.15114 19.0462 3.89606 18.7384C3.64098 18.4306 3.4044 18.1096 3.185 17.7742C2.96692 17.4401 2.76735 17.0941 2.58893 16.7363C2.40918 16.3798 2.25058 16.0128 2.11312 15.6379C1.97567 15.2617 1.85936 14.8802 1.76552 14.4922C1.67169 14.1028 1.59899 13.7108 1.55009 13.3135C1.50119 12.9163 1.47343 12.519 1.46947 12.1191C1.4655 11.7192 1.48401 11.3207 1.5263 10.9221C1.56727 10.5248 1.63071 10.1315 1.71662 9.74082C1.80385 9.35013 1.91223 8.96603 2.04175 8.58718C2.17128 8.20965 2.32195 7.84001 2.49509 7.47958C2.6669 7.11784 2.85855 6.76793 3.07001 6.42987C3.2828 6.09048 3.51277 5.76426 3.76125 5.45118C4.01104 5.13942 4.2767 4.84082 4.55954 4.558C4.84237 4.2765 5.13975 4.01078 5.45299 3.76216C5.76622 3.51354 6.09268 3.28334 6.43235 3.07156C6.77069 2.86109 7.12094 2.66903 7.48307 2.49803C7.84389 2.32571 8.21396 2.17575 8.59196 2.04552C8.96995 1.9166 9.35456 1.80874 9.74445 1.72324C10.1357 1.63773 10.5295 1.57459 10.9274 1.53381C11.3252 1.49303 11.723 1.47462 12.1235 1.47988C12.5226 1.48383 12.9204 1.51145 13.3169 1.56144C13.7148 1.61142 14.1073 1.68377 14.4945 1.77848C14.8831 1.8732 15.2651 1.99027 15.6404 2.12839C16.0158 2.26651 16.3819 2.42568 16.7387 2.60458C17.0956 2.78479 17.4405 2.98474 17.7749 3.2031C18.1093 3.42278 18.4305 3.66087 18.7384 3.91607C19.0451 4.17126 19.3371 4.44356 19.6134 4.73295C19.8896 5.02235 20.1487 5.32622 20.3905 5.64455C20.6311 5.96289 20.8544 6.29438 21.058 6.63771C21.2628 6.98235 21.4465 7.3362 21.6104 7.70058C21.773 8.06627 21.9157 8.43854 22.0373 8.82001C22.1576 9.20018 22.2567 9.58691 22.3347 9.97891C22.4114 10.3722 22.4669 10.7669 22.4986 11.1654C22.5303 11.564 22.5396 11.9639 22.5263 12.3625C22.5131 12.7624 22.4774 13.1596 22.4193 13.5556C22.3598 13.9515 22.2792 14.3422 22.1761 14.7276C22.073 15.1144 21.9488 15.4932 21.8021 15.8655C21.6554 16.2378 21.4888 16.6008 21.3011 16.9534C21.1135 17.3072 20.9073 17.6479 20.68 17.9781C20.454 18.3069 20.2094 18.6226 19.9478 18.9239C19.6847 19.2264 19.4059 19.5119 19.1111 19.7815C18.8164 20.0512 18.5071 20.3038 18.1833 20.5392C17.8608 20.7734 17.5238 20.9891 17.1762 21.1851C16.8286 21.3824 16.4704 21.5587 16.1017 21.7139H16.103Z" fill="black"/>
</svg>
