<svg width="38" height="44" viewBox="0 0 38 44" fill="none" xmlns="http://www.w3.org/2000/svg">
<g filter="url(#filter0_d_935_8421)">
<path d="M24.0002 15.0326C24.0002 20.0202 15.001 29.6236 15.001 29.6236C15.001 29.6236 6.00024 20.0202 6.00024 15.0326C6.00024 10.0442 10.03 6 15.0002 6C19.9705 6 24.0002 10.0442 24.0002 15.0326Z" fill="#035376"/>
<path d="M19.7998 13.7216C19.561 13.7216 19.3585 13.8613 19.3585 14.0421C19.3585 14.4719 18.9605 14.8076 18.4722 14.8076C17.9824 14.8076 17.5845 14.4574 17.5845 14.0284C17.5845 13.8439 17.3863 13.6942 17.1425 13.6942C16.9037 13.6942 16.7019 13.8475 16.7019 14.0284C16.7019 14.4574 16.3025 14.8076 15.8142 14.8076C15.3244 14.8076 14.9265 14.4574 14.9265 14.0284C14.9265 13.8439 14.7282 13.6942 14.4851 13.6942C14.2464 13.6942 14.0438 13.8475 14.0438 14.0284C14.0438 14.4574 13.6459 14.8076 13.1561 14.8076C12.6671 14.8076 12.2677 14.4574 12.2677 14.0284C12.2677 13.8439 12.0709 13.6942 11.8271 13.6942C11.5884 13.6942 11.3865 13.8475 11.3865 14.0284C11.3865 14.4429 11.0139 14.8061 10.548 14.8307C10.6348 15.2569 10.7889 15.6193 11.019 15.9044L11.0118 15.9065L13.7045 21.0396V22.7665C13.7045 22.8895 13.8044 22.9886 13.9273 22.9886H16.6064C16.7294 22.9886 16.8292 22.8888 16.8292 22.7665V20.9846C16.8292 20.9665 16.8227 20.9513 16.8198 20.9354L19.3469 15.874C19.6449 15.4667 19.8374 14.8806 19.8374 14.027C19.8374 13.9235 19.8287 13.8215 19.8215 13.7202C19.8128 13.7216 19.807 13.7216 19.7998 13.7216ZM14.0612 20.7632L11.8271 16.5034C12.2077 16.6647 12.6569 16.7559 13.1952 16.7559H13.8203L14.3694 20.7632H14.0612ZM14.8201 20.7632L14.271 16.7559H16.0442L15.4958 20.7632H14.8201ZM16.406 20.7632H15.9451L16.4935 16.7559H17.1019C17.5563 16.7559 18.0678 16.711 18.525 16.5179L16.406 20.7632Z" fill="#F1F8F0"/>
<path d="M10.4966 14.3894C10.7397 14.3894 10.938 14.2252 10.938 14.0414C10.938 13.6124 11.3359 13.255 11.8249 13.255C12.314 13.255 12.7126 13.6015 12.7126 14.0313C12.7126 14.2114 12.9152 14.3634 13.1547 14.3634C13.3978 14.3634 13.5953 14.2122 13.5953 14.0284C13.5953 13.5987 13.9939 13.2492 14.483 13.2492C14.9728 13.2492 15.3707 13.5987 15.3707 14.0277C15.3707 14.2093 15.5725 14.3619 15.8113 14.3619C16.0558 14.3619 16.2533 14.2122 16.2533 14.0277C16.2533 13.5987 16.6519 13.2485 17.141 13.2485C17.6301 13.2485 18.0287 13.5987 18.0287 14.0277C18.0287 14.2093 18.2306 14.3619 18.4693 14.3619C18.7124 14.3619 18.9106 14.2122 18.9106 14.0277C18.9106 13.6073 19.2926 13.2919 19.7687 13.2789C19.4069 11.0564 17.4753 9.35187 15.1464 9.35187C12.5621 9.35187 10.459 11.4492 10.459 14.0277C10.459 14.155 10.472 14.2693 10.4822 14.388C10.488 14.388 10.493 14.3894 10.4966 14.3894Z" fill="#F1F8F0"/>
</g>
<defs>
<filter id="filter0_d_935_8421" x="0.000244141" y="0" width="38" height="43.6235" filterUnits="userSpaceOnUse" color-interpolation-filters="sRGB">
<feFlood flood-opacity="0" result="BackgroundImageFix"/>
<feColorMatrix in="SourceAlpha" type="matrix" values="0 0 0 0 0 0 0 0 0 0 0 0 0 0 0 0 0 0 127 0" result="hardAlpha"/>
<feOffset dx="4" dy="4"/>
<feGaussianBlur stdDeviation="5"/>
<feComposite in2="hardAlpha" operator="out"/>
<feColorMatrix type="matrix" values="0 0 0 0 0.945098 0 0 0 0 0.972549 0 0 0 0 0.941176 0 0 0 0.5 0"/>
<feBlend mode="normal" in2="BackgroundImageFix" result="effect1_dropShadow_935_8421"/>
<feBlend mode="normal" in="SourceGraphic" in2="effect1_dropShadow_935_8421" result="shape"/>
</filter>
</defs>
</svg>
