<svg width="38" height="44" viewBox="0 0 38 44" fill="none" xmlns="http://www.w3.org/2000/svg">
<g filter="url(#filter0_d_935_8437)">
<path d="M24 15.0322C24 20.0207 15.0004 29.6238 15.0004 29.6238C15.0004 29.6238 6 20.0207 6 15.0322C6 10.0437 10.0292 6 14.9996 6C19.9708 6 24 10.0437 24 15.0322Z" fill="#035376"/>
<path d="M15.0756 18.7539C15.7854 18.7531 16.5002 18.6555 17.1608 18.4153C17.8032 18.1678 18.4739 17.788 18.6758 17.0225C18.882 17.8198 18.1643 18.5817 17.4219 18.981C16.6999 19.3804 15.8802 19.5273 15.0764 19.5432C14.2718 19.5273 13.4528 19.3804 12.7308 18.981C11.9877 18.5817 11.27 17.8198 11.4769 17.0225C11.6788 17.788 12.3495 18.1671 12.9919 18.4153C13.6511 18.6555 14.3666 18.7531 15.0756 18.7539Z" fill="#F1F8F0"/>
<path d="M18.7286 19.633C20.0605 18.9775 20.7826 18.0637 20.0048 16.7795C20.9678 17.6426 20.9606 19.039 19.0476 20.2436C17.8264 20.936 16.4372 21.1827 15.0756 21.2008C13.714 21.1827 12.3249 20.9353 11.1036 20.2436C9.19137 19.039 9.18414 17.6426 10.1471 16.7795C9.36863 18.0637 10.0914 18.9782 11.4234 19.633C12.5904 20.1423 13.9346 20.3377 15.0756 20.3275C16.2173 20.3377 17.5623 20.1423 18.7286 19.633Z" fill="#F1F8F0"/>
<path d="M15.0756 9.65082C15.0756 9.65082 11.9805 13.1707 11.9805 14.8803C11.9805 16.5906 13.366 17.9769 15.0756 17.9769C16.786 17.9769 18.1715 16.5906 18.1715 14.8803C18.1715 13.1707 15.0756 9.65082 15.0756 9.65082ZM13.4528 16.336C12.9406 15.763 12.8783 15.0033 13.1135 14.4816C13.1779 14.957 13.3595 15.4967 13.8377 15.9909C14.3608 16.5306 14.8057 16.7093 15.2608 16.8533C14.7522 17.0544 13.9969 16.9459 13.4528 16.336Z" fill="#F1F8F0"/>
</g>
<defs>
<filter id="filter0_d_935_8437" x="0" y="0" width="38" height="43.6238" filterUnits="userSpaceOnUse" color-interpolation-filters="sRGB">
<feFlood flood-opacity="0" result="BackgroundImageFix"/>
<feColorMatrix in="SourceAlpha" type="matrix" values="0 0 0 0 0 0 0 0 0 0 0 0 0 0 0 0 0 0 127 0" result="hardAlpha"/>
<feOffset dx="4" dy="4"/>
<feGaussianBlur stdDeviation="5"/>
<feComposite in2="hardAlpha" operator="out"/>
<feColorMatrix type="matrix" values="0 0 0 0 0.945098 0 0 0 0 0.972549 0 0 0 0 0.941176 0 0 0 0.5 0"/>
<feBlend mode="normal" in2="BackgroundImageFix" result="effect1_dropShadow_935_8437"/>
<feBlend mode="normal" in="SourceGraphic" in2="effect1_dropShadow_935_8437" result="shape"/>
</filter>
</defs>
</svg>
