<svg width="38" height="44" viewBox="0 0 38 44" fill="none" xmlns="http://www.w3.org/2000/svg">
<g filter="url(#filter0_d_935_8444)">
<path d="M24 15.0326C24 20.0202 15.0007 29.6236 15.0007 29.6236C15.0007 29.6236 6 20.0202 6 15.0326C6 10.0442 10.0297 6 15 6C19.9703 6 24 10.0442 24 15.0326Z" fill="#035376"/>
<path d="M21.8715 15.3668C21.8715 15.1679 21.8629 14.9696 21.8448 14.7714C21.8267 14.5732 21.7999 14.3756 21.7645 14.1803C21.7283 13.9843 21.6842 13.7904 21.6314 13.5986C21.5778 13.4069 21.5163 13.2181 21.4461 13.0314C21.376 12.8455 21.2978 12.6632 21.211 12.4838C21.1242 12.3051 21.0301 12.13 20.9274 11.96C20.8254 11.7892 20.7154 11.6236 20.5982 11.4629C20.481 11.3031 20.3573 11.1482 20.2256 10.9985C20.0947 10.8494 19.9572 10.7069 19.8133 10.5702C19.6693 10.4334 19.5195 10.3032 19.3633 10.1802C19.2077 10.0572 19.0471 9.94149 18.8807 9.83297C18.715 9.72444 18.5443 9.62388 18.3692 9.53128C18.1934 9.43795 18.0147 9.3533 17.8317 9.27661C17.6494 9.19993 17.4634 9.13192 17.2739 9.0726C17.0851 9.01255 16.8941 8.96118 16.7002 8.91922C16.507 8.87653 16.3117 8.84325 16.1149 8.81866C15.9188 8.79406 15.7213 8.77814 15.5231 8.77163C15.3256 8.76512 15.1273 8.76729 14.9298 8.77887C14.7323 8.78972 14.5348 8.80997 14.3395 8.83964C14.1434 8.86858 13.9488 8.90692 13.7564 8.95322C13.5639 9.00025 13.3736 9.05596 13.1863 9.12034C12.9989 9.18401 12.8144 9.25708 12.6335 9.33739C12.4527 9.41842 12.2754 9.5074 12.1025 9.60435C11.9296 9.70129 11.761 9.8062 11.5975 9.91833C11.434 10.0305 11.2763 10.1498 11.1229 10.2765C10.9703 10.4031 10.8234 10.5369 10.683 10.6765C10.542 10.8169 10.4074 10.963 10.2801 11.115C10.1527 11.2676 10.0319 11.4253 9.91833 11.5881C9.80475 11.7516 9.69912 11.9195 9.60073 12.0924C9.50233 12.2646 9.4119 12.4418 9.32942 12.6227C9.24695 12.8035 9.17315 12.988 9.10732 13.1761C9.04148 13.3635 8.98433 13.5538 8.93585 13.747C8.88666 13.9401 8.84687 14.1347 8.81576 14.3315C8.78465 14.5283 8.76222 14.7258 8.7492 14.924C8.73545 15.123 8.73111 15.3212 8.73618 15.5209C8.74052 15.7199 8.75354 15.9181 8.77597 16.1156C8.79839 16.3138 8.83023 16.5099 8.87002 16.7045C8.90981 16.8998 8.95901 17.0923 9.01616 17.2833C9.07404 17.4736 9.13987 17.6609 9.21367 17.8454C9.28819 18.0299 9.37066 18.2108 9.4611 18.388C9.55225 18.5646 9.65065 18.7375 9.75627 18.9053C9.86262 19.0739 9.97621 19.2367 10.097 19.3944C10.2178 19.5521 10.3452 19.704 10.4797 19.8502C10.6143 19.9963 10.7547 20.1359 10.9023 20.2698C11.0491 20.4029 11.2018 20.5295 11.3602 20.6489C11.5187 20.7683 11.6822 20.8804 11.8507 20.9846C12.0193 21.0895 12.1922 21.1864 12.3695 21.2754C12.5467 21.3637 12.7276 21.4447 12.9121 21.517C13.2362 21.6437 13.5682 21.7442 13.9076 21.8187L14.0559 21.8477C14.822 21.996 15.5911 22.0068 16.3616 21.8802C16.7551 21.8166 17.1393 21.7167 17.5148 21.5822C17.8317 21.4686 18.1377 21.3311 18.4336 21.1698C18.7295 21.0084 19.0109 20.8254 19.2793 20.6207C19.547 20.4159 19.7973 20.1916 20.031 19.9478C20.2647 19.7047 20.4789 19.4443 20.6728 19.1679C20.8659 18.8916 21.0381 18.6015 21.1871 18.299C21.3369 17.9959 21.4628 17.6834 21.5641 17.3607C21.6661 17.038 21.7428 16.7096 21.7941 16.3753C21.8455 16.0418 21.8715 15.7054 21.8715 15.3668ZM17.5488 20.7104L17.4895 20.7343L17.352 16.4549C18.0111 16.2762 18.4965 15.6555 18.4965 14.6643C18.4965 13.4793 17.7998 12.2154 16.9389 12.2154C16.0787 12.2154 15.3813 13.4771 15.3813 14.6643C15.3813 15.6736 15.8877 16.3001 16.5678 16.4643L16.397 21.0634C15.6077 21.2146 14.8206 21.2031 14.0356 21.0273L13.8945 16.2581C13.9625 16.2451 14.0284 16.2263 14.0935 16.201C14.1579 16.1764 14.2201 16.146 14.2794 16.1098C14.338 16.0736 14.3937 16.0324 14.4458 15.9868C14.4979 15.9405 14.5449 15.8899 14.5883 15.8356C14.631 15.7806 14.6687 15.7228 14.7019 15.6613C14.7345 15.6005 14.7613 15.5361 14.7822 15.4703C14.8039 15.4037 14.8191 15.3364 14.8285 15.267C14.8372 15.1982 14.8408 15.1288 14.8372 15.0593L14.7236 12.3138H14.5276L14.4588 15.0217C14.4588 15.0593 14.4465 15.0926 14.4219 15.1216C14.3966 15.1498 14.3655 15.1671 14.3279 15.1722C14.2859 15.1773 14.2483 15.1657 14.215 15.1382C14.1825 15.11 14.1651 15.0752 14.1622 15.0318L14.0139 12.3138H13.7708L13.6601 15.0239C13.6594 15.0615 13.6464 15.0948 13.6211 15.1223C13.5957 15.1505 13.5646 15.1671 13.527 15.1722C13.4843 15.1765 13.4467 15.165 13.4142 15.1367C13.3816 15.1085 13.365 15.0731 13.3628 15.0297L13.2579 12.3138H12.9887L12.8397 15.0318C12.8375 15.0752 12.8195 15.11 12.7869 15.1382C12.7543 15.1657 12.7167 15.1773 12.674 15.1722C12.6364 15.1671 12.6053 15.1498 12.58 15.1216C12.5554 15.0926 12.5424 15.0593 12.5424 15.0217L12.4751 12.3138H12.1416L12.0229 15.0593C12.02 15.1331 12.0236 15.2062 12.0345 15.2785C12.0446 15.3516 12.062 15.4225 12.0859 15.492C12.1097 15.5614 12.1401 15.628 12.1763 15.6916C12.2132 15.7553 12.2551 15.8154 12.3022 15.8711C12.3499 15.9268 12.402 15.9774 12.4592 16.023C12.5163 16.0693 12.5778 16.1091 12.6422 16.1438C12.7066 16.1778 12.7739 16.206 12.8441 16.227C12.9135 16.2487 12.9851 16.2639 13.0575 16.2719L12.9359 20.6568C12.737 20.5664 12.5431 20.4651 12.355 20.3523C12.1669 20.2401 11.986 20.1171 11.8117 19.984C11.6373 19.8509 11.4716 19.7084 11.3132 19.5557C11.1555 19.4038 11.0064 19.2432 10.8668 19.0739C10.7272 18.9046 10.5977 18.7281 10.4776 18.5436C10.3582 18.3598 10.249 18.1695 10.1513 17.9728C10.0529 17.7767 9.96608 17.5748 9.89084 17.3687C9.8156 17.1617 9.75193 16.9519 9.70057 16.7385C9.6492 16.5244 9.60941 16.3088 9.58264 16.0903C9.55587 15.8718 9.54068 15.6533 9.53851 15.4334C9.53634 15.2134 9.54647 14.9942 9.56962 14.775C9.59204 14.5565 9.62677 14.3402 9.6738 14.1253C9.72155 13.9105 9.78087 13.6992 9.85177 13.4908C9.92267 13.2832 10.0051 13.0799 10.0999 12.8817C10.194 12.6827 10.2989 12.4903 10.4146 12.3043C10.5311 12.1177 10.657 11.9383 10.793 11.7661C10.9297 11.5946 11.0752 11.4304 11.23 11.2748C11.3848 11.12 11.5476 10.9739 11.7191 10.8371C11.8905 10.7004 12.0692 10.5738 12.2551 10.4573C12.4404 10.3416 12.6321 10.2359 12.8303 10.1419C13.0278 10.0471 13.2304 9.96464 13.4373 9.89301C13.6442 9.82211 13.8547 9.76279 14.0682 9.71576C14.2823 9.66874 14.4979 9.63401 14.7157 9.61158C14.9334 9.58915 15.1512 9.57903 15.3704 9.58192C15.5889 9.58409 15.8067 9.59928 16.0237 9.62678C16.2415 9.65427 16.4564 9.69406 16.6683 9.74615C16.881 9.79824 17.0901 9.86263 17.2956 9.93859C17.501 10.0146 17.7014 10.1021 17.8968 10.2005C18.0921 10.2996 18.281 10.4096 18.464 10.5297C18.647 10.6505 18.8228 10.7814 18.9914 10.9218C19.1592 11.0621 19.3191 11.2119 19.4703 11.3711C19.6215 11.5302 19.7633 11.6974 19.8957 11.8724C20.0274 12.0475 20.1497 12.2298 20.2611 12.4187C20.3732 12.6082 20.4738 12.8028 20.5635 13.0032C20.6525 13.2043 20.7306 13.4091 20.7972 13.6189C20.863 13.828 20.9173 14.0407 20.96 14.2563C21.0019 14.4726 21.0323 14.6896 21.0497 14.9088C21.067 15.1281 21.0721 15.348 21.0649 15.5672C21.0576 15.7871 21.0381 16.0056 21.0063 16.2234C20.9737 16.4412 20.9296 16.656 20.8732 16.868C20.8167 17.0807 20.7487 17.2891 20.6684 17.4938C20.5881 17.6986 20.4969 17.8982 20.3942 18.0921C20.2915 18.2867 20.1786 18.4741 20.0542 18.6557C19.9305 18.8366 19.7966 19.0102 19.6534 19.1759C19.5094 19.3423 19.3568 19.4993 19.1954 19.6476C19.0341 19.7959 18.8648 19.9348 18.6875 20.0643C18.511 20.1931 18.3265 20.3117 18.1363 20.4195C17.946 20.5281 17.7499 20.625 17.5481 20.7104H17.5488Z" fill="#F1F8F0"/>
</g>
<defs>
<filter id="filter0_d_935_8444" x="0" y="0" width="38" height="43.6235" filterUnits="userSpaceOnUse" color-interpolation-filters="sRGB">
<feFlood flood-opacity="0" result="BackgroundImageFix"/>
<feColorMatrix in="SourceAlpha" type="matrix" values="0 0 0 0 0 0 0 0 0 0 0 0 0 0 0 0 0 0 127 0" result="hardAlpha"/>
<feOffset dx="4" dy="4"/>
<feGaussianBlur stdDeviation="5"/>
<feComposite in2="hardAlpha" operator="out"/>
<feColorMatrix type="matrix" values="0 0 0 0 0.945098 0 0 0 0 0.972549 0 0 0 0 0.941176 0 0 0 0.5 0"/>
<feBlend mode="normal" in2="BackgroundImageFix" result="effect1_dropShadow_935_8444"/>
<feBlend mode="normal" in="SourceGraphic" in2="effect1_dropShadow_935_8444" result="shape"/>
</filter>
</defs>
</svg>
