<svg width="38" height="44" viewBox="0 0 38 44" fill="none" xmlns="http://www.w3.org/2000/svg">
<g filter="url(#filter0_d_935_8404)">
<path d="M24.0002 15.0329C24.0002 20.0207 15.0006 29.6245 15.0006 29.6245C15.0006 29.6245 6.00024 20.0207 6.00024 15.0329C6.00024 10.0444 10.0294 6 14.9999 6C19.9711 6 24.0002 10.0444 24.0002 15.0329Z" fill="#035376"/>
<path d="M10.2834 19.9043C11.059 20.2646 11.7977 20.316 11.9337 20.0179C12.0574 19.7495 11.6472 19.2886 10.9968 18.9362L10.8716 19.2097C11.1393 19.3776 11.2977 19.5751 11.242 19.6959C11.1726 19.8471 10.7985 19.8211 10.4056 19.6388C10.0128 19.4557 9.75016 19.1858 9.81961 19.0346C9.87532 18.9138 10.1271 18.9066 10.4274 19.0028L10.5525 18.73C9.86447 18.4594 9.25022 18.4443 9.12722 18.7127C8.9912 19.01 9.50851 19.544 10.2834 19.9043Z" fill="#F1F8F0"/>
<path d="M10.3087 19.2618C10.334 19.2068 10.4541 19.2083 10.5764 19.2654C10.6994 19.3226 10.7783 19.4138 10.7529 19.4687L10.8716 19.2097L10.9968 18.937L11.6732 17.461C11.5958 17.4357 11.5198 17.406 11.4453 17.3713C11.3708 17.3366 11.2985 17.2968 11.229 17.2548L10.5525 18.73L10.4274 19.0028L10.3087 19.2618Z" fill="#F1F8F0"/>
<path d="M11.6732 17.461C12.6861 17.7974 13.8799 17.3626 14.2352 16.3367C14.411 15.8295 14.7047 14.4896 14.8284 13.9144C14.8617 13.7574 14.7828 13.5982 14.6381 13.5309L12.2774 12.4326C12.1327 12.3654 11.9605 12.408 11.8635 12.5354C11.509 13.0035 10.6871 14.0974 10.418 14.5612C9.87316 15.4988 10.3181 16.6962 11.229 17.2541C11.2985 17.2967 11.3708 17.3365 11.4453 17.3713C11.5198 17.406 11.5958 17.4357 11.6732 17.461ZM10.962 14.7254C11.0626 14.5532 11.2666 14.2617 11.4779 13.9715C11.4873 13.9585 11.5018 13.9498 11.517 13.9484C11.6204 13.9375 11.726 13.9592 11.8273 14.0243C12.5038 14.4252 13.4834 14.7645 14.0977 14.1987C14.1382 14.1618 14.2033 14.1973 14.1925 14.2508C14.1925 14.2508 14.1925 14.2515 14.1925 14.2523C14.102 14.6733 13.8864 15.6544 13.7576 16.0263C13.4776 16.8344 12.4864 17.1426 11.7145 16.7838C10.9425 16.4249 10.5323 15.4648 10.962 14.7254Z" fill="#F1F8F0"/>
<path d="M10.4845 19.4659C10.6075 19.523 10.7276 19.5245 10.7529 19.4687C10.7782 19.413 10.6994 19.3219 10.5764 19.2654C10.4541 19.2083 10.334 19.2068 10.3087 19.2618C10.2834 19.3175 10.3622 19.4087 10.4845 19.4659Z" fill="#F1F8F0"/>
<path d="M19.6281 19.0028C19.9284 18.9066 20.1801 18.9138 20.2358 19.0346C20.3046 19.1858 20.0427 19.4557 19.6498 19.6388C19.2569 19.8211 18.8829 19.8471 18.8134 19.6959C18.7577 19.5751 18.9162 19.3776 19.1839 19.2097L19.0587 18.937C18.4076 19.2886 17.9981 19.7495 18.1211 20.0179C18.2578 20.316 18.9965 20.2646 19.7714 19.9043C20.547 19.544 21.0643 19.0108 20.9275 18.7127C20.8045 18.4443 20.191 18.4594 19.5029 18.73L19.6281 19.0028Z" fill="#F1F8F0"/>
<path d="M19.3025 19.4687C19.2772 19.413 19.3561 19.3219 19.4784 19.2654C19.6013 19.2083 19.7214 19.2068 19.7468 19.2618L19.6281 19.0028L19.503 18.73L18.8265 17.2541C18.757 17.2968 18.6847 17.3366 18.6102 17.3713C18.5356 17.406 18.4589 17.435 18.3822 17.461L19.0587 18.9362L19.1839 19.2097L19.3025 19.4687Z" fill="#F1F8F0"/>
<path d="M18.8265 17.2541C19.7374 16.6962 20.1823 15.4988 19.6375 14.5612C19.3677 14.0974 18.5465 13.0035 18.1913 12.5354C18.095 12.408 17.9228 12.3654 17.7781 12.4326L15.4174 13.5309C15.2727 13.5982 15.1938 13.7574 15.2271 13.9144C15.3501 14.4896 15.6445 15.8295 15.8204 16.3367C16.1756 17.3626 17.3694 17.7974 18.3823 17.461C18.459 17.4357 18.5357 17.406 18.6102 17.3713C18.6847 17.3365 18.757 17.2967 18.8265 17.2541ZM16.2979 16.0263C16.1691 15.6544 15.9535 14.6733 15.863 14.2523C15.863 14.2515 15.863 14.2508 15.863 14.2508C15.8515 14.1973 15.9173 14.1618 15.9571 14.1987C16.4701 14.6712 17.2384 14.512 17.8715 14.2139C17.9966 14.1546 18.116 14.0902 18.2274 14.0243C18.3295 13.9592 18.4344 13.9375 18.5378 13.9484C18.5537 13.9498 18.5682 13.9585 18.5769 13.9715C18.7882 14.2617 18.9929 14.5532 19.0935 14.7254C19.5225 15.4648 19.113 16.4249 18.341 16.7838C17.5691 17.1426 16.5779 16.8344 16.2979 16.0263Z" fill="#F1F8F0"/>
<path d="M19.5702 19.4659C19.6932 19.4087 19.7721 19.3175 19.7468 19.2618C19.7214 19.2068 19.6013 19.2083 19.4783 19.2654C19.3561 19.3226 19.2772 19.4138 19.3025 19.4687C19.3279 19.5237 19.448 19.523 19.5702 19.4659Z" fill="#F1F8F0"/>
<path d="M14.8183 11.4574V12.6063C14.8183 12.7003 14.8943 12.7763 14.9876 12.7763C15.0809 12.7763 15.1569 12.7003 15.1569 12.6063V11.4574C15.1569 11.3633 15.0809 11.2866 14.9876 11.2866C14.8943 11.2866 14.8183 11.3633 14.8183 11.4574Z" fill="#F1F8F0"/>
<path d="M15.6626 12.9926C15.7147 12.9926 15.7668 12.968 15.7993 12.9217L16.4679 11.9905C16.5221 11.9146 16.5055 11.8082 16.4295 11.7532C16.3543 11.6982 16.2486 11.7149 16.1936 11.7916L15.5259 12.7227C15.4709 12.7987 15.4882 12.905 15.5635 12.96C15.5939 12.9825 15.6279 12.9926 15.6626 12.9926Z" fill="#F1F8F0"/>
<path d="M13.5702 11.7301C13.4936 11.7836 13.4747 11.89 13.5276 11.9667L14.1773 12.9116C14.2105 12.9593 14.2634 12.9846 14.3169 12.9846C14.3495 12.9846 14.3835 12.9745 14.4124 12.9542C14.4898 12.9007 14.5086 12.7951 14.4551 12.7177L13.8054 11.7728C13.7526 11.6961 13.6469 11.6765 13.5702 11.7301Z" fill="#F1F8F0"/>
</g>
<defs>
<filter id="filter0_d_935_8404" x="0.000244141" y="0" width="38" height="43.6245" filterUnits="userSpaceOnUse" color-interpolation-filters="sRGB">
<feFlood flood-opacity="0" result="BackgroundImageFix"/>
<feColorMatrix in="SourceAlpha" type="matrix" values="0 0 0 0 0 0 0 0 0 0 0 0 0 0 0 0 0 0 127 0" result="hardAlpha"/>
<feOffset dx="4" dy="4"/>
<feGaussianBlur stdDeviation="5"/>
<feComposite in2="hardAlpha" operator="out"/>
<feColorMatrix type="matrix" values="0 0 0 0 0.945098 0 0 0 0 0.972549 0 0 0 0 0.941176 0 0 0 0.5 0"/>
<feBlend mode="normal" in2="BackgroundImageFix" result="effect1_dropShadow_935_8404"/>
<feBlend mode="normal" in="SourceGraphic" in2="effect1_dropShadow_935_8404" result="shape"/>
</filter>
</defs>
</svg>
