<svg width="38" height="44" viewBox="0 0 38 44" fill="none" xmlns="http://www.w3.org/2000/svg">
<g filter="url(#filter0_d_935_8395)">
<path d="M24.0002 15.0326C24.0002 20.0202 15.0002 29.6236 15.0002 29.6236C15.0002 29.6236 6.00024 20.0202 6.00024 15.0326C6.00024 10.0442 10.0293 6 15.0002 6C19.9705 6 24.0002 10.0442 24.0002 15.0326Z" fill="#035376"/>
<path d="M15.0719 10.3886C14.0323 10.3871 12.5969 10.6859 12.0044 10.9369C11.409 11.1844 11.0132 11.4332 10.8895 12.0525L10.4431 15.5064V20.2632H11.2115V21.0055C11.2107 21.9156 12.5332 21.9156 12.5318 21.0055V20.2632H17.5201V21.0055C17.5209 21.9156 18.8434 21.9156 18.8463 21.0055V20.2632H19.6081V15.5064L19.1617 12.0525C19.0409 11.4332 18.6451 11.1844 18.0526 10.9369C17.4572 10.6859 16.0218 10.3871 14.9851 10.3886" fill="#F1F8F0"/>
<path d="M18.1828 18.7729C18.5315 18.77 18.8158 18.4842 18.8151 18.1312C18.8158 17.7796 18.5315 17.4938 18.1828 17.4952C17.8312 17.4938 17.5468 17.7796 17.5447 18.1312C17.5468 18.4842 17.8312 18.77 18.1828 18.7729Z" fill="#035376"/>
<path d="M11.8749 18.7729C11.5225 18.77 11.2382 18.4842 11.236 18.1312C11.2382 17.7796 11.5225 17.4938 11.8749 17.4952C12.2229 17.4938 12.5072 17.7796 12.5065 18.1312C12.5072 18.4842 12.2229 18.77 11.8749 18.7729Z" fill="#035376"/>
<path d="M14.9792 11.8218H13.1387C12.7697 11.8189 12.7697 11.2589 13.1387 11.2611H16.9123C17.2842 11.2589 17.2842 11.8189 16.9123 11.8218H14.9792Z" fill="#035376"/>
<path d="M14.9792 12.3831H12.141C11.7482 12.3846 11.6455 12.585 11.5955 12.8881L11.249 15.3942C11.2193 15.6315 11.2881 15.8695 11.6201 15.8681H18.4367C18.7659 15.8695 18.8346 15.6315 18.8028 15.3942L18.4555 12.8881C18.4085 12.585 18.3057 12.3846 17.9165 12.3831H14.9792Z" fill="#035376"/>
</g>
<defs>
<filter id="filter0_d_935_8395" x="0.000244141" y="0" width="38" height="43.6235" filterUnits="userSpaceOnUse" color-interpolation-filters="sRGB">
<feFlood flood-opacity="0" result="BackgroundImageFix"/>
<feColorMatrix in="SourceAlpha" type="matrix" values="0 0 0 0 0 0 0 0 0 0 0 0 0 0 0 0 0 0 127 0" result="hardAlpha"/>
<feOffset dx="4" dy="4"/>
<feGaussianBlur stdDeviation="5"/>
<feComposite in2="hardAlpha" operator="out"/>
<feColorMatrix type="matrix" values="0 0 0 0 0.945098 0 0 0 0 0.972549 0 0 0 0 0.941176 0 0 0 0.5 0"/>
<feBlend mode="normal" in2="BackgroundImageFix" result="effect1_dropShadow_935_8395"/>
<feBlend mode="normal" in="SourceGraphic" in2="effect1_dropShadow_935_8395" result="shape"/>
</filter>
</defs>
</svg>
