<?xml version="1.0" standalone="no"?>
<!DOCTYPE svg PUBLIC "-//W3C//DTD SVG 1.1//EN" "http://www.w3.org/Graphics/SVG/1.1/DTD/svg11.dtd" >
<svg xmlns="http://www.w3.org/2000/svg" xmlns:xlink="http://www.w3.org/1999/xlink" version="1.1">
<metadata>
Created by FontForge 20170731 at Fri Dec 17 17:21:11 2021
 By Aleksey,,,
Copyright (c) 2021 by Arendxstudio .All rights reserved
</metadata>
<defs>
<font id="HearingRegular" horiz-adv-x="1003" >
  <font-face 
    font-family="Hearing"
    font-weight="400"
    font-stretch="normal"
    units-per-em="2048"
    panose-1="0 0 0 0 0 0 0 0 0 0"
    ascent="1638"
    descent="-410"
    x-height="1434"
    cap-height="1434"
    bbox="-143 -727 1669 1786"
    underline-thickness="0"
    underline-position="0"
    unicode-range="U+000A-F016"
  />
<missing-glyph horiz-adv-x="1024" 
 />
    <glyph glyph-name=".notdef" horiz-adv-x="1024" 
 />
    <glyph glyph-name="uni0000" horiz-adv-x="0" 
 />
    <glyph glyph-name="uni0000" horiz-adv-x="0" 
 />
    <glyph glyph-name="uni000D" unicode="&#xd;" horiz-adv-x="0" 
 />
    <glyph glyph-name="uni000A" unicode="&#xa;" horiz-adv-x="0" 
 />
    <glyph glyph-name="space" unicode=" " horiz-adv-x="434" 
 />
    <glyph glyph-name="exclam" unicode="!" horiz-adv-x="454" 
d="M242 301q-22 0 -47.5 0.5t-42.5 1t-19 0.5l-20 2v1125l112 2h111l2 -562q0 -563 -2 -565q-4 -4 -94 -4zM289 254q29 -15 46 -42.5t17 -61.5q4 -42 -18 -81t-62 -59q-24 -12 -51 -12q-24 -3 -45 6q-27 12 -45.5 34.5t-24.5 49.5q-15 60 21 109q22 34 66 57q21 8 49 8
t47 -8z" />
    <glyph glyph-name="exclam" unicode="&#xe90e;" horiz-adv-x="454" 
d="M242 301q-22 0 -47.5 0.5t-42.5 1t-19 0.5l-20 2v1125l112 2h111l2 -562q0 -563 -2 -565q-4 -4 -94 -4zM289 254q29 -15 46 -42.5t17 -61.5q4 -42 -18 -81t-62 -59q-24 -12 -51 -12q-24 -3 -45 6q-27 12 -45.5 34.5t-24.5 49.5q-15 60 21 109q22 34 66 57q21 8 49 8
t47 -8z" />
    <glyph glyph-name="quotedbl" unicode="&#x22;" horiz-adv-x="634" 
d="M199 1694q43 0 73.5 -30t32.5 -73q-7 -67 -63 -94q-42 -13 -78 -8q-16 3 -4 27l8 16l-14 6q-32 13 -45 45q-13 33 2 64q30 47 88 47zM426 1694q43 0 73.5 -30t32.5 -73q-2 -29 -18.5 -55t-44.5 -39q-35 -11 -76 -8q-16 3 -4 27l6 16l-14 6q-32 13 -45 45q-13 33 2 64
q30 47 88 47z" />
    <glyph glyph-name="quotedbl" unicode="&#xe911;" horiz-adv-x="634" 
d="M199 1694q43 0 73.5 -30t32.5 -73q-7 -67 -63 -94q-42 -13 -78 -8q-16 3 -4 27l8 16l-14 6q-32 13 -45 45q-13 33 2 64q30 47 88 47zM426 1694q43 0 73.5 -30t32.5 -73q-2 -29 -18.5 -55t-44.5 -39q-35 -11 -76 -8q-16 3 -4 27l6 16l-14 6q-32 13 -45 45q-13 33 2 64
q30 47 88 47z" />
    <glyph glyph-name="numbersign" unicode="#" horiz-adv-x="1757" 
d="M1182 725q-3 -13 -8 -20q-3 -5 -5 -11.5t-2 -10.5t2 -5h340v-12q0 -13 2 -15q2 -14 2 -30q1 -7 2 -15t2 -13t1 -7q0 -1 4 -33q0 -25 4 -57t4 -45v-17h-19q-204 0 -321 -6h-111l-12 -35q-19 -60 -113 -327q-18 -49 -18 -56q0 -8 -8 -8q-7 0 -110.5 43.5t-108.5 48.5
q38 147 82 258q20 58 20 68q0 4 -66 4l-67 -2l-10 -31q-10 -33 -62.5 -182.5t-58.5 -169.5q-8 -21 -10 -31q5 -2 -5 -8l-4 -2q-3 0 -110 47q-109 50 -109 51q11 47 31 101q65 197 72 211q1 3 -4 4q-10 2 -142 0q-107 -2 -128 -1t-21 5q-4 8 -4 59q-4 58 -4 74q-1 4 -1.5 15
t-1.5 27.5t-2 26.5l-2 50h197q199 0 199 4q3 1 22 56.5t19 59.5q0 3 -148 3q-74 -3 -149 0q-11 101 -11 165q-4 62 -4 72l-2 19h199q199 0 203 4q44 102 82 233l45 143l32 -12q173 -64 205 -80q3 -3 -2 -20q-80 -240 -88 -260q60 -6 129 4q0 1 3 9l9 24t14 40t21.5 64
t28.5 88l47 143l31 -12q164 -59 205 -80q4 -3 -1.5 -20.5t-46.5 -134.5q-41 -118 -41 -121q76 -2 164 0q166 0 166 -2q1 -2 4.5 -30t7.5 -65t5 -59q4 -36 4 -37q2 -10 2 -28l2 -23l-35 -2q-88 0 -346 -6q-46 0 -66 -2q-1 -2 -6.5 -19t-12 -37t-7.5 -24zM940 793
q1 7 -8.5 8.5t-67.5 1.5l-55 -2l-10 -31q-3 -7 -6 -16.5t-6 -18.5t-3 -10q-3 -13 -8 -20q-6 -9 -6 -21l-2 -12l66 2q19 0 65 4q1 0 20 53.5t21 61.5z" />
    <glyph glyph-name="numbersign" unicode="&#xe912;" horiz-adv-x="1757" 
d="M1182 725q-3 -13 -8 -20q-3 -5 -5 -11.5t-2 -10.5t2 -5h340v-12q0 -13 2 -15q2 -14 2 -30q1 -7 2 -15t2 -13t1 -7q0 -1 4 -33q0 -25 4 -57t4 -45v-17h-19q-204 0 -321 -6h-111l-12 -35q-19 -60 -113 -327q-18 -49 -18 -56q0 -8 -8 -8q-7 0 -110.5 43.5t-108.5 48.5
q38 147 82 258q20 58 20 68q0 4 -66 4l-67 -2l-10 -31q-10 -33 -62.5 -182.5t-58.5 -169.5q-8 -21 -10 -31q5 -2 -5 -8l-4 -2q-3 0 -110 47q-109 50 -109 51q11 47 31 101q65 197 72 211q1 3 -4 4q-10 2 -142 0q-107 -2 -128 -1t-21 5q-4 8 -4 59q-4 58 -4 74q-1 4 -1.5 15
t-1.5 27.5t-2 26.5l-2 50h197q199 0 199 4q3 1 22 56.5t19 59.5q0 3 -148 3q-74 -3 -149 0q-11 101 -11 165q-4 62 -4 72l-2 19h199q199 0 203 4q44 102 82 233l45 143l32 -12q173 -64 205 -80q3 -3 -2 -20q-80 -240 -88 -260q60 -6 129 4q0 1 3 9l9 24t14 40t21.5 64
t28.5 88l47 143l31 -12q164 -59 205 -80q4 -3 -1.5 -20.5t-46.5 -134.5q-41 -118 -41 -121q76 -2 164 0q166 0 166 -2q1 -2 4.5 -30t7.5 -65t5 -59q4 -36 4 -37q2 -10 2 -28l2 -23l-35 -2q-88 0 -346 -6q-46 0 -66 -2q-1 -2 -6.5 -19t-12 -37t-7.5 -24zM940 793
q1 7 -8.5 8.5t-67.5 1.5l-55 -2l-10 -31q-3 -7 -6 -16.5t-6 -18.5t-3 -10q-3 -13 -8 -20q-6 -9 -6 -21l-2 -12l66 2q19 0 65 4q1 0 20 53.5t21 61.5z" />
    <glyph glyph-name="dollar" unicode="$" horiz-adv-x="1613" 
d="M924 1440q161 2 297 -76t214 -214.5t76 -297.5q6 -221 -135 -395q-60 -77 -148 -120.5t-186 -43.5q-88 0 -131 35t-43 118q-40 -66 -107 -106.5t-145 -46.5q-88 -3 -143 65q-56 71 -53 166q2 100 36.5 206.5t93 199t150 152t197.5 59.5q14 0 68 -4q15 0 36.5 -1t26.5 -1
h158l-115 -603q-6 -24 -6 -49q0 -8 1 -11.5t8 -7t22 -3.5q55 3 101 32.5t73 77.5q82 121 82 265q2 88 -31 169t-94 142q-63 63 -145.5 95.5t-170.5 29.5q-130 -1 -247.5 -56t-202.5 -153q-95 -97 -147 -221.5t-52 -257.5q-6 -177 121 -301q133 -123 311 -117q128 0 240 59
l33 19l53 -158l-29 -12q-143 -73 -309 -76q-117 -3 -225 39.5t-191 124.5q-82 82 -124.5 188.5t-39.5 222.5q0 167 64.5 324.5t173.5 275.5t262.5 191t321.5 76zM930 813l26 137q-53 17 -96 17q-67 3 -117 -41q-64 -67 -95.5 -165.5t-31.5 -201.5q0 -90 37 -90
q27 0 70.5 43.5t85.5 104.5t74 113.5t47 82.5z" />
    <glyph glyph-name="dollar" unicode="&#xe914;" horiz-adv-x="1613" 
d="M924 1440q161 2 297 -76t214 -214.5t76 -297.5q6 -221 -135 -395q-60 -77 -148 -120.5t-186 -43.5q-88 0 -131 35t-43 118q-40 -66 -107 -106.5t-145 -46.5q-88 -3 -143 65q-56 71 -53 166q2 100 36.5 206.5t93 199t150 152t197.5 59.5q14 0 68 -4q15 0 36.5 -1t26.5 -1
h158l-115 -603q-6 -24 -6 -49q0 -8 1 -11.5t8 -7t22 -3.5q55 3 101 32.5t73 77.5q82 121 82 265q2 88 -31 169t-94 142q-63 63 -145.5 95.5t-170.5 29.5q-130 -1 -247.5 -56t-202.5 -153q-95 -97 -147 -221.5t-52 -257.5q-6 -177 121 -301q133 -123 311 -117q128 0 240 59
l33 19l53 -158l-29 -12q-143 -73 -309 -76q-117 -3 -225 39.5t-191 124.5q-82 82 -124.5 188.5t-39.5 222.5q0 167 64.5 324.5t173.5 275.5t262.5 191t321.5 76zM930 813l26 137q-53 17 -96 17q-67 3 -117 -41q-64 -67 -95.5 -165.5t-31.5 -201.5q0 -90 37 -90
q27 0 70.5 43.5t85.5 104.5t74 113.5t47 82.5z" />
    <glyph glyph-name="percent" unicode="%" horiz-adv-x="1046" 
d="M879 113l65 -103q0 -2 -395 -2h-395v643h-52v90l23 -2q48 -6 45 14l-2 5q-4 5 -35 8l-31 2v82h27l27 2v297q0 297 2 297q0 2 389 2h387l-115 -201h-147q-80 3 -160 -6q-42 -20 -59 -55l-11 -19v-311h142q102 0 121.5 -1t19.5 -5q-3 -8 -9 -24.5t-9 -24.5l-21 -45l-43 -2
q-11 0 -54 -1t-65 -1q-55 0 -82 -4q-11 -3 -8 -13v-10l119 2l119 -2q0 -1 -19 -45l-18 -41h-193v-178q0 -145 3 -171.5t23 -44.5l5 -5q20 -22 39 -24.5t147 -2.5h152z" />
    <glyph glyph-name="percent" unicode="&#xe916;" horiz-adv-x="1046" 
d="M879 113l65 -103q0 -2 -395 -2h-395v643h-52v90l23 -2q48 -6 45 14l-2 5q-4 5 -35 8l-31 2v82h27l27 2v297q0 297 2 297q0 2 389 2h387l-115 -201h-147q-80 3 -160 -6q-42 -20 -59 -55l-11 -19v-311h142q102 0 121.5 -1t19.5 -5q-3 -8 -9 -24.5t-9 -24.5l-21 -45l-43 -2
q-11 0 -54 -1t-65 -1q-55 0 -82 -4q-11 -3 -8 -13v-10l119 2l119 -2q0 -1 -19 -45l-18 -41h-193v-178q0 -145 3 -171.5t23 -44.5l5 -5q20 -22 39 -24.5t147 -2.5h152z" />
    <glyph glyph-name="ampersand" unicode="&#x26;" horiz-adv-x="1343" 
d="M1176 109l71 -74h-350l-41 55q-130 -88 -287 -88q-194 -6 -331 131q-64 64 -97.5 149.5t-31.5 178.5q-8 137 65.5 254.5t200.5 169.5q-58 113 -64 239q0 133 96 224.5t230 91.5q128 3 219 -88q89 -89 86 -217q0 -204 -240 -351q94 -178 199 -319q36 119 33 233l-2 109
h248v-45q6 -268 -142 -492q58 -77 138 -161zM582 1200q-24 -27 -21 -67q3 -84 45 -160q43 25 69 67.5t27 92.5q3 37 -20 67q-24 24 -51 21q-28 3 -49 -21zM430 299q65 -80 170 -80q75 0 135 45q-144 204 -266 436q-54 -31 -84 -84t-27 -114q-3 -119 72 -203z" />
    <glyph glyph-name="ampersand" unicode="&#xe917;" horiz-adv-x="1343" 
d="M1176 109l71 -74h-350l-41 55q-130 -88 -287 -88q-194 -6 -331 131q-64 64 -97.5 149.5t-31.5 178.5q-8 137 65.5 254.5t200.5 169.5q-58 113 -64 239q0 133 96 224.5t230 91.5q128 3 219 -88q89 -89 86 -217q0 -204 -240 -351q94 -178 199 -319q36 119 33 233l-2 109
h248v-45q6 -268 -142 -492q58 -77 138 -161zM582 1200q-24 -27 -21 -67q3 -84 45 -160q43 25 69 67.5t27 92.5q3 37 -20 67q-24 24 -51 21q-28 3 -49 -21zM430 299q65 -80 170 -80q75 0 135 45q-144 204 -266 436q-54 -31 -84 -84t-27 -114q-3 -119 72 -203z" />
    <glyph glyph-name="quotesingle" unicode="'" horiz-adv-x="405" 
d="M199 1700q42 0 73 -30.5t31 -72.5q-2 -30 -18 -55.5t-43 -38.5q-42 -13 -78 -8q-16 3 -4 27l8 16l-14 6q-32 13 -45 45q-13 33 2 64q30 47 88 47z" />
    <glyph glyph-name="quotesingle" unicode="&#xe910;" horiz-adv-x="405" 
d="M199 1700q42 0 73 -30.5t31 -72.5q-2 -30 -18 -55.5t-43 -38.5q-42 -13 -78 -8q-16 3 -4 27l8 16l-14 6q-32 13 -45 45q-13 33 2 64q30 47 88 47z" />
    <glyph glyph-name="parenleft" unicode="(" horiz-adv-x="735" 
d="M352 872q-4 -30 -8 -43q-18 -129 -2 -266q12 -71 37 -141q4 -8 6 -14q49 -119 86 -156q0 -8 54 -64.5t71 -70.5q8 -4 4 -8q-2 -3 -108.5 -55t-124.5 -58q-6 -3 -13 4q-2 4 -12 14q-7 7 -14 21q-4 4 -8 9l-5 5q-10 12 -79 117q-121 211 -146 407q-13 73 -10 142
q-3 105 18 207q8 28 8 39q68 263 244 469q6 6 242 -50q17 -6 18 -13q0 -2 -4 -3q-27 -31 -69 -88q-20 -28 -23 -31q0 -1 -2 -4t-5.5 -9t-6.5 -11q-1 -1 -2 -3.5t-2 -3.5l-9 -12q-1 -1 -2 -3t-2 -3q-48 -81 -84 -172q-4 -12 -8 -16q-3 -6 -29 -93q0 -1 -4 -18t-6 -25z" />
    <glyph glyph-name="parenleft" unicode="&#xe918;" horiz-adv-x="735" 
d="M352 872q-4 -30 -8 -43q-18 -129 -2 -266q12 -71 37 -141q4 -8 6 -14q49 -119 86 -156q0 -8 54 -64.5t71 -70.5q8 -4 4 -8q-2 -3 -108.5 -55t-124.5 -58q-6 -3 -13 4q-2 4 -12 14q-7 7 -14 21q-4 4 -8 9l-5 5q-10 12 -79 117q-121 211 -146 407q-13 73 -10 142
q-3 105 18 207q8 28 8 39q68 263 244 469q6 6 242 -50q17 -6 18 -13q0 -2 -4 -3q-27 -31 -69 -88q-20 -28 -23 -31q0 -1 -2 -4t-5.5 -9t-6.5 -11q-1 -1 -2 -3.5t-2 -3.5l-9 -12q-1 -1 -2 -3t-2 -3q-48 -81 -84 -172q-4 -12 -8 -16q-3 -6 -29 -93q0 -1 -4 -18t-6 -25z" />
    <glyph glyph-name="parenright" unicode=")" horiz-adv-x="735" 
d="M614 930q22 -106 19 -207q0 -278 -156 -549q-65 -98 -80 -117q-8 -8 -12 -14q-10 -15 -18 -23q-6 -6 -9 -12q0 -3 -5 -4.5t-9 0.5q-1 1 -8.5 4.5t-22 10t-26.5 12.5q-174 84 -174 86q-3 3 4 10q58 52 104 106q4 5 9 11.5t8 10.5t4 5q3 3 41 64q29 56 45 94q0 4 4 12
q27 71 39 143q16 137 -2 265q-7 29 -9 43q-2 8 -6 25t-4 18q-27 89 -28 92q-7 7 -7 16q-41 98 -86 172q-1 1 -2 3t-2 3l-8 13q-1 1 -2 3t-2 3q-8 16 -16 24q0 2 -3 6.5t-8.5 12.5t-9.5 14q-57 73 -70 86q-10 2 3 11q5 3 12 6q48 12 143 32t98 17q186 -229 242 -469
q1 -3 4.5 -17.5t5.5 -21.5z" />
    <glyph glyph-name="parenright" unicode="&#xe919;" horiz-adv-x="735" 
d="M614 930q22 -106 19 -207q0 -278 -156 -549q-65 -98 -80 -117q-8 -8 -12 -14q-10 -15 -18 -23q-6 -6 -9 -12q0 -3 -5 -4.5t-9 0.5q-1 1 -8.5 4.5t-22 10t-26.5 12.5q-174 84 -174 86q-3 3 4 10q58 52 104 106q4 5 9 11.5t8 10.5t4 5q3 3 41 64q29 56 45 94q0 4 4 12
q27 71 39 143q16 137 -2 265q-7 29 -9 43q-2 8 -6 25t-4 18q-27 89 -28 92q-7 7 -7 16q-41 98 -86 172q-1 1 -2 3t-2 3l-8 13q-1 1 -2 3t-2 3q-8 16 -16 24q0 2 -3 6.5t-8.5 12.5t-9.5 14q-57 73 -70 86q-10 2 3 11q5 3 12 6q48 12 143 32t98 17q186 -229 242 -469
q1 -3 4.5 -17.5t5.5 -21.5z" />
    <glyph glyph-name="asterisk" unicode="*" horiz-adv-x="430" 
d="M272 1614q43 -29 43 -35q-7 -14 -18 -25l-18 -20l-23 20q-26 26 -41 35l-16 15l-25 -35l-27 -37q-7 1 -24 14q-11 5 -21 19q12 18 31 34q15 17 22.5 26t6.5 9l-6 4q-5 5 -13 12t-14 13q-12 8 -31 27q12 18 13 20l12 19l47 -48q-4 17 -6 35q-2 7 -4 16l-3 13.5t-1 5.5
q0 5 30 8q10 1 13.5 -5t9.5 -38q4 -26 8 -37q17 6 37 19q21 14 37 22q18 -16 33 -45q-1 -1 -6.5 -3.5t-16.5 -8t-20 -10.5l-39 -19z" />
    <glyph glyph-name="asterisk" unicode="&#xe904;" horiz-adv-x="430" 
d="M272 1614q43 -29 43 -35q-7 -14 -18 -25l-18 -20l-23 20q-26 26 -41 35l-16 15l-25 -35l-27 -37q-7 1 -24 14q-11 5 -21 19q12 18 31 34q15 17 22.5 26t6.5 9l-6 4q-5 5 -13 12t-14 13q-12 8 -31 27q12 18 13 20l12 19l47 -48q-4 17 -6 35q-2 7 -4 16l-3 13.5t-1 5.5
q0 5 30 8q10 1 13.5 -5t9.5 -38q4 -26 8 -37q17 6 37 19q21 14 37 22q18 -16 33 -45q-1 -1 -6.5 -3.5t-16.5 -8t-20 -10.5l-39 -19z" />
    <glyph glyph-name="plus" unicode="+" horiz-adv-x="626" 
d="M524 637v-164l-63 -2h-62v-109h-170v109h-59q-58 0 -64 6q-7 48 -2 86v80l62 2h63v68l2 65l84 2h84v-135h62q29 0 42.5 -1t16.5 -2.5t4 -4.5z" />
    <glyph glyph-name="plus" unicode="&#xe903;" horiz-adv-x="626" 
d="M524 637v-164l-63 -2h-62v-109h-170v109h-59q-58 0 -64 6q-7 48 -2 86v80l62 2h63v68l2 65l84 2h84v-135h62q29 0 42.5 -1t16.5 -2.5t4 -4.5z" />
    <glyph glyph-name="comma" unicode="," horiz-adv-x="399" 
d="M213 195q52 -19 74 -70q22 -49 0 -98q-20 -44 -58 -64q-26 -13 -55 -10l-12 4q-8 2 -8.5 7t6.5 24l10 18l-16 8q-31 17 -44.5 50t-3.5 67q10 33 41.5 51.5t65.5 12.5z" />
    <glyph glyph-name="comma" unicode="&#xe901;" horiz-adv-x="399" 
d="M213 195q52 -19 74 -70q22 -49 0 -98q-20 -44 -58 -64q-26 -13 -55 -10l-12 4q-8 2 -8.5 7t6.5 24l10 18l-16 8q-31 17 -44.5 50t-3.5 67q10 33 41.5 51.5t65.5 12.5z" />
    <glyph glyph-name="hyphen" unicode="-" horiz-adv-x="626" 
d="M522 633q2 -4 2 -86l-2 -78h-205q-102 -8 -211 4q-7 48 -2 86v80l209 2h209v-8z" />
    <glyph glyph-name="hyphen" unicode="&#xe902;" horiz-adv-x="626" 
d="M522 633q2 -4 2 -86l-2 -78h-205q-102 -8 -211 4q-7 48 -2 86v80l209 2h209v-8z" />
    <glyph glyph-name="period" unicode="." horiz-adv-x="393" 
d="M219 197q32 -14 52 -43t20 -64q0 -58 -47 -84q-32 -13 -62 -4q-50 13 -69 61q-20 46 -2 87q15 34 47 47q31 9 61 0z" />
    <glyph glyph-name="period" unicode="&#xe900;" horiz-adv-x="393" 
d="M219 197q32 -14 52 -43t20 -64q0 -58 -47 -84q-32 -13 -62 -4q-50 13 -69 61q-20 46 -2 87q15 34 47 47q31 9 61 0z" />
    <glyph glyph-name="slash" unicode="/" horiz-adv-x="888" 
d="M784 1335q7 -4 -22 -84q-121 -361 -137 -389q-5 -12 -24 -66.5t-23 -70.5q-2 -10 -9 -23q-1 -2 -4 -11.5t-9 -27.5t-11 -32q-35 -101 -62 -176q-79 -244 -143 -416q-4 -9 -8 -31q2 -2 -2.5 -6t-7.5 -4q-8 0 -111 47q-109 46 -109 49q-1 3 111 340q64 184 72 211
q20 58 62 182.5t48 141.5q17 42 19 53q4 18 8 25q10 19 80 237l47 143l31 -10q201 -76 204 -82z" />
    <glyph glyph-name="slash" unicode="&#xe907;" horiz-adv-x="888" 
d="M784 1335q7 -4 -22 -84q-121 -361 -137 -389q-5 -12 -24 -66.5t-23 -70.5q-2 -10 -9 -23q-1 -2 -4 -11.5t-9 -27.5t-11 -32q-35 -101 -62 -176q-79 -244 -143 -416q-4 -9 -8 -31q2 -2 -2.5 -6t-7.5 -4q-8 0 -111 47q-109 46 -109 49q-1 3 111 340q64 184 72 211
q20 58 62 182.5t48 141.5q17 42 19 53q4 18 8 25q10 19 80 237l47 143l31 -10q201 -76 204 -82z" />
    <glyph glyph-name="zero" unicode="0" horiz-adv-x="1028" 
d="M444 0q-145 19 -244.5 84.5t-146.5 196.5q-12 45 -15 113.5t-3 332.5q0 272 2.5 328t17.5 100q28 71 73 122.5t104 83t121.5 48.5t138.5 25q146 12 278 -54q73 -34 127 -93.5t78 -135.5q12 -42 14 -98t2 -320q0 -266 -2 -327t-14 -107q-73 -234 -387 -297q-84 -7 -144 -2
zM305 1022q0 -164 2 -336q-11 -156 8 -334q18 -67 72 -112q71 -52 158 -33q71 15 117 65.5t53 122.5q3 26 4 337.5t-2 326.5q-19 76 -67 124t-122 48q-92 3 -155 -57q-65 -59 -68 -152z" />
    <glyph glyph-name="one" unicode="1" horiz-adv-x="501" 
d="M137 1073q-33 36 -61 78q-79 104 -76 113q18 17 82 88l80 84h297v-1434h-287v1108l-16 -18q-2 -4 -5 -7t-7.5 -6.5t-6.5 -5.5z" />
    <glyph glyph-name="two" unicode="2" horiz-adv-x="927" 
d="M797 1026q-9 -97 -66 -182q-22 -39 -111.5 -192.5t-164 -282t-74.5 -129.5h160q47 0 146 -1t126 -1l113 -2v-97q-1 -70 -3 -85.5t-8 -26.5q-5 -11 -20 -23q-9 -4 -63 -5t-340 -1t-340.5 1t-63.5 7q-21 10 -27 34t-6 95q0 73 8.5 97t81.5 153q84 142 183 315q7 14 61 107
q16 26 53 90q52 93 59 169.5t-34 96.5q-29 13 -57 13q-61 0 -107 -46q-29 -25 -38.5 -62.5t5.5 -72.5l4 -14l-6 -4l-110 -41q-106 -41 -117 -41q-5 2 -10 10q-50 115 -19 242q38 133 152 214t252 75q158 -6 268 -113q60 -58 89.5 -136t23.5 -161z" />
    <glyph glyph-name="three" unicode="3" horiz-adv-x="913" 
d="M119 1092h-28.5t-25.5 0.5t-20 1t-15 0.5h-5q-10 88 -5 155q0 114 2.5 146t10.5 37q8 4 383 4q291 0 346.5 -2.5t79.5 -14.5q36 -19 43 -63q0 -4 -24 -69t-62 -164t-72 -183l-18 -51l22 -27q104 -115 138 -266.5t-11 -298.5q-34 -111 -115 -189t-192 -104q-57 -8 -123 -2
q-173 37 -275 169t-120 314v19l37 10q26 8 125 37q21 6 61 18l33 9l2 -11q0 -10 4 -26q11 -77 54 -141.5t110 -104.5q10 -4 26 -12q24 -4 37 -4q27 -3 49 12q59 37 62 104q6 46 -6 92q-15 75 -62 134q-5 8 -12 18.5t-8 11.5q-88 127 -209 146l-21 2l-2 41q0 33 2 47
q3 6 21 10q41 8 86 41q11 11 50 96q9 21 15 33l54 115q0 2 -164 2h-166l-2 -47v-47z" />
    <glyph glyph-name="four" unicode="4" 
d="M39 498l-10 12q-32 32 -29 78q0 27 6 51q1 2 51 207q41 191 129 553q5 28 15 35q132 3 288 -7q-4 -12 -6 -20q-7 -18 -61 -219q-117 -425 -119 -430q-1 -3 4 -4q10 -2 182 -2h187v684h287v-1434h-287v506q-89 0 -469 -8z" />
    <glyph glyph-name="five" unicode="5" horiz-adv-x="888" 
d="M55 1430q172 18 346 6h342v-238l-112 -2q-61 -2 -203 -2h-90v-258l47 -2q65 -2 168 -21q86 -22 157 -74.5t117 -127.5q80 -141 55 -303.5t-145 -272.5q-80 -77 -185.5 -111.5t-215.5 -19.5q-146 22 -246 125q-38 35 -61 80q57 57 125 110q11 9 27.5 23.5t26 23t13.5 11.5
q11 11 15 8q4 -4 18 -25q24 -41 68 -57q70 -31 141 -16q69 12 112 75q39 61 23 136q-23 65 -77.5 106t-123.5 45q-61 10 -104 8q-99 3 -197 -22l-43 -12v401q0 404 2 406z" />
    <glyph glyph-name="six" unicode="6" horiz-adv-x="874" 
d="M745 1202q-91 -29 -182 -124.5t-160 -203.5q-13 -20 -24 -61q15 4 29 10q68 18 137 6q90 -22 163 -78t115 -137q43 -79 49.5 -170.5t-24.5 -177.5q-34 -102 -110.5 -171t-180.5 -87q-77 -12 -154 -6q-58 14 -127 37q-39 19 -51 27q-140 86 -195.5 261t-9.5 386
q33 150 113.5 293t203 259t263.5 171q15 -12 25 -29q6 -10 80 -115l59 -86q-12 -4 -19 -4zM401 557q-43 -19 -67.5 -57t-24.5 -84q-3 -69 49 -121q29 -29 70 -40t82 -1q41 13 68 43q52 58 36 141q-16 81 -90 117q-32 18 -65 12q-36 4 -58 -10z" />
    <glyph glyph-name="seven" unicode="7" horiz-adv-x="1046" 
d="M109 1432h63q240 0 459 2l395 2l8 -9q7 -7 8.5 -17t1.5 -60q6 -74 -20 -140q-3 -9 -205 -352q-327 -549 -479 -813l-25 -43h-157q-158 0 -158 2q125 216 186 320q52 85 78 133q40 73 80 137q11 19 24 42t21 37t10 17q8 16 31.5 54.5t24.5 39.5q2 3 9 15t19 32.5t21 36.5
q150 257 158 265q17 26 26 59h-20q-20 1 -53.5 1.5t-75.5 1t-91 1t-96 1t-93 1t-79 0.5h-71v234z" />
    <glyph glyph-name="eight" unicode="8" horiz-adv-x="974" 
d="M88 659q38 55 90 99l17 12l-13 14q-61 67 -86 156q-41 147 29 282.5t213 186.5q37 13 68 21q40 6 77 6q147 0 259 -89t143 -233q12 -72 0 -145q-21 -107 -94 -189l-13 -12l21 -18q73 -60 114.5 -145t44.5 -181q-6 -159 -107.5 -271.5t-260.5 -146.5q-84 -10 -158 -4
q-170 19 -291 142.5t-121 291.5q-3 119 68 223zM352 1090q-9 -50 0 -101q12 -61 68 -98q56 -36 119 -21q33 12 57 39t31 62q19 51 4 100q-9 48 -43.5 83t-81.5 44q-37 9 -76 -10q-60 -32 -78 -98zM358 539q-51 -48 -61 -121q-9 -62 22 -117q49 -81 140 -96q41 -3 71 2
q66 12 115 56.5t68 109.5q12 66 -17 135q-45 73 -129 92q-57 12 -112 -4.5t-97 -56.5z" />
    <glyph glyph-name="nine" unicode="9" horiz-adv-x="874" 
d="M328 608q-90 22 -162.5 77t-114.5 136q-43 80 -49.5 170.5t25.5 177.5q27 92 100 162q57 55 132 82t155 21q48 5 102 -11q70 -19 125 -51q144 -85 201 -260.5t10 -388.5q-34 -151 -114 -293t-202 -257t-264 -171q-14 14 -26 35q-10 12 -80 110l-53 76l26 13
q79 28 175 130.5t157 196.5q17 31 23 60q-13 -5 -29 -9q-68 -18 -137 -6zM258 1071q-11 -54 9.5 -103.5t66.5 -78.5q42 -27 86 -21q25 -3 53 11q41 19 65.5 58t24.5 85q3 70 -49 119q-44 47 -108 47q-53 0 -94.5 -33t-53.5 -84z" />
    <glyph glyph-name="colon" unicode=":" horiz-adv-x="405" 
d="M180 612q-48 12 -71 60q-13 29 -3 61q24 44 76 51t84 -30q30 -20 33 -58q3 -35 -23 -61q-42 -38 -96 -23zM127 553q27 27 72 27q39 0 69.5 -27t34.5 -66q-3 -47 -45 -69q-18 -12 -45 -12q-23 0 -39 8q-46 13 -61 57q-14 47 14 82z" />
    <glyph glyph-name="colon" unicode="&#xe909;" horiz-adv-x="405" 
d="M180 612q-48 12 -71 60q-13 29 -3 61q24 44 76 51t84 -30q30 -20 33 -58q3 -35 -23 -61q-42 -38 -96 -23zM127 553q27 27 72 27q39 0 69.5 -27t34.5 -66q-3 -47 -45 -69q-18 -12 -45 -12q-23 0 -39 8q-46 13 -61 57q-14 47 14 82z" />
    <glyph glyph-name="semicolon" unicode=";" horiz-adv-x="411" 
d="M178 606q-56 19 -72 65t21 81q28 22 68 22q50 0 79 -33q28 -28 25 -59q0 -36 -29 -59q-44 -29 -92 -17zM203 559q42 0 74 -29t32 -71q-2 -31 -18 -56.5t-43 -37.5q-38 -15 -78 -9q-15 3 -4 27l8 14l-14 9q-32 9 -45 43q-14 35 2 63q30 47 86 47z" />
    <glyph glyph-name="semicolon" unicode="&#xe90a;" horiz-adv-x="411" 
d="M178 606q-56 19 -72 65t21 81q28 22 68 22q50 0 79 -33q28 -28 25 -59q0 -36 -29 -59q-44 -29 -92 -17zM203 559q42 0 74 -29t32 -71q-2 -31 -18 -56.5t-43 -37.5q-38 -15 -78 -9q-15 3 -4 27l8 14l-14 9q-32 9 -45 43q-14 35 2 63q30 47 86 47z" />
    <glyph glyph-name="less" unicode="&#x3c;" horiz-adv-x="495" 
d="M383 403l10 -12l-8 -14q-49 -88 -57 -88q-2 0 -78 102q-144 193 -147 203q0 2 3 8q9 14 136 193q44 62 71 94q47 -47 72 -86q-38 -61 -104 -144l-48 -61l13 -16q20 -26 53 -69.5t57 -74.5t27 -35z" />
    <glyph glyph-name="less" unicode="&#xe90b;" horiz-adv-x="495" 
d="M383 403l10 -12l-8 -14q-49 -88 -57 -88q-2 0 -78 102q-144 193 -147 203q0 2 3 8q9 14 136 193q44 62 71 94q47 -47 72 -86q-38 -61 -104 -144l-48 -61l13 -16q20 -26 53 -69.5t57 -74.5t27 -35z" />
    <glyph glyph-name="equal" unicode="=" horiz-adv-x="626" 
d="M317 610q-94 -8 -211 2q-7 50 -2 86v82l209 2h209l2 -8v-164h-207zM522 571l2 -8v-164h-207q-94 -8 -211 2q-7 50 -2 86v82l209 2h209z" />
    <glyph glyph-name="equal" unicode="&#xe90c;" horiz-adv-x="626" 
d="M317 610q-94 -8 -211 2q-7 50 -2 86v82l209 2h209l2 -8v-164h-207zM522 571l2 -8v-164h-207q-94 -8 -211 2q-7 50 -2 86v82l209 2h209z" />
    <glyph glyph-name="greater" unicode="&#x3e;" horiz-adv-x="495" 
d="M391 623q3 -8 -1 -16t-30 -44q-188 -254 -192 -254q-7 3 -8 6q-34 51 -49 82l-9 15l11 12q4 4 27 34t57.5 75.5t52.5 68.5l12 16l-47 62q-69 88 -104 143q27 42 71 86q32 -37 72 -94q136 -191 137 -192z" />
    <glyph glyph-name="greater" unicode="&#xe90d;" horiz-adv-x="495" 
d="M391 623q3 -8 -1 -16t-30 -44q-188 -254 -192 -254q-7 3 -8 6q-34 51 -49 82l-9 15l11 12q4 4 27 34t57.5 75.5t52.5 68.5l12 16l-47 62q-69 88 -104 143q27 42 71 86q32 -37 72 -94q136 -191 137 -192z" />
    <glyph glyph-name="question" unicode="?" horiz-adv-x="811" 
d="M715 1186q11 -41 8 -88q3 -43 -10 -92q-27 -127 -135 -211l-27 -23l2 -231q6 -126 -2 -238q-4 -4 -94 -4q-91 0 -111 4h-18l-2 563l26 17q66 34 107.5 94.5t50.5 134.5q3 33 -18 64q-21 30 -58 30q-46 0 -81.5 -43t-49.5 -94q-9 -30 -16 -41q-8 0 -162 98q-13 10 0 52
q28 104 116 178t193 74q101 0 181.5 -72t99.5 -172zM498 248q47 -21 69 -74q16 -29 13 -59q3 -26 -11 -54q-14 -32 -49 -53q-24 -12 -49 -12q-29 -4 -49 8q-30 9 -53 35q-51 57 -35 133q13 54 57 78q27 13 51 8q34 4 56 -10z" />
    <glyph glyph-name="question" unicode="&#xe90f;" horiz-adv-x="811" 
d="M715 1186q11 -41 8 -88q3 -43 -10 -92q-27 -127 -135 -211l-27 -23l2 -231q6 -126 -2 -238q-4 -4 -94 -4q-91 0 -111 4h-18l-2 563l26 17q66 34 107.5 94.5t50.5 134.5q3 33 -18 64q-21 30 -58 30q-46 0 -81.5 -43t-49.5 -94q-9 -30 -16 -41q-8 0 -162 98q-13 10 0 52
q28 104 116 178t193 74q101 0 181.5 -72t99.5 -172zM498 248q47 -21 69 -74q16 -29 13 -59q3 -26 -11 -54q-14 -32 -49 -53q-24 -12 -49 -12q-29 -4 -49 8q-30 9 -53 35q-51 57 -35 133q13 54 57 78q27 13 51 8q34 4 56 -10z" />
    <glyph glyph-name="at" unicode="@" horiz-adv-x="1472" 
d="M969 801q-6 -6 -8 -10l-21 -21q-1 -2 -4 -5t-4 -5q-18 -20 -47.5 -55t-36.5 -43q-13 -13 -25 -29l-6 -6q0 -2 -2 -4q-20 -25 -45 -54q-10 -10 -22 -24t-18 -20.5t-7 -6.5q-1 -3 -61 -73.5t-74 -86.5l-31 -36q-8 -8 -16.5 -17.5t-32 -38.5t-53.5 -63q-61 -70 -66 -76
l-22 -25q-2 -3 -9.5 -11t-19 -20.5t-19.5 -21.5q-9 -10 -38 -49q-6 -12 -31 11q-13 12 -35 36q-52 52 -76 80q-29 31 -33.5 37t-1.5 10q12 12 55.5 63.5t47.5 59.5q7 7 33.5 38t46.5 52q9 11 23.5 28t17.5 21q6 10 84 101q74 83 88 102t43 51q18 21 108 127q27 31 52 60.5
t36 42.5q8 9 18.5 21t16 18t6.5 8q2 2 7 8l12.5 15t13.5 16q59 59 111 129q39 39 51 59q3 3 18 23q106 128 113 135q10 10 31 37q7 7 14 15.5t11.5 14t6.5 6.5q3 3 8 -1t44 -40q135 -126 135 -133q0 -6 -6 -12q-13 -13 -67 -77t-58 -70q-5 0 -54 -60q-62 -73 -75 -86
q-1 -2 -5.5 -7.5t-13 -15.5t-14.5 -18l-33 -37q0 -6 -61 -67zM338 950q-48 45 -66 107q-19 64 -6 145q25 106 113 166q62 50 145 47q53 3 111 -24q51 -26 87 -72.5t48 -101.5q12 -62 0 -125q-15 -66 -60 -118.5t-110 -78.5q-68 -26 -147 -10q-69 16 -115 65zM434 1212
q-11 -23 -8 -53q-3 -31 10 -53q13 -36 49 -49q36 -14 68 2q31 19 46 51.5t9 67.5q-3 38 -30.5 64t-65.5 28q-26 -2 -47.5 -17.5t-30.5 -40.5zM1364 438q9 -62 0 -123q-24 -94 -95 -153.5t-165 -59.5q-83 0 -147.5 49t-92.5 130q-19 73 -4 145q21 99 111 166q69 50 147 47
q88 0 156.5 -57.5t89.5 -143.5zM1147 283q31 19 46 51t9 67q-3 38 -30.5 65t-65.5 28q-26 -3 -47.5 -19t-30.5 -39q-11 -23 -8 -53q-5 -25 8 -55q18 -36 49 -47q36 -13 70 2z" />
    <glyph glyph-name="at" unicode="&#xe913;" horiz-adv-x="1472" 
d="M969 801q-6 -6 -8 -10l-21 -21q-1 -2 -4 -5t-4 -5q-18 -20 -47.5 -55t-36.5 -43q-13 -13 -25 -29l-6 -6q0 -2 -2 -4q-20 -25 -45 -54q-10 -10 -22 -24t-18 -20.5t-7 -6.5q-1 -3 -61 -73.5t-74 -86.5l-31 -36q-8 -8 -16.5 -17.5t-32 -38.5t-53.5 -63q-61 -70 -66 -76
l-22 -25q-2 -3 -9.5 -11t-19 -20.5t-19.5 -21.5q-9 -10 -38 -49q-6 -12 -31 11q-13 12 -35 36q-52 52 -76 80q-29 31 -33.5 37t-1.5 10q12 12 55.5 63.5t47.5 59.5q7 7 33.5 38t46.5 52q9 11 23.5 28t17.5 21q6 10 84 101q74 83 88 102t43 51q18 21 108 127q27 31 52 60.5
t36 42.5q8 9 18.5 21t16 18t6.5 8q2 2 7 8l12.5 15t13.5 16q59 59 111 129q39 39 51 59q3 3 18 23q106 128 113 135q10 10 31 37q7 7 14 15.5t11.5 14t6.5 6.5q3 3 8 -1t44 -40q135 -126 135 -133q0 -6 -6 -12q-13 -13 -67 -77t-58 -70q-5 0 -54 -60q-62 -73 -75 -86
q-1 -2 -5.5 -7.5t-13 -15.5t-14.5 -18l-33 -37q0 -6 -61 -67zM338 950q-48 45 -66 107q-19 64 -6 145q25 106 113 166q62 50 145 47q53 3 111 -24q51 -26 87 -72.5t48 -101.5q12 -62 0 -125q-15 -66 -60 -118.5t-110 -78.5q-68 -26 -147 -10q-69 16 -115 65zM434 1212
q-11 -23 -8 -53q-3 -31 10 -53q13 -36 49 -49q36 -14 68 2q31 19 46 51.5t9 67.5q-3 38 -30.5 64t-65.5 28q-26 -2 -47.5 -17.5t-30.5 -40.5zM1364 438q9 -62 0 -123q-24 -94 -95 -153.5t-165 -59.5q-83 0 -147.5 49t-92.5 130q-19 73 -4 145q21 99 111 166q69 50 147 47
q88 0 156.5 -57.5t89.5 -143.5zM1147 283q31 19 46 51t9 67q-3 38 -30.5 65t-65.5 28q-26 -3 -47.5 -19t-30.5 -39q-11 -23 -8 -53q-5 -25 8 -55q18 -36 49 -47q36 -13 70 2z" />
    <glyph glyph-name="A" unicode="A" horiz-adv-x="1048" 
d="M293 0h-156q-69 -3 -155 4q0 13 24 107q52 237 111 471q8 40 8 43q5 30 8 39q4 16 13 51t14 57q36 127 51 215q3 10 5.5 21.5t4 19.5t2.5 10q3 14 22.5 94t20.5 85q10 59 49 204l4 13h373l13 -50q3 -11 10.5 -36.5t9.5 -32.5t7 -29t14 -57t20 -76q7 -29 19 -73.5
t33.5 -126t39.5 -148.5q22 -79 88 -342q8 -32 37 -135q54 -203 66 -244q22 -79 22 -80q0 -2 -151 -2h-152l-43 166q-8 32 -23 91.5t-25 99.5t-15 61l-23 84l-119 2q-121 0 -121 -2q-6 -33 -14 -72q-33 -157 -70 -321zM477 866l-31 -149q64 -6 129 -6h6.5t3.5 0.5t1.5 2
t-0.5 3.5q-5 15 -43 172q-28 112 -33 121q0 1 -4.5 -17t-13 -54t-15.5 -73z" />
    <glyph glyph-name="B" unicode="B" horiz-adv-x="1050" 
d="M487 8q-109 -11 -235 -8h-211v1434h307q269 0 321 -4t95 -27q92 -53 110 -154q19 -70 5 -135q-12 -77 -60 -140t-121 -97q-4 -1 -24 -11q0 -2 12 -6q59 -17 121 -49q169 -89 228 -231t-15 -281q-68 -115 -194.5 -188t-268.5 -91q-64 -10 -70 -12zM444 1208h-135l2 -24
q2 -14 2 -115v-88l45 2q36 0 74 6q85 9 150 68q43 32 43 88q0 25 -6 36.5t-23 20.5q-14 6 -152 6zM743 582q-163 135 -376 135l-52 2l2 -246q3 -247 9 -250q64 -3 108 4q50 2 108 17.5t114 42.5t95.5 72t45.5 98q3 77 -54 125z" />
    <glyph glyph-name="C" unicode="C" horiz-adv-x="888" 
d="M41 289q-12 42 -14 105t-4 339q0 347 2 359q15 113 89.5 199t184.5 118q79 31 166 25q86 6 176 -27q71 -19 126.5 -64.5t86.5 -109.5q36 -67 33 -139q2 -56 -2 -56q-15 -5 -75 -20.5t-113 -29t-54 -13.5q-4 28 -4 41q6 81 -51 141q-30 33 -74 39q-46 11 -91.5 -1
t-80.5 -44q-43 -40 -59 -98q-4 -20 -1.5 -345.5t7.5 -342.5q11 -39 43 -76q35 -35 84 -49t96 -2q46 6 76 36q53 59 47 140q0 23 6 41q1 1 108.5 -26.5t131.5 -35.5q6 -3 4 -57q0 -50 -15 -96q-21 -90 -98 -150t-176 -80q-59 -13 -115 -10q-86 0 -96 2q-121 13 -215 91.5
t-129 195.5z" />
    <glyph glyph-name="D" unicode="D" horiz-adv-x="1085" 
d="M211 2l-170 -2v1434h154q168 12 340 -27q147 -40 278 -135q73 -60 127 -125q107 -131 138 -297.5t-23 -327.5q-63 -195 -231.5 -332.5t-374.5 -173.5l-70 -14h-168zM328 1135v-859h12q18 0 43 7q161 24 283 137q103 85 135.5 213.5t-17.5 251.5q-56 103 -153 168t-213 75
q-35 7 -62 7h-28z" />
    <glyph glyph-name="E" unicode="E" horiz-adv-x="802" 
d="M829 2q0 -4 -397 0h-395l2 514q2 283 2 717v201h776l-8 -15q-2 -3 -10 -17.5t-21.5 -38t-25.5 -44.5l-50 -86h-145q-146 0 -164 -6q-36 -14 -59 -56q-4 -10 -5 -32.5t-1 -139.5v-155h139q66 6 141 -4q-17 -51 -43 -109l-45 -102l-96 -2h-96v-361l10 -16q18 -26 53 -47
q6 -2 158 -2l145 2l68 -101z" />
    <glyph glyph-name="F" unicode="F" horiz-adv-x="776" 
d="M330 627v-627h-291l2 514q2 285 2 717v203h383h383q0 -1 -16 -32.5t-39 -73.5t-37 -66l-15 -27l-147 -2q-111 0 -132.5 -1t-33.5 -7q-36 -19 -51 -54q-6 -10 -7 -32.5t-1 -139.5v-155h139q66 6 141 -4q-17 -51 -43 -109l-45 -102h-96z" />
    <glyph glyph-name="G" unicode="G" horiz-adv-x="876" 
d="M39 293q-11 44 -13.5 113t-2.5 329q0 347 2 357q20 128 110 218.5t217 112.5q74 15 150 9q116 -6 213 -72q72 -42 108 -123q36 -67 33 -139q2 -56 -2 -56q-27 -8 -134 -35t-108 -26q-2 7 -4 22.5t-2 16.5q6 76 -43 135q-16 19 -39 19q-33 10 -59 10q-62 0 -113 -38
t-71 -99q-3 -18 0 -342q-9 -167 10 -347q36 -102 145 -102q54 0 96.5 29.5t61.5 79.5q11 32 8 67v49h-72q-68 0 -84 8q-10 2 -18 15q-7 38 -4 92q2 70 5 85.5t20 25.5l10 8h180q96 9 192 -6q17 -7 21 -15q6 -15 8 -153v-33v-176l-8 -29q-35 -100 -110 -174.5t-175 -108.5
q-85 -31 -168 -16q-126 9 -224.5 88t-135.5 201z" />
    <glyph glyph-name="H" unicode="H" 
d="M41 1434h287v-764h346v764h287v-1434h-287v442h-346v-442h-287v1434z" />
    <glyph glyph-name="I" unicode="I" horiz-adv-x="368" 
d="M328 1434v-1434h-287v1434h287z" />
    <glyph glyph-name="J" unicode="J" horiz-adv-x="946" 
d="M365 2q-73 9 -137 33.5t-117.5 64.5t-86 102t-36.5 138q-9 81 0 162q5 0 112.5 -34t118.5 -40q12 -4 14.5 -7.5t2.5 -12.5q0 -39 14 -86q31 -58 94 -76q68 -17 129 -8q46 11 83 41.5t56 74.5q18 273 6 547l3 531h288l2 -185v-905l-8 -33q-34 -116 -124.5 -197
t-211.5 -104q-101 -12 -202 -6z" />
    <glyph glyph-name="K" unicode="K" horiz-adv-x="1085" 
d="M784 1026q-26 -34 -74.5 -94.5t-58.5 -73.5l-39 -49l27 -4q118 -35 205 -125q236 -242 250 -662v-18h-107q-115 0 -127 2q-21 2 -24 10q0 1 -1.5 9t-3 20.5t-2.5 24.5q-5 68 -26.5 147t-57.5 157t-93 139t-124 81q-41 11 -84 2q-49 -49 -88 -113l-28 -41v-438h-287v1434
h287v-531l61 78q25 29 193 244q148 185 149 186l17 23h172q106 0 172 -7q-75 -112 -152 -200q-105 -135 -156 -201z" />
    <glyph glyph-name="L" unicode="L" horiz-adv-x="739" 
d="M762 236v-236h-721v1434h287v-1203z" />
    <glyph glyph-name="M" unicode="M" horiz-adv-x="1021" 
d="M709 1419l6 15h266v-1434h-287v696q-2 0 -57 -131q-115 -266 -121 -266q-52 84 -98 203l-90 205v-707h-287v1434h262l10 -25q22 -54 117 -305q18 -50 40 -108.5t32.5 -87.5t11.5 -31q31 64 59 159q18 49 45.5 128t32.5 93q11 36 58 162z" />
    <glyph glyph-name="N" unicode="N" horiz-adv-x="1001" 
d="M326 713l2 -713h-287v1434h285v-260l41 -66q56 -91 172 -285q134 -219 135 -219v830h287v-1434h-287v168l-80 125q-14 22 -72.5 113t-81.5 129q-25 40 -60 93l-34 54z" />
    <glyph glyph-name="O" unicode="O" 
d="M37 291q-9 41 -11.5 110.5t-2.5 323.5q0 275 2.5 329.5t17.5 98.5q52 136 164.5 200t271.5 79q171 14 311.5 -72t174.5 -225q10 -42 12 -94t2 -306q0 -251 -2.5 -320.5t-11.5 -111.5q-33 -120 -117 -187t-217 -106q-67 -16 -131 -10q-74 -4 -123 6q-119 17 -212 94.5
t-128 190.5zM301 1069q-6 -20 -6.5 -63.5t0.5 -288.5q0 -257 2 -306.5t12 -78.5q15 -51 55.5 -86.5t92.5 -42.5q50 -6 100 6q35 10 74 41q50 47 65 108q6 20 8 67.5t3 274.5q1 249 -1 306.5t-14 89.5q-25 76 -96 114q-52 22 -107 19q-75 -3 -129 -60q-44 -41 -59 -100z" />
    <glyph glyph-name="P" unicode="P" horiz-adv-x="954" 
d="M342 0h-299v420q0 123 -1 383t-1 334l-2 297h268q157 9 314 -9q110 -22 191 -86.5t118 -167.5q56 -146 20 -303q-38 -147 -163.5 -244t-317.5 -128q-88 -15 -121 -15q-4 0 -5 -33.5t-1 -207.5v-240zM342 1217v-502l29 2q15 0 65 10q83 12 150 62t102 126q35 102 -14 199
q-31 61 -90 88l-29 15h-213z" />
    <glyph glyph-name="Q" unicode="Q" horiz-adv-x="983" 
d="M133 1296q62 67 166.5 101.5t208.5 34.5q166 0 292 -88t150 -248q6 -38 6 -361.5t-6 -372.5q-9 -118 -88 -206l-14 -15l26 -26q66 -63 93 -146l2 -14l-51 -45q-94 -82 -105 -82q-5 0 -8 14q-12 56 -46 101t-83 71l-21 13l-45 -11q-31 -5 -59 -12q-96 -12 -191 6
q-113 19 -199.5 94.5t-121.5 184.5q-11 47 -13.5 115.5t-2.5 322.5q0 260 2 314t12 96q28 94 96 159zM690 1042q-4 52 -31.5 96t-70.5 72q-44 21 -94 21q-70 0 -126 -45t-71 -113l-10 -31v-317q3 -338 4 -342q13 -100 96 -158q65 -30 137 -18q64 15 109 66t53 116
q3 21 5 323t-1 330z" />
    <glyph glyph-name="R" unicode="R" horiz-adv-x="989" 
d="M43 420q0 553 -2 717l-2 297h268q147 9 307 -7q112 -19 195.5 -85.5t122.5 -172.5q54 -133 23.5 -274.5t-134.5 -239.5l-33 -30l15 -15q46 -56 71 -112q104 -206 101 -432l-2 -60l-133 -2h-138v37q6 198 -84 373q-29 50 -77 86q-12 4 -17 3.5t-45 -7.5q-96 -13 -131 -15
q-4 0 -5 -33.5t-1 -205.5v-242h-299v420zM342 1217v-502l29 2q239 21 317 198q37 105 -14 199q-27 59 -90 88l-29 15h-213z" />
    <glyph glyph-name="S" unicode="S" horiz-adv-x="817" 
d="M528 1047q0 2 3 6.5t4 5.5q10 13 10 28q3 21 -10 41q-18 40 -62 60q-23 13 -49 10q-42 6 -72 -27q-33 -29 -30 -77q-3 -27 10 -50q3 -7 84 -120q39 -53 131 -174l55 -74q1 -1 82 -109q51 -78 90 -172q26 -103 -19.5 -199.5t-140.5 -142.5q-50 -31 -118 -47q-40 -6 -84 -6
q-140 0 -248 73.5t-150 205.5q-13 48 -8 88q-6 46 10 92q13 44 47 86q7 10 10.5 11.5t10.5 -1.5q5 -3 58.5 -35t105 -63t53.5 -33q3 -3 -8 -14q-37 -46 -10 -101q25 -42 67 -65q25 -14 49 -11q42 -3 72 27q34 27 31 74q3 28 -15 57q-107 167 -247 344q-124 136 -191 305
q-22 86 8 168t101 135q99 83 223 89q89 7 172.5 -22t148.5 -91q77 -74 101 -168q17 -85 2 -176q-7 -28 -13 -38.5t-12 -8.5q-1 1 -15 7t-40.5 18t-50.5 24q-99 45 -123 57q-13 3 -23 13z" />
    <glyph glyph-name="T" unicode="T" horiz-adv-x="1140" 
d="M160 1430q325 0 542 2l396 2v-242h-424l2 -381q4 -418 4 -596l4 -215h-291v373q0 113 -1 329t-1 267v221h-188l-191 2v238h148z" />
    <glyph glyph-name="U" unicode="U" horiz-adv-x="1083" 
d="M49 297q-12 46 -15 133.5t-3 487.5v516h288v-514q0 -502 7 -537q12 -72 67 -127q59 -59 142 -49q38 -3 73 8q62 20 104 72t48 116q4 28 4 527v500h289v-510q0 -397 -2.5 -482.5t-14.5 -128.5q-38 -116 -131.5 -194t-214.5 -95q-123 -28 -244 -16q-135 6 -243 86.5
t-154 206.5z" />
    <glyph glyph-name="V" unicode="V" horiz-adv-x="1048" 
d="M115 852q-53 225 -60 258q-22 97 -49 213q-24 98 -24 107q82 10 155 4h156l22 -109q59 -258 97 -455q17 -87 24 -108q2 -8 4.5 -19t4 -18t1.5 -10q3 -19 18.5 -92t30 -137t15.5 -62q2 3 35 133q44 171 49 193q6 21 20 77q5 20 11 41q2 6 10 38.5t22.5 91.5t26.5 106
t28 109.5t26.5 103.5t13.5 55l16 60l152 2l151 -2q0 -3 -22 -82q-33 -111 -66 -244q-29 -103 -37 -135q-23 -95 -28 -113q-10 -41 -29 -111t-31 -118q-40 -149 -55 -207q-1 -5 -8 -29.5t-9 -34.5q-1 -6 -9 -33.5t-11 -41.5q-11 -42 -21 -81t-14.5 -56.5t-7.5 -26.5
q-4 -21 -18 -70l-13 -49h-373l-4 12q-7 27 -27 110.5t-22 92.5q-1 6 -10.5 44.5t-20 82t-12.5 53.5q-7 20 -12 51q-15 90 -51 216q-5 22 -14 57t-13 51q-4 13 -8 39q-2 16 -10 43z" />
    <glyph glyph-name="W" unicode="W" horiz-adv-x="1024" 
d="M41 0v1434h285l2 -355v-354l90 205q40 107 98 205q4 0 19.5 -33.5t101.5 -233.5l28.5 -66.5t21 -48.5t7.5 -16v697h287v-1434h-266l-2 10q-7 15 -23 60q-31 83 -117 327q-20 78 -59 158q-37 -98 -81 -214.5t-69 -183.5t-26 -69q-15 -31 -21 -47l-12 -39l-133 -2h-131z
" />
    <glyph glyph-name="X" unicode="X" horiz-adv-x="1099" 
d="M709 776q0 -2 88.5 -166.5t184.5 -342t114 -208.5q19 -33 28 -57q-71 -2 -157 -2h-158l-12 25q-4 9 -68 131q-114 210 -117 215l-61 110q-4 0 -64 -110q-40 -74 -84.5 -156.5t-71.5 -132t-32 -59.5l-12 -23h-158q-156 0 -156 4q0 1 11 20.5t25.5 43t21.5 34.5
q13 24 186.5 348.5t173.5 327.5t-146 274.5t-161 297.5q-45 80 -45 82t160 2l161 -2l33 -68q4 -8 94 -180q61 -109 66 -109q6 8 63 114.5t72 137.5q45 89 47 92l8 15h158q74 6 158 -4q0 -4 -27 -52q-19 -32 -99 -181t-152 -284t-72 -137z" />
    <glyph glyph-name="Y" unicode="Y" horiz-adv-x="1136" 
d="M387 694q-67 91 -149.5 203.5t-136 185.5t-60.5 82q-28 35 -70 95q0 1 49 39.5t105 81t70 51.5q4 3 13.5 -7t41.5 -55q294 -413 315 -434q121 136 209 274q158 222 164 222q26 -13 47 -31q13 -9 53.5 -40.5t59.5 -45.5q33 -21 67 -55q-10 -20 -22 -35q-33 -41 -230 -307
q-119 -165 -180 -246l-22 -31v-641h-287v645z" />
    <glyph glyph-name="Z" unicode="Z" horiz-adv-x="925" 
d="M287 1190l-289 4l-2 236h61q242 0 459 2l397 2l9 -9q6 -8 7.5 -17t2.5 -60q6 -72 -21 -140q-12 -27 -184 -319l-383 -649q0 -2 166 -2h213q166 0 166 -2v-99q-2 -70 -3 -84t-7 -24q-9 -14 -23 -23q-9 -4 -62.5 -5t-340.5 -1t-341 1t-63 5q-20 11 -26.5 35.5t-6.5 91.5
q0 72 9 95t84 153q134 228 180 309q25 48 53 90q5 7 49 86q29 49 66.5 112.5t62.5 106t27 45.5q19 29 31 58h-8q-8 0 -22.5 0.5t-34 0.5h-45.5t-53.5 0.5t-61 0.5h-66.5z" />
    <glyph glyph-name="bracketleft" unicode="[" horiz-adv-x="495" 
d="M383 1300q-11 -6 -25 -16l-14 -12l4 -377q1 -90 2.5 -194.5t2.5 -169.5t1 -78q0 -52 4 -170q0 -27 0.5 -55t1.5 -45v-17q10 -14 19 -19l14 -10v-135h-106q-113 0 -121 2q-32 6 -53 37q-1 2 -4 207q0 51 -5 594q0 131 -1 304.5t-1 174.5v80l9 8q3 3 22 18q11 6 29.5 8
t107.5 3l123 2v-133z" />
    <glyph glyph-name="bracketleft" unicode="&#xe91d;" horiz-adv-x="495" 
d="M383 1300q-11 -6 -25 -16l-14 -12l4 -377q1 -90 2.5 -194.5t2.5 -169.5t1 -78q0 -52 4 -170q0 -27 0.5 -55t1.5 -45v-17q10 -14 19 -19l14 -10v-135h-106q-113 0 -121 2q-32 6 -53 37q-1 2 -4 207q0 51 -5 594q0 131 -1 304.5t-1 174.5v80l9 8q3 3 22 18q11 6 29.5 8
t107.5 3l123 2v-133z" />
    <glyph glyph-name="backslash" unicode="\" horiz-adv-x="886" 
d="M674 436q61 -158 110 -342q-6 -3 -111 -48.5t-108 -45.5q-2 0 -6 4q-6 6 -2 6q-2 12 -10 31q-47 132 -78 227q-43 127 -66 189q-7 22 -30 89t-29 87q-21 65 -27 74q-1 2 -4 9.5t-4 12.5q-3 14 -22.5 69.5t-24.5 65.5q-13 31 -137 391q-26 79 -23 84q14 7 207 80l31 13
l47 -144q38 -123 64 -192q18 -46 22 -68q4 -10 19 -55q35 -90 110 -326q6 -16 18 -50.5t27.5 -82.5t26.5 -78z" />
    <glyph glyph-name="backslash" unicode="&#xe908;" horiz-adv-x="886" 
d="M674 436q61 -158 110 -342q-6 -3 -111 -48.5t-108 -45.5q-2 0 -6 4q-6 6 -2 6q-2 12 -10 31q-47 132 -78 227q-43 127 -66 189q-7 22 -30 89t-29 87q-21 65 -27 74q-1 2 -4 9.5t-4 12.5q-3 14 -22.5 69.5t-24.5 65.5q-13 31 -137 391q-26 79 -23 84q14 7 207 80l31 13
l47 -144q38 -123 64 -192q18 -46 22 -68q4 -10 19 -55q35 -90 110 -326q6 -16 18 -50.5t27.5 -82.5t26.5 -78z" />
    <glyph glyph-name="bracketright" unicode="]" horiz-adv-x="512" 
d="M399 1413l11 -10v-172q0 -128 -4 -600q-1 -99 -2 -219.5t-2 -193t-1 -89.5q2 -28 -2 -84q-3 -13 -20 -25q-19 -16 -49 -16q-21 -3 -117.5 -3.5t-103.5 1.5q-5 2 -6 12t-1 54q0 28 7 63q1 1 3 2t3 2l12 8q1 1 3 2t3 2l19 15l4 133q0 41 1 108t1 76q4 58 4 281q0 210 4 370
l2 144l-14 12q-4 4 -9 4l-14 13q-4 0 -8 4q-15 10 -19 14q-2 20 -2 61l2 58l127 -2q105 0 125.5 -3t42.5 -22z" />
    <glyph glyph-name="bracketright" unicode="&#xe91e;" horiz-adv-x="512" 
d="M399 1413l11 -10v-172q0 -128 -4 -600q-1 -99 -2 -219.5t-2 -193t-1 -89.5q2 -28 -2 -84q-3 -13 -20 -25q-19 -16 -49 -16q-21 -3 -117.5 -3.5t-103.5 1.5q-5 2 -6 12t-1 54q0 28 7 63q1 1 3 2t3 2l12 8q1 1 3 2t3 2l19 15l4 133q0 41 1 108t1 76q4 58 4 281q0 210 4 370
l2 144l-14 12q-4 4 -9 4l-14 13q-4 0 -8 4q-15 10 -19 14q-2 20 -2 61l2 58l127 -2q105 0 125.5 -3t42.5 -22z" />
    <glyph glyph-name="asciicircum" unicode="^" horiz-adv-x="415" 
d="M258 1669q22 -37 53 -104q0 -8 -18 -13q-14 -2 -43 -12q-17 -4 -21.5 -4t-5.5 4q-2 2 -14 41q-3 16 -12 35q-10 -20 -13 -37q-2 -15 -14 -39q-33 11 -70 33q0 6 45 98q45 96 54 96q7 0 59 -98z" />
    <glyph glyph-name="asciicircum" unicode="&#xe905;" horiz-adv-x="415" 
d="M258 1669q22 -37 53 -104q0 -8 -18 -13q-14 -2 -43 -12q-17 -4 -21.5 -4t-5.5 4q-2 2 -14 41q-3 16 -12 35q-10 -20 -13 -37q-2 -15 -14 -39q-33 11 -70 33q0 6 45 98q45 96 54 96q7 0 59 -98z" />
    <glyph glyph-name="underscore" unicode="_" horiz-adv-x="1136" 
d="M860 197l174 -2v-193l-465 -2q-463 0 -465 2q-5 85 2 203q2 2 291 -2q437 -5 463 -6z" />
    <glyph glyph-name="underscore" unicode="&#xe920;" horiz-adv-x="1136" 
d="M860 197l174 -2v-193l-465 -2q-463 0 -465 2q-5 85 2 203q2 2 291 -2q437 -5 463 -6z" />
    <glyph glyph-name="grave" unicode="`" horiz-adv-x="403" 
d="M301 1499q1 -6 -5.5 -8t-49.5 -8l-92 -13l-27 140q-26 142 -25 143q3 6 48 6q33 0 47 -2q3 -1 52.5 -125.5t51.5 -132.5z" />
    <glyph glyph-name="grave" unicode="&#xe930;" horiz-adv-x="403" 
d="M301 1499q1 -6 -5.5 -8t-49.5 -8l-92 -13l-27 140q-26 142 -25 143q3 6 48 6q33 0 47 -2q3 -1 52.5 -125.5t51.5 -132.5z" />
    <glyph glyph-name="a" unicode="a" horiz-adv-x="1050" 
d="M696 1419q0 -2 3 -11.5t5.5 -20t4.5 -19.5q1 -5 19.5 -74.5t33.5 -119.5q9 -36 20.5 -81.5t18 -71t8.5 -30.5t4.5 -15.5t6 -24.5t5.5 -23q4 -14 17.5 -66t27.5 -102q18 -101 41 -160q2 -8 19 -74q5 -19 10.5 -40t17.5 -65t25 -93q43 -166 66 -244q22 -79 22 -82h-303
l-25 98q-5 20 -12 47t-10 39t-4 13q-6 3 -248 6l-131 2l-19 -86q-4 -19 -9.5 -44t-8.5 -40t-4 -19l-4 -18h-156q-73 -6 -155 4q0 8 14 62q3 19 12.5 60t11.5 50q3 15 9.5 41.5t7.5 32.5q3 13 10.5 44t21 89t27.5 115q6 32 15 69t16.5 68t9.5 39q8 34 26.5 111.5t43.5 185.5
q30 129 43 178q5 19 10 45l6 25q9 54 49 202l4 13h373zM520 410l142 2l-152 598q-1 0 -16 -66.5t-31 -141t-19 -93.5q-1 -2 -6 -30t-10 -48q-13 -56 -29 -135q-4 -17 -8.5 -37t-6.5 -30.5t-3 -12.5q-1 -3 4 -4q10 -2 135 -2z" />
    <glyph glyph-name="b" unicode="b" horiz-adv-x="948" 
d="M41 1434h307q267 0 319.5 -3.5t92.5 -23.5q58 -33 91.5 -93t33.5 -128q3 -106 -56 -197q-43 -67 -114 -102l-27 -15l25 -12q172 -98 221 -334q15 -92 2 -192q-16 -99 -70 -170q-122 -140 -307 -156q-36 -4 -305 -6l-213 -2v1434zM596 1202q-10 6 -30 7t-120 1h-135v-16
q0 -3 0.5 -21t1 -44.5t0.5 -49.5v-96h33q22 0 68 4q57 8 114 33q59 32 88 86q15 31 10 57.5t-30 38.5zM698 506q-13 57 -49.5 102.5t-89.5 71.5q-90 34 -194 37l-50 2l4 -246q0 -247 7 -250q54 -6 108 0q70 5 152 29q42 15 72.5 50.5t41.5 80.5q13 65 -2 123z" />
    <glyph glyph-name="c" unicode="c" horiz-adv-x="788" 
d="M471 1202q-116 0 -180 -121q-9 -22 -10.5 -73t0.5 -303q-6 -164 10 -345q13 -44 43 -71q33 -36 81.5 -49.5t96.5 -1.5q42 7 68 30l14 11l45 -33q25 -18 109 -78l61 -43l-18 -19q-85 -73 -203 -98q-96 -14 -213 -4q-124 24 -213 96.5t-123 188.5q-11 44 -13.5 113
t-2.5 333q0 296 3.5 351t26.5 108q53 113 161 176.5t235 63.5q81 6 163 -19q75 -22 138 -59q14 -9 25.5 -18.5t16.5 -16t3 -8.5q-11 -10 -109.5 -80t-101.5 -70q-5 0 -9 4q-21 21 -53 27q-32 8 -51 8z" />
    <glyph glyph-name="d" unicode="d" horiz-adv-x="1085" 
d="M389 1430q177 -10 331.5 -98t254.5 -234q100 -148 111.5 -326t-68.5 -338q-84 -168 -241 -279t-347 -141q-118 -20 -248 -14h-141v1434h154q148 0 194 -4zM709 463h-2q108 117 108 278q0 74 -29 136q-58 125 -173.5 190t-260.5 68h-24v-861l22 2q7 0 27.5 3.5t23.5 3.5
q101 28 173 68.5t135 111.5z" />
    <glyph glyph-name="e" unicode="e" horiz-adv-x="800" 
d="M336 1174q-6 -12 -7 -34t-1 -141v-155l65 2q78 0 92 -2l27 -2v-213h-184v-363l10 -16q19 -32 53 -47h303l66 -97q58 -87 65 -102h-5q-4 -1 -17 -1.5t-32.5 -1t-51 -0.5t-71.5 -0.5t-95 -0.5h-121h-395l2 518q2 285 2 717v199h387q379 -2 385 -7q-1 -1 -8 -14t-21.5 -38.5
t-27.5 -47.5l-54 -94h-145q-104 2 -127.5 1t-36.5 -7q-39 -16 -57 -53z" />
    <glyph glyph-name="f" unicode="f" horiz-adv-x="774" 
d="M43 1434h383l383 -2l-107 -197l-149 -2q-109 0 -131 -1t-35 -7q-35 -21 -49 -54q-6 -11 -7 -32t-1 -140v-155l65 2q80 0 92 -2l27 -2v-213h-184v-629h-291l2 518q2 285 2 717v199z" />
    <glyph glyph-name="g" unicode="g" horiz-adv-x="878" 
d="M416 1432q123 12 237 -37q71 -28 122 -84t71 -129q13 -43 10 -84v-56l-131 -32q-111 -29 -113 -27q-4 6 -4 23q0 104 -49 153q-14 17 -35 17q-58 9 -110 -2q-78 -16 -121 -87q-10 -25 -12 -74t0 -308q-9 -167 10 -347q5 -16 16 -39q30 -34 72 -53q54 -14 94 -6
q77 16 115 90l12 27l2 57v58l-47 2v221h135q108 0 129 -3t33 -18q4 -7 5 -31.5t3 -154.5q9 -99 -6 -201q-40 -115 -132 -195.5t-212 -105.5q-36 -8 -88 -4q-135 13 -242 89.5t-139 201.5q-12 44 -15 112t-3 332q0 347 4 365q20 139 132.5 230.5t256.5 99.5z" />
    <glyph glyph-name="h" unicode="h" horiz-adv-x="1001" 
d="M41 1434h287v-764h346v764h287v-1434h-287v444h-346v-444h-287v1434z" />
    <glyph glyph-name="i" unicode="i" horiz-adv-x="368" 
d="M328 1434v-1434h-287v1434h287z" />
    <glyph glyph-name="j" unicode="j" horiz-adv-x="555" 
d="M520 1434l2 -375q2 -205 2 -545l-2 -170l-10 -33q-43 -150 -161.5 -230.5t-276.5 -80.5h-84l-10 2v234h51q41 -3 75 8q47 15 79.5 51.5t41.5 85.5q4 32 4 539v514h289z" />
    <glyph glyph-name="k" unicode="k" horiz-adv-x="1087" 
d="M836 1092q-10 -12 -142 -179l-82 -106q20 -4 27 -4q109 -33 196.5 -115t140.5 -190t82 -222.5t34 -228.5l2 -47h-101q-33 0 -79 1t-48 1q-21 2 -25 3t-5 5q0 1 -1.5 9.5t-3 21.5t-2.5 25q-7 136 -63.5 261t-153.5 220q-49 34 -92 47q-37 6 -74 0q-47 -44 -84 -107
l-34 -49v-438h-287v1434h287v-535l73 96q50 60 203 256q119 154 137 172l11 11h170q80 3 170 -7q-56 -85 -113 -153q-21 -27 -57 -72q-7 -10 -39 -50t-47 -60z" />
    <glyph glyph-name="l" unicode="l" horiz-adv-x="739" 
d="M41 2v1432h287v-1201h434v-231h-721z" />
    <glyph glyph-name="m" unicode="m" horiz-adv-x="1001" 
d="M649 1350l23 84h286v-1434h-284v672l-23 -84q-1 -4 -69 -279q-26 -96 -66 -250q-13 -55 -18 -55q-7 0 -19.5 43t-46.5 179q-5 20 -7.5 31t-7.5 30t-9 35l-80 319v-641h-287v1434l287 -2l6 -25q2 -5 12 -47.5t31.5 -131.5t36.5 -153l73 -307q7 12 11 35q7 23 100 362
q8 31 27.5 100t23.5 85z" />
    <glyph glyph-name="n" unicode="n" 
d="M41 1434h289v-330l32 -31q7 -7 26.5 -24.5t48.5 -43.5t48 -44q17 -15 71 -63.5t69 -63.5l49 -46l2 324v322h287v-1434h-287v506l-29 22q-19 18 -252 220l-65 59l-2 -404v-403h-287v1434z" />
    <glyph glyph-name="o" unicode="o" horiz-adv-x="1001" 
d="M545 1434q144 -3 259.5 -78t158.5 -207q12 -42 14 -98.5t2 -319.5q0 -251 -2.5 -318t-13.5 -108q-16 -62 -48 -111.5t-77.5 -83.5t-95 -57.5t-113.5 -42.5q-55 -13 -127 -10q-63 -3 -125 6q-112 15 -200.5 85t-131.5 175q-15 46 -18 100.5t-4 340.5q0 286 2.5 344
t15.5 100q46 126 154 197q160 92 350 86zM707 700q1 250 -1 308t-14 90q-20 62 -78 104q-67 39 -145 27q-72 -12 -120.5 -66.5t-53.5 -128.5q-3 -27 0 -344l2 -319l10 -31q18 -66 76 -111q70 -42 152 -26q45 11 90 41q52 46 71 116q6 20 8 67t3 273z" />
    <glyph glyph-name="p" unicode="p" horiz-adv-x="954" 
d="M41 0v420q0 124 -1 384.5t-1 332.5l-2 297h551l43 -11q92 -15 166 -71.5t114 -141.5q13 -23 19 -47q53 -132 22.5 -270.5t-133.5 -235.5q-193 -163 -436 -172l-43 -4v-481h-299zM340 1219v-502h16q2 0 56 6q97 7 173 66.5t107 150.5q12 62 0 125q-18 77 -88 127
q-32 20 -52 23.5t-108 3.5h-104z" />
    <glyph glyph-name="q" unicode="q" horiz-adv-x="991" 
d="M950 362q-9 -109 -80 -196l-12 -16l27 -33q37 -44 92 -117q4 -5 1 -10.5t-17 -18.5q-28 -30 -81.5 -79.5t-56.5 -49.5l-69 80q-63 81 -76 94l-10 13l-45 -11q-35 -11 -74 -16q-85 -6 -168 6q-136 15 -241 116.5t-111 235.5q-6 44 -6 367t6 358q14 101 80 181t159.5 122.5
t194.5 43.5q151 23 283.5 -53.5t189.5 -219.5q15 -42 17.5 -98t2.5 -326q0 -317 -6 -373zM690 729q0 240 -1 284t-5 64q-13 69 -66.5 111.5t-123.5 42.5q-20 0 -60 -8q-51 -17 -87.5 -56.5t-49.5 -91.5l-8 -31v-319q0 -316 4 -340q3 -61 40 -108t95 -68q55 -11 119 2
q120 60 139 176q4 24 4 342z" />
    <glyph glyph-name="r" unicode="r" horiz-adv-x="966" 
d="M719 582q-22 -12 -22.5 -20.5t14.5 -49.5q66 -159 200 -266q11 -6 19 -17q-21 -35 -91.5 -132t-78.5 -97q-17 8 -35 23q-213 172 -301 442q-5 15 -7 19t-5 3q-3 0 -39 -4l-31 -2v-481h-299v420q0 124 -1 383.5t-1 333.5l-2 297h553l43 -9q116 -22 196 -102q44 -38 70 -86
l14 -27q24 -58 41 -133q13 -94 2 -174q-20 -103 -83 -187.5t-156 -133.5zM625 823q80 71 77 176q1 58 -24.5 109.5t-71.5 83.5q-32 20 -52 23.5t-108 3.5h-104v-504l31 4q42 4 59 8q112 18 193 96z" />
    <glyph glyph-name="s" unicode="s" horiz-adv-x="817" 
d="M526 1047l9 16q10 17 10 33q-5 31 -24.5 56.5t-49.5 37.5q-21 12 -47 12q-34 1 -62.5 -19.5t-37.5 -52.5q-10 -47 4 -81q17 -29 59 -86q92 -124 96 -129l135 -181q3 0 33 -43q86 -111 131 -250q13 -111 -51 -200q-89 -124 -244 -156q-83 -9 -159 2q-77 11 -156 60
q-159 120 -170 286q-3 64 16 115q10 32 30.5 62t29.5 28q6 -3 111.5 -66t109.5 -67q1 0 1 -2t-2 -5.5t-5 -6.5q-38 -45 -10 -103q25 -41 69 -65q21 -12 49 -9q24 -6 48 11q28 15 42 42t11 58q-1 26 -23 62.5t-88 128.5q-26 35 -78 104.5t-55 73.5q-84 106 -90 114
q-78 105 -119 215q-22 76 2 153.5t84 131.5q77 74 176 98q47 12 95 9q81 3 149 -23q73 -23 131 -74t92 -120q36 -67 33 -140q4 -48 -4 -82q-4 -26 -11 -46.5t-12 -20.5q-6 0 -98 45q-118 55 -127 59z" />
    <glyph glyph-name="t" unicode="t" horiz-adv-x="1099" 
d="M29 1427q188 3 620 5l445 2v-242h-422l2 -379q0 -358 4 -596l2 -215h-291v969l-2 221h-188l-191 2v233h21z" />
    <glyph glyph-name="u" unicode="u" horiz-adv-x="1083" 
d="M762 1430l119 2q108 0 143 -5l29 -2v-505q0 -382 -3 -473.5t-14 -137.5q-23 -78 -77.5 -141t-129.5 -98q-179 -84 -378 -66q-16 0 -66 10q-117 19 -208.5 95t-129.5 188q-12 46 -14 125t-2 493v515l16 2q18 2 138.5 2.5t129.5 -2.5q16 -267 4 -514q0 -499 9 -543
q10 -60 51 -104.5t100 -61.5q55 -9 109 0q60 13 104.5 56.5t61.5 103.5l8 24v1037z" />
    <glyph glyph-name="v" unicode="v" horiz-adv-x="1050" 
d="M23 1245q-41 185 -41 187t155 2h158v-11q5 -14 37 -172q79 -371 82 -389l20 -90q1 -8 16.5 -77t24.5 -117q33 -152 35 -152q0 1 6.5 25t19 71t23.5 92q49 187 53 201q0 3 10 42t31 124t37 149l76 302l305 2l-2 -11q-2 -5 -25 -86q-5 -17 -11.5 -40t-10.5 -38t-6 -20
q-1 -2 -7.5 -28.5t-11.5 -41.5q-3 -14 -14 -59t-16 -66q-5 -18 -20 -70.5t-19 -70.5q-4 -19 -13.5 -54t-11.5 -42q-1 -10 -6 -30.5t-6 -26.5q-2 -5 -13.5 -48t-34 -127.5t-40.5 -150.5q-18 -71 -40.5 -157t-36.5 -139.5t-17 -66.5l-17 -59q0 -2 -186 -2h-189l-4 12
q-41 169 -55 234q-31 106 -47 198q-1 7 -39 162q-10 46 -33 137q-14 58 -14 60q-1 6 -3.5 17.5t-9.5 41t-14 64.5q-6 27 -18.5 75.5t-26.5 110.5z" />
    <glyph glyph-name="w" unicode="w" horiz-adv-x="1021" 
d="M41 0v1434h285l2 -353v-354l51 113q64 150 90 207q40 88 45 90h2q6 0 58 -119q34 -80 59 -137q59 -142 61 -142v695h287v-1434h-133l-133 2l-13 31q-3 8 -41 117t-77 219q-13 37 -28.5 82t-24 69t-9.5 27l-6 16l-176 -469q-13 -26 -21 -53l-16 -39l-131 -2h-131z" />
    <glyph glyph-name="x" unicode="x" horiz-adv-x="1097" 
d="M152 328q137 259 176 329l63 119q0 1 -86 166q-29 52 -82.5 153t-60.5 113q-14 25 -31.5 57.5t-29 54t-15.5 28.5q-37 61 -45 77l-4 9h323l31 -64q104 -204 152 -287l6 -14l69 129q21 41 52.5 99t34.5 65q16 39 26 53l10 19h160q158 0 158 -4q-1 0 -31 -54
q-23 -44 -86 -157q-18 -33 -71.5 -134.5t-73.5 -138.5q-88 -162 -88 -168q0 -3 49 -96q36 -68 180 -334q76 -144 158 -293q11 -15 28 -53h-8q-9 0 -24 -0.5t-34 -1t-44 -0.5h-49h-156l-23 43q-6 14 -27.5 55t-27.5 54q-35 61 -106 196q-68 129 -74 135q-34 -53 -47 -80
q-169 -314 -193 -356l-24 -45h-158q-154 -1 -156 4q1 4 28.5 51.5t31.5 53.5q5 5 119 217z" />
    <glyph glyph-name="y" unicode="y" horiz-adv-x="1136" 
d="M152 1016q-116 160 -138 182q-23 29 -43 62q0 4 112.5 90t115.5 84q1 0 61 -82q26 -34 100 -140q202 -282 209 -278q1 1 32.5 43.5t80.5 109.5t86 119q73 99 88 121q34 48 49 66q5 6 11 15t10 14.5t6 7.5q4 5 32 -16l74 -56q125 -94 125 -98q-2 -4 -24 -37
q-57 -73 -207 -279l-223 -305l4 -639h-287v643l-113 154q-33 44 -90.5 123.5t-70.5 95.5z" />
    <glyph glyph-name="z" unicode="z" horiz-adv-x="925" 
d="M-4 1315v115l133 2q24 0 191 1t270 1h184.5t96.5 -1t41.5 -2t9.5 -4q7 -5 8.5 -15.5t1.5 -57.5q6 -54 -8 -103q-4 -17 -17 -51q-16 -32 -256 -438l-307 -522q123 -2 270 -2q273 0 275 -2v-97l-2 -96l-8 -16q-1 -2 -3 -5q-9 -17 -52 -19.5t-292 -2.5h-79q-281 0 -336 1
t-64 5q-20 10 -30 39q-12 90 0 176q55 120 129 234l106 184q21 37 98 168t131 225q32 52 50 83t27 47.5t11 22t0 7.5q-128 2 -284 2q-287 0 -289 2q-4 1 -5 19.5t-1 99.5z" />
    <glyph glyph-name="braceleft" unicode="{" horiz-adv-x="735" 
d="M627 80q15 -60 6 -66q-18 -7 -35 -10q-75 -10 -143 2q-76 14 -120.5 57t-84.5 121q-20 60 -25 113q-9 141 41 272q0 2 2 4v7q-16 20 -49 41q-71 42 -113 79q33 26 125 84q35 21 39 25l-12 45q-51 157 -34.5 291.5t95.5 210.5q74 80 203 80q54 0 109 -19q5 -8 -39 -139
q-6 -14 -12 -17t-25 1q-35 6 -67.5 -11t-45.5 -49q-42 -116 -8 -229q15 -61 39 -123q6 -12 17 -34.5t19.5 -40.5t8.5 -19q0 -5 -67 -39l-70 -35l18 -12q63 -43 105 -82q-8 -27 -17 -43q-49 -85 -49 -189q-2 -30 8 -73q6 -35 29 -62t57 -39q32 -9 60 0q9 1 11 -4t13 -49
q1 -5 5.5 -23t5.5 -26z" />
    <glyph glyph-name="braceleft" unicode="&#xe91a;" horiz-adv-x="735" 
d="M627 80q15 -60 6 -66q-18 -7 -35 -10q-75 -10 -143 2q-76 14 -120.5 57t-84.5 121q-20 60 -25 113q-9 141 41 272q0 2 2 4v7q-16 20 -49 41q-71 42 -113 79q33 26 125 84q35 21 39 25l-12 45q-51 157 -34.5 291.5t95.5 210.5q74 80 203 80q54 0 109 -19q5 -8 -39 -139
q-6 -14 -12 -17t-25 1q-35 6 -67.5 -11t-45.5 -49q-42 -116 -8 -229q15 -61 39 -123q6 -12 17 -34.5t19.5 -40.5t8.5 -19q0 -5 -67 -39l-70 -35l18 -12q63 -43 105 -82q-8 -27 -17 -43q-49 -85 -49 -189q-2 -30 8 -73q6 -35 29 -62t57 -39q32 -9 60 0q9 1 11 -4t13 -49
q1 -5 5.5 -23t5.5 -26z" />
    <glyph glyph-name="bar" unicode="|" horiz-adv-x="454" 
d="M350 731q2 -678 -2 -725q-2 -27 -13 -41q0 -1 -1 -2q-22 -29 -58 -35q-20 -4 -96 -4l-76 -2v1536q-2 25 -2 62v16h197l16 -10q34 -14 31 -51q0 -5 0.5 -102.5t1.5 -284.5t2 -357z" />
    <glyph glyph-name="bar" unicode="&#xe91b;" horiz-adv-x="454" 
d="M350 731q2 -678 -2 -725q-2 -27 -13 -41q0 -1 -1 -2q-22 -29 -58 -35q-20 -4 -96 -4l-76 -2v1536q-2 25 -2 62v16h197l16 -10q34 -14 31 -51q0 -5 0.5 -102.5t1.5 -284.5t2 -357z" />
    <glyph glyph-name="braceright" unicode="}" horiz-adv-x="765" 
d="M664 702q-41 -35 -86 -61q-17 -9 -86 -57q3 -6 6 -15q10 -21 24 -77q29 -114 10 -238q-18 -118 -105.5 -186t-207.5 -68q-37 0 -72 6l-28 4q-2 1 -6.5 3t-6.5 3q-5 5 -1 26q4 20 22 93l12 51l17 -4h8l18 -2h8q58 1 93.5 57t29.5 136q-3 48 -18 98q-4 8 -4 12
q-13 35 -37 78q-8 15 -10 25q0 6 15 17.5t65 45.5l51 35l-17 6q-36 18 -102 49q-25 11 -25 17q0 2 3.5 9.5t11 22.5t12.5 27q59 109 74 229q9 75 -12 133.5t-64 77.5q-45 14 -76 7q-18 0 -20 4q-22 45 -33 86q-21 60 -16 67q50 23 98 17q40 6 86 -4q90 -17 155 -83t82 -157
q16 -62 13 -119q0 -99 -53 -260q16 -12 24 -16q50 -32 131 -80q17 -13 17 -15z" />
    <glyph glyph-name="braceright" unicode="&#xe91c;" horiz-adv-x="765" 
d="M664 702q-41 -35 -86 -61q-17 -9 -86 -57q3 -6 6 -15q10 -21 24 -77q29 -114 10 -238q-18 -118 -105.5 -186t-207.5 -68q-37 0 -72 6l-28 4q-2 1 -6.5 3t-6.5 3q-5 5 -1 26q4 20 22 93l12 51l17 -4h8l18 -2h8q58 1 93.5 57t29.5 136q-3 48 -18 98q-4 8 -4 12
q-13 35 -37 78q-8 15 -10 25q0 6 15 17.5t65 45.5l51 35l-17 6q-36 18 -102 49q-25 11 -25 17q0 2 3.5 9.5t11 22.5t12.5 27q59 109 74 229q9 75 -12 133.5t-64 77.5q-45 14 -76 7q-18 0 -20 4q-22 45 -33 86q-21 60 -16 67q50 23 98 17q40 6 86 -4q90 -17 155 -83t82 -157
q16 -62 13 -119q0 -99 -53 -260q16 -12 24 -16q50 -32 131 -80q17 -13 17 -15z" />
    <glyph glyph-name="uni00A0" unicode="&#xa0;" horiz-adv-x="567" 
 />
    <glyph glyph-name="cent" unicode="&#xa2;" horiz-adv-x="933" 
d="M440 782q-40 -1 -73 -24t-48 -58q-4 -11 0 -182q2 -168 9 -184q19 -32 53 -47q57 -23 113 -17q46 -3 88 25q31 22 34 65q4 25 11 25q2 0 15.5 -2t40.5 -6.5t48 -7.5l96 -17l-2 -28q0 -54 -46 -98.5t-101 -55.5q-66 -20 -121 -23q-6 0 -18 -4q-3 0 -4.5 -1t-3 -7.5
t-1.5 -17.5v-35q3 -29 -4 -64q-56 -9 -112 0q-6 2 -6 66v61l-31 5q-79 10 -148.5 44t-103.5 93q-14 26 -18 60.5t-5 176.5q-1 147 2 183t19 63q80 118 276 137l15 2l2 78q0 53 4 80q18 4 53 4q53 2 55 -2q4 -55 2 -82q-2 -32 5 -78q55 -5 120 -22q89 -16 148 -84
q25 -36 28 -80v-25l-45 -6q-153 -26 -159 -26q-4 6 -4 20q-3 38 -27 62q-68 53 -156 34z" />
    <glyph glyph-name="cent" unicode="&#xe925;" horiz-adv-x="933" 
d="M440 782q-40 -1 -73 -24t-48 -58q-4 -11 0 -182q2 -168 9 -184q19 -32 53 -47q57 -23 113 -17q46 -3 88 25q31 22 34 65q4 25 11 25q2 0 15.5 -2t40.5 -6.5t48 -7.5l96 -17l-2 -28q0 -54 -46 -98.5t-101 -55.5q-66 -20 -121 -23q-6 0 -18 -4q-3 0 -4.5 -1t-3 -7.5
t-1.5 -17.5v-35q3 -29 -4 -64q-56 -9 -112 0q-6 2 -6 66v61l-31 5q-79 10 -148.5 44t-103.5 93q-14 26 -18 60.5t-5 176.5q-1 147 2 183t19 63q80 118 276 137l15 2l2 78q0 53 4 80q18 4 53 4q53 2 55 -2q4 -55 2 -82q-2 -32 5 -78q55 -5 120 -22q89 -16 148 -84
q25 -36 28 -80v-25l-45 -6q-153 -26 -159 -26q-4 6 -4 20q-3 38 -27 62q-68 53 -156 34z" />
    <glyph glyph-name="sterling" unicode="&#xa3;" horiz-adv-x="739" 
d="M762 236v-236h-721v532q-7 1 -20.5 2.5t-20.5 2.5q-7 48 -2 86v79h43v732h287v-729h88v-9q2 -4 2 -86l-2 -78h-88v-301z" />
    <glyph glyph-name="currency" unicode="&#xa4;" horiz-adv-x="669" 
d="M561 614q-10 -33 -33 -71q-13 -23 0 -47q8 -15 4 -19q-3 -6 -8 -6q-10 -5 -22 -14q-11 -11 -23 -17q-3 1 -6.5 2.5t-8 4.5t-7.5 4q-17 9 -29 4q-61 -25 -123 -19q-45 9 -80 29q-29 20 -69 10q-7 -3 -11 -1t-16 15q-19 20 -21 27t7 14q20 20 10 45q-24 56 -21 105
q0 14 5 59q12 41 30 78q11 11 11 25q0 19 -11 45q-2 4 -2.5 5.5t0.5 2.5l21 14q22 17 28 19q10 5 19 -4q2 -1 8.5 -7t11.5 -8q11 -4 37 6q32 13 64 13q49 3 98 -19q26 -11 33.5 -11t19.5 11q16 14 23 9q8 -5 26 -23q18 -21 13 -23q-11 -11 -13 -20l-4 -18l15 -29
q33 -56 30 -125q3 -36 -6 -66zM360 614q26 13 34.5 42t-5.5 55q-12 31 -49 34q-31 0 -47 -26q-10 -12 -10 -41q0 -31 8 -43q20 -23 47 -29q16 4 22 8z" />
    <glyph glyph-name="currency" unicode="&#xe924;" horiz-adv-x="669" 
d="M561 614q-10 -33 -33 -71q-13 -23 0 -47q8 -15 4 -19q-3 -6 -8 -6q-10 -5 -22 -14q-11 -11 -23 -17q-3 1 -6.5 2.5t-8 4.5t-7.5 4q-17 9 -29 4q-61 -25 -123 -19q-45 9 -80 29q-29 20 -69 10q-7 -3 -11 -1t-16 15q-19 20 -21 27t7 14q20 20 10 45q-24 56 -21 105
q0 14 5 59q12 41 30 78q11 11 11 25q0 19 -11 45q-2 4 -2.5 5.5t0.5 2.5l21 14q22 17 28 19q10 5 19 -4q2 -1 8.5 -7t11.5 -8q11 -4 37 6q32 13 64 13q49 3 98 -19q26 -11 33.5 -11t19.5 11q16 14 23 9q8 -5 26 -23q18 -21 13 -23q-11 -11 -13 -20l-4 -18l15 -29
q33 -56 30 -125q3 -36 -6 -66zM360 614q26 13 34.5 42t-5.5 55q-12 31 -49 34q-31 0 -47 -26q-10 -12 -10 -41q0 -31 8 -43q20 -23 47 -29q16 4 22 8z" />
    <glyph glyph-name="yen" unicode="&#xa5;" horiz-adv-x="1243" 
d="M1151 1307q16 -10 63 -52q-8 -12 -24 -32q-30 -39 -47 -64q-24 -30 -186 -250t-166 -229l-7 -8h95q93 0 96 -8q4 -27 4 -84q0 -78 -6 -80h-7q-6 0 -16.5 -0.5t-24 -1t-30.5 -0.5h-33h-104v-37h106q78 0 94 -1t17 -5q4 -29 4 -84t-1 -67.5t-5 -12.5q-4 -4 -111 -4h-104
v-291h-287v291h-102q-101 0 -107 6q-10 93 -2 164q61 7 109 4h102v39h-102q-103 0 -107 4q-10 92 -2 166q33 2 96 2h93l-7 8q-6 10 -168.5 231t-185.5 250q-23 28 -70 96q0 1 98 76.5t126 96.5q4 3 13.5 -7t41.5 -55q294 -413 315 -434q122 138 207 272q161 224 166 224
q29 -16 53 -37z" />
    <glyph glyph-name="yen" unicode="&#xe926;" horiz-adv-x="1243" 
d="M1151 1307q16 -10 63 -52q-8 -12 -24 -32q-30 -39 -47 -64q-24 -30 -186 -250t-166 -229l-7 -8h95q93 0 96 -8q4 -27 4 -84q0 -78 -6 -80h-7q-6 0 -16.5 -0.5t-24 -1t-30.5 -0.5h-33h-104v-37h106q78 0 94 -1t17 -5q4 -29 4 -84t-1 -67.5t-5 -12.5q-4 -4 -111 -4h-104
v-291h-287v291h-102q-101 0 -107 6q-10 93 -2 164q61 7 109 4h102v39h-102q-103 0 -107 4q-10 92 -2 166q33 2 96 2h93l-7 8q-6 10 -168.5 231t-185.5 250q-23 28 -70 96q0 1 98 76.5t126 96.5q4 3 13.5 -7t41.5 -55q294 -413 315 -434q122 138 207 272q161 224 166 224
q29 -16 53 -37z" />
    <glyph glyph-name="dieresis" unicode="&#xa8;" horiz-adv-x="485" 
d="M358 1614q26 -20 23 -51q3 -42 -35 -62q-32 -14 -59 -2q-20 9 -31 28.5t-8 41.5q3 41 43 57q38 13 67 -12zM184 1628q49 -16 49 -67q0 -23 -13.5 -41.5t-35.5 -24.5q-16 -8 -39 0q-48 17 -45 64q0 35 25 57q25 19 59 12z" />
    <glyph glyph-name="dieresis" unicode="&#xe932;" horiz-adv-x="485" 
d="M358 1614q26 -20 23 -51q3 -42 -35 -62q-32 -14 -59 -2q-20 9 -31 28.5t-8 41.5q3 41 43 57q38 13 67 -12zM184 1628q49 -16 49 -67q0 -23 -13.5 -41.5t-35.5 -24.5q-16 -8 -39 0q-48 17 -45 64q0 35 25 57q25 19 59 12z" />
    <glyph glyph-name="copyright" unicode="&#xa9;" horiz-adv-x="1574" 
d="M1399 993q109 -214 45 -452q-38 -125 -118.5 -227.5t-192.5 -168.5q-203 -119 -441 -94q-239 27 -406.5 191t-187.5 403q-15 248 140 445q132 160 321 221q12 2 27 10q73 28 151 31q169 10 314 -47q190 -74 309 -244q2 -4 10 -17.5l16 -27t13 -23.5zM877 324
q128 38 200.5 150.5t55.5 244.5q-9 140 -105 247t-233 119q-83 6 -158.5 -29t-124.5 -102q-85 -122 -73.5 -269.5t112.5 -256.5q89 -95 211 -113q50 -5 115 9zM803 635q10 6 12 4q1 -1 12 -48t11 -52q-3 -3 -21 -15q-17 -10 -45 -10q-21 0 -39 6q-49 25 -75.5 73.5
t-20.5 104.5q-4 55 21 104.5t73 78.5q23 10 43 10q17 0 41 -8q14 -7 14 -13q-6 -54 -24 -104q-7 -7 -10 0q-2 2 -15 2q-23 0 -33 -33.5t3 -68.5q7 -24 22.5 -32.5t30.5 1.5z" />
    <glyph glyph-name="copyright" unicode="&#xe923;" horiz-adv-x="1574" 
d="M1399 993q109 -214 45 -452q-38 -125 -118.5 -227.5t-192.5 -168.5q-203 -119 -441 -94q-239 27 -406.5 191t-187.5 403q-15 248 140 445q132 160 321 221q12 2 27 10q73 28 151 31q169 10 314 -47q190 -74 309 -244q2 -4 10 -17.5l16 -27t13 -23.5zM877 324
q128 38 200.5 150.5t55.5 244.5q-9 140 -105 247t-233 119q-83 6 -158.5 -29t-124.5 -102q-85 -122 -73.5 -269.5t112.5 -256.5q89 -95 211 -113q50 -5 115 9zM803 635q10 6 12 4q1 -1 12 -48t11 -52q-3 -3 -21 -15q-17 -10 -45 -10q-21 0 -39 6q-49 25 -75.5 73.5
t-20.5 104.5q-4 55 21 104.5t73 78.5q23 10 43 10q17 0 41 -8q14 -7 14 -13q-6 -54 -24 -104q-7 -7 -10 0q-2 2 -15 2q-23 0 -33 -33.5t3 -68.5q7 -24 22.5 -32.5t30.5 1.5z" />
    <glyph glyph-name="uni00AD" unicode="&#xad;" horiz-adv-x="0" 
 />
    <glyph glyph-name="registered" unicode="&#xae;" horiz-adv-x="1110" 
d="M987 1260q30 -91 17 -191q-28 -149 -138.5 -252.5t-261.5 -120.5q-41 -5 -96 -2l-37 6q-120 19 -214.5 96.5t-135.5 192.5q-38 129 0 254q32 97 104 170t168 107q28 10 35 14q74 24 154 18q137 -5 248 -84.5t157 -207.5zM748 1001q32 68 28.5 143.5t-41.5 141.5
q-31 48 -71.5 73t-98.5 38q-31 6 -61 0q-58 -12 -104.5 -49t-71.5 -91q-31 -57 -31 -116q-6 -81 31 -148q48 -97 153 -129q57 -10 105 2q54 14 96.5 49t65.5 86zM641 1192q11 -23 4.5 -49t-27.5 -41l-14 -10l8 -7q24 -24 27 -53l2 -18h-68l-2 12q-1 9 -7 19t-9 10
q-2 0 -2 -17q0 -4 -4 -20q-28 -6 -53 0q-10 64 -7 121l-2 116l7 5q30 12 63 2q59 -16 84 -70zM561 1155q10 0 10 8q2 5 -5 15t-11 10q-2 0 -2 -17q0 -12 1 -14.5t7 -1.5z" />
    <glyph glyph-name="registered" unicode="&#xe922;" horiz-adv-x="1110" 
d="M987 1260q30 -91 17 -191q-28 -149 -138.5 -252.5t-261.5 -120.5q-41 -5 -96 -2l-37 6q-120 19 -214.5 96.5t-135.5 192.5q-38 129 0 254q32 97 104 170t168 107q28 10 35 14q74 24 154 18q137 -5 248 -84.5t157 -207.5zM748 1001q32 68 28.5 143.5t-41.5 141.5
q-31 48 -71.5 73t-98.5 38q-31 6 -61 0q-58 -12 -104.5 -49t-71.5 -91q-31 -57 -31 -116q-6 -81 31 -148q48 -97 153 -129q57 -10 105 2q54 14 96.5 49t65.5 86zM641 1192q11 -23 4.5 -49t-27.5 -41l-14 -10l8 -7q24 -24 27 -53l2 -18h-68l-2 12q-1 9 -7 19t-9 10
q-2 0 -2 -17q0 -4 -4 -20q-28 -6 -53 0q-10 64 -7 121l-2 116l7 5q30 12 63 2q59 -16 84 -70zM561 1155q10 0 10 8q2 5 -5 15t-11 10q-2 0 -2 -17q0 -12 1 -14.5t7 -1.5z" />
    <glyph glyph-name="plusminus" unicode="&#xb1;" horiz-adv-x="630" 
d="M526 731q2 -4 2 -86l-2 -78l-61 -2h-62v-108h-170v108h-59q-59 0 -63 4q-7 53 -5 86l3 82h61l61 2l2 133l84 2h86v-135h60q46 0 53.5 -1t9.5 -7zM522 389l2 -8v-164l-207 -2q-99 -6 -211 4q-5 38 -2 86v82h209z" />
    <glyph glyph-name="plusminus" unicode="&#xe927;" horiz-adv-x="630" 
d="M526 731q2 -4 2 -86l-2 -78l-61 -2h-62v-108h-170v108h-59q-59 0 -63 4q-7 53 -5 86l3 82h61l61 2l2 133l84 2h86v-135h60q46 0 53.5 -1t9.5 -7zM522 389l2 -8v-164l-207 -2q-99 -6 -211 4q-5 38 -2 86v82h209z" />
    <glyph glyph-name="acute" unicode="&#xb4;" horiz-adv-x="389" 
d="M285 1651q-10 -50 -41 -113q-8 -23 -29 -65q-19 5 -49 16q-65 26 -66 31v2l35 88q32 84 37 84q47 -14 113 -43z" />
    <glyph glyph-name="acute" unicode="&#xe933;" horiz-adv-x="389" 
d="M285 1651q-10 -50 -41 -113q-8 -23 -29 -65q-19 5 -49 16q-65 26 -66 31v2l35 88q32 84 37 84q47 -14 113 -43z" />
    <glyph glyph-name="cedilla" unicode="&#xb8;" horiz-adv-x="438" 
d="M324 -76q10 -23 4 -43q-6 -44 -42 -73t-81 -29q-21 0 -39 6q-34 8 -57 41q-17 25 -10 25q2 0 7 -1q28 -4 44 -4q23 -3 51 11q24 12 31 29t-5 32q-21 21 -55 21q-9 -2 -22 2q-1 0 2 28.5t7.5 58t6.5 33.5q8 8 20 11q36 9 70 -3t55 -42q5 -7 8 -17q-3 -11 -12 -20l-12 -17
l10 -12q17 -26 19 -37z" />
    <glyph glyph-name="cedilla" unicode="&#xe934;" horiz-adv-x="438" 
d="M324 -76q10 -23 4 -43q-6 -44 -42 -73t-81 -29q-21 0 -39 6q-34 8 -57 41q-17 25 -10 25q2 0 7 -1q28 -4 44 -4q23 -3 51 11q24 12 31 29t-5 32q-21 21 -55 21q-9 -2 -22 2q-1 0 2 28.5t7.5 58t6.5 33.5q8 8 20 11q36 9 70 -3t55 -42q5 -7 8 -17q-3 -11 -12 -20l-12 -17
l10 -12q17 -26 19 -37z" />
    <glyph glyph-name="Agrave" unicode="&#xc0;" horiz-adv-x="1048" 
d="M623 1499q1 -6 -6 -8t-50 -8l-92 -13l-26 140q-26 142 -25 143q3 6 47 6q33 0 47 -2q3 -1 53 -125.5t52 -132.5zM293 0h-156q-69 -3 -155 4q0 13 24 107q52 237 111 471q8 40 8 43q5 30 8 39q4 16 13 51t14 57q36 127 51 215q3 10 5.5 21.5t4 19.5t2.5 10q3 14 22.5 94
t20.5 85q10 59 49 204l4 13h373l13 -50q3 -11 10.5 -36.5t9.5 -32.5t7 -29t14 -57t20 -76q7 -29 19 -73.5t33.5 -126t39.5 -148.5q22 -79 88 -342q8 -32 37 -135q54 -203 66 -244q22 -79 22 -80q0 -2 -151 -2h-152l-43 166q-8 32 -23 91.5t-25 99.5t-15 61l-23 84l-119 2
q-121 0 -121 -2q-6 -33 -14 -72q-33 -157 -70 -321zM477 866l-31 -149q64 -6 129 -6h6.5t3.5 0.5t1.5 2t-0.5 3.5q-5 15 -43 172q-28 112 -33 121q0 1 -4.5 -17t-13 -54t-15.5 -73z" />
    <glyph glyph-name="Aacute" unicode="&#xc1;" horiz-adv-x="1048" 
d="M616 1651q-10 -50 -41 -113q-10 -30 -28 -65q-19 5 -49 16q-65 26 -66 31v2l35 88q32 84 37 84q44 -13 112 -43zM293 0h-156q-69 -3 -155 4q0 13 24 107q52 237 111 471q8 40 8 43q5 30 8 39q4 16 13 51t14 57q36 127 51 215q3 10 5.5 21.5t4 19.5t2.5 10q3 14 22.5 94
t20.5 85q10 59 49 204l4 13h373l13 -50q3 -11 10.5 -36.5t9.5 -32.5t7 -29t14 -57t20 -76q7 -29 19 -73.5t33.5 -126t39.5 -148.5q22 -79 88 -342q8 -32 37 -135q54 -203 66 -244q22 -79 22 -80q0 -2 -151 -2h-152l-43 166q-8 32 -23 91.5t-25 99.5t-15 61l-23 84l-119 2
q-121 0 -121 -2q-6 -33 -14 -72q-33 -157 -70 -321zM477 866l-31 -149q64 -6 129 -6h6.5t3.5 0.5t1.5 2t-0.5 3.5q-5 15 -43 172q-28 112 -33 121q0 1 -4.5 -17t-13 -54t-15.5 -73z" />
    <glyph glyph-name="Acircumflex" unicode="&#xc2;" horiz-adv-x="1048" 
d="M651 1718q2 -1 2.5 -3t-3.5 -13.5t-11 -28.5t-21 -49q-33 -89 -65 -143q-28 25 -78 82q-64 71 -73.5 83t-6.5 17q19 24 58 55q31 -18 86 -73q9 6 27.5 18t27.5 18q31 24 57 37zM293 0h-156q-69 -3 -155 4q0 13 24 107q52 237 111 471q8 40 8 43q5 30 8 39q4 16 13 51
t14 57q36 127 51 215q3 10 5.5 21.5t4 19.5t2.5 10q3 14 22.5 94t20.5 85q10 59 49 204l4 13h373l13 -50q3 -11 10.5 -36.5t9.5 -32.5t7 -29t14 -57t20 -76q7 -29 19 -73.5t33.5 -126t39.5 -148.5q22 -79 88 -342q8 -32 37 -135q54 -203 66 -244q22 -79 22 -80q0 -2 -151 -2
h-152l-43 166q-8 32 -23 91.5t-25 99.5t-15 61l-23 84l-119 2q-121 0 -121 -2q-6 -33 -14 -72q-33 -157 -70 -321zM477 866l-31 -149q64 -6 129 -6h6.5t3.5 0.5t1.5 2t-0.5 3.5q-5 15 -43 172q-28 112 -33 121q0 1 -4.5 -17t-13 -54t-15.5 -73z" />
    <glyph glyph-name="Atilde" unicode="&#xc3;" horiz-adv-x="1048" 
d="M705 1692l28 -4v-21q-1 -58 -41.5 -97.5t-97.5 -39.5q-65 0 -111 49q-4 4 -16 12q-7 0 -10 6q-21 14 -41 0q-20 -20 -23 -45q0 -9 -6 -11t-31 1q-34 5 -38 8t-3 23q6 69 58 121q35 24 73 18q39 -6 64 -41q38 -47 72 -47q40 0 55 57q3 9 6 11.5t16 3.5q18 0 46 -4zM293 0
h-156q-69 -3 -155 4q0 13 24 107q52 237 111 471q8 40 8 43q5 30 8 39q4 16 13 51t14 57q36 127 51 215q3 10 5.5 21.5t4 19.5t2.5 10q3 14 22.5 94t20.5 85q10 59 49 204l4 13h373l13 -50q3 -11 10.5 -36.5t9.5 -32.5t7 -29t14 -57t20 -76q7 -29 19 -73.5t33.5 -126
t39.5 -148.5q22 -79 88 -342q8 -32 37 -135q54 -203 66 -244q22 -79 22 -80q0 -2 -151 -2h-152l-43 166q-8 32 -23 91.5t-25 99.5t-15 61l-23 84l-119 2q-121 0 -121 -2q-6 -33 -14 -72q-33 -157 -70 -321zM477 866l-31 -149q64 -6 129 -6h6.5t3.5 0.5t1.5 2t-0.5 3.5
q-5 15 -43 172q-28 112 -33 121q0 1 -4.5 -17t-13 -54t-15.5 -73z" />
    <glyph glyph-name="Adieresis" unicode="&#xc4;" horiz-adv-x="1048" 
d="M641 1614q26 -20 23 -51q3 -42 -35 -62q-32 -14 -60 -2q-20 9 -31 28.5t-8 41.5q3 41 43 57q39 14 68 -12zM467 1628q49 -16 49 -67q0 -23 -13.5 -41.5t-35.5 -24.5q-16 -8 -39 0q-48 17 -45 64q0 35 25 57q25 19 59 12zM293 0h-156q-69 -3 -155 4q0 13 24 107
q52 237 111 471q8 40 8 43q5 30 8 39q4 16 13 51t14 57q36 127 51 215q3 10 5.5 21.5t4 19.5t2.5 10q3 14 22.5 94t20.5 85q10 59 49 204l4 13h373l13 -50q3 -11 10.5 -36.5t9.5 -32.5t7 -29t14 -57t20 -76q7 -29 19 -73.5t33.5 -126t39.5 -148.5q22 -79 88 -342
q8 -32 37 -135q54 -203 66 -244q22 -79 22 -80q0 -2 -151 -2h-152l-43 166q-8 32 -23 91.5t-25 99.5t-15 61l-23 84l-119 2q-121 0 -121 -2q-6 -33 -14 -72q-33 -157 -70 -321zM477 866l-31 -149q64 -6 129 -6h6.5t3.5 0.5t1.5 2t-0.5 3.5q-5 15 -43 172q-28 112 -33 121
q0 1 -4.5 -17t-13 -54t-15.5 -73z" />
    <glyph glyph-name="Aring" unicode="&#xc5;" horiz-adv-x="1048" 
d="M580 1729q33 -15 53.5 -45.5t23.5 -67.5q4 -44 -17.5 -82t-61.5 -57q-48 -20 -91 -9q-37 10 -61 37q-35 38 -36.5 92t30.5 95q23 29 63 45q49 15 97 -8zM535 1589q17 10 10 27q-3 16 -23 16q-9 -2 -15.5 -8.5t-8.5 -15.5q0 -10 10 -17q3 -6 12 -6q11 0 15 4zM293 0h-156
q-69 -3 -155 4q0 13 24 107q52 237 111 471q8 40 8 43q5 30 8 39q4 16 13 51t14 57q36 127 51 215q3 10 5.5 21.5t4 19.5t2.5 10q3 14 22.5 94t20.5 85q10 59 49 204l4 13h373l13 -50q3 -11 10.5 -36.5t9.5 -32.5t7 -29t14 -57t20 -76q7 -29 19 -73.5t33.5 -126t39.5 -148.5
q22 -79 88 -342q8 -32 37 -135q54 -203 66 -244q22 -79 22 -80q0 -2 -151 -2h-152l-43 166q-8 32 -23 91.5t-25 99.5t-15 61l-23 84l-119 2q-121 0 -121 -2q-6 -33 -14 -72q-33 -157 -70 -321zM477 866l-31 -149q64 -6 129 -6h6.5t3.5 0.5t1.5 2t-0.5 3.5q-5 15 -43 172
q-28 112 -33 121q0 1 -4.5 -17t-13 -54t-15.5 -73z" />
    <glyph glyph-name="AE" unicode="&#xc6;" horiz-adv-x="1679" 
d="M293 0h-156q-69 -3 -155 4q0 13 24 107q52 237 111 471q8 40 8 43q5 30 8 39q4 16 13 51t14 57q36 127 51 215q3 10 5.5 21.5t4 19.5t2.5 10q3 14 22.5 94t20.5 85q10 59 49 204l4 13h373l13 -50q3 -11 10.5 -36.5t9.5 -32.5t7 -29t14 -57t20 -76q23 -95 78 -291v371v201
h776l-8 -15q-1 -3 -10 -17.5t-22.5 -38t-25.5 -44.5l-49 -86h-145q-146 0 -164 -6q-36 -14 -59 -56q-5 -11 -6 -35.5t-1 -136.5v-155h140q66 6 141 -4q-17 -51 -43 -109l-45 -102l-96 -2h-97v-361l11 -16q18 -26 53 -47q6 -2 158 -2l145 2l68 -101l67 -100q0 -4 -397 0h-467
l-43 166q-8 32 -23 91.5t-25 99.5t-15 61l-23 84l-119 2q-121 0 -121 -2q-6 -33 -14 -72q-33 -157 -70 -321zM477 866l-31 -149q64 -6 129 -6h6.5t3.5 0.5t1.5 2t-0.5 3.5q-5 15 -43 172q-28 112 -33 121q0 1 -4.5 -17t-13 -54t-15.5 -73z" />
    <glyph glyph-name="Ccedilla" unicode="&#xc7;" horiz-adv-x="888" 
d="M41 289q-12 42 -14 105t-4 339q0 347 2 359q15 113 89.5 199t184.5 118q79 31 166 25q86 6 176 -27q71 -19 126.5 -64.5t86.5 -109.5q36 -67 33 -139q2 -56 -2 -56q-15 -5 -75 -20.5t-113 -29t-54 -13.5q-4 28 -4 41q6 81 -51 141q-30 33 -74 39q-46 11 -91.5 -1
t-80.5 -44q-43 -40 -59 -98q-4 -20 -1.5 -345.5t7.5 -342.5q11 -39 43 -76q35 -35 84 -49t96 -2q46 6 76 36q53 59 47 140q0 23 6 41q1 1 108.5 -26.5t131.5 -35.5q6 -3 4 -57q0 -50 -15 -96q-16 -67 -68 -120.5t-117.5 -82t-135.5 -35.5q-2 -2 -5 -6t-5 -6l-13 -17l11 -12
q16 -24 18 -37q10 -23 4 -43q-6 -44 -42 -73t-81 -29q-21 0 -39 6q-34 8 -57 41q-17 25 -9 25q2 0 7 -1q28 -4 43 -4q23 -3 51 11q25 12 32 29t-5 32q-21 21 -56 21q-9 -2 -22 2q-1 0 0.5 14.5t5.5 46.5q-123 13 -217 91.5t-129 195.5z" />
    <glyph glyph-name="Egrave" unicode="&#xc8;" horiz-adv-x="802" 
d="M500 1499q1 -6 -6 -8t-50 -8l-92 -13l-26 140q-26 142 -25 143q3 6 47 6q33 0 47 -2q3 -1 53 -125.5t52 -132.5zM829 2q0 -4 -397 0h-395l2 514q2 283 2 717v201h776l-8 -15q-2 -3 -10 -17.5t-21.5 -38t-25.5 -44.5l-50 -86h-145q-146 0 -164 -6q-36 -14 -59 -56
q-4 -10 -5 -32.5t-1 -139.5v-155h139q66 6 141 -4q-17 -51 -43 -109l-45 -102l-96 -2h-96v-361l10 -16q18 -26 53 -47q6 -2 158 -2l145 2l68 -101z" />
    <glyph glyph-name="Eacute" unicode="&#xc9;" horiz-adv-x="802" 
d="M494 1651q-10 -50 -41 -113q-8 -23 -29 -65q-19 5 -49 16q-65 26 -66 31v2l35 88q32 84 37 84q47 -14 113 -43zM829 2q0 -4 -397 0h-395l2 514q2 283 2 717v201h776l-8 -15q-2 -3 -10 -17.5t-21.5 -38t-25.5 -44.5l-50 -86h-145q-146 0 -164 -6q-36 -14 -59 -56
q-4 -10 -5 -32.5t-1 -139.5v-155h139q66 6 141 -4q-17 -51 -43 -109l-45 -102l-96 -2h-96v-361l10 -16q18 -26 53 -47q6 -2 158 -2l145 2l68 -101z" />
    <glyph glyph-name="Ecircumflex" unicode="&#xca;" horiz-adv-x="802" 
d="M528 1718q8 0 -25 -77q-3 -8 -7 -17q-31 -85 -66 -143q-28 25 -78 82q-64 71 -73.5 83t-6.5 17q19 24 58 55q31 -18 86 -73q9 6 27.5 18t27.5 18q31 24 57 37zM829 2q0 -4 -397 0h-395l2 514q2 283 2 717v201h776l-8 -15q-2 -3 -10 -17.5t-21.5 -38t-25.5 -44.5l-50 -86
h-145q-146 0 -164 -6q-36 -14 -59 -56q-4 -10 -5 -32.5t-1 -139.5v-155h139q66 6 141 -4q-17 -51 -43 -109l-45 -102l-96 -2h-96v-361l10 -16q18 -26 53 -47q6 -2 158 -2l145 2l68 -101z" />
    <glyph glyph-name="Edieresis" unicode="&#xcb;" horiz-adv-x="802" 
d="M518 1614q26 -20 23 -51q3 -42 -35 -62q-32 -14 -60 -2q-20 9 -30.5 28.5t-7.5 41.5q3 41 43 57q38 13 67 -12zM344 1628q49 -16 49 -67q0 -23 -13.5 -41.5t-35.5 -24.5q-16 -8 -39 0q-48 17 -45 64q0 35 25 57q25 19 59 12zM829 2q0 -4 -397 0h-395l2 514q2 283 2 717
v201h776l-8 -15q-2 -3 -10 -17.5t-21.5 -38t-25.5 -44.5l-50 -86h-145q-146 0 -164 -6q-36 -14 -59 -56q-4 -10 -5 -32.5t-1 -139.5v-155h139q66 6 141 -4q-17 -51 -43 -109l-45 -102l-96 -2h-96v-361l10 -16q18 -26 53 -47q6 -2 158 -2l145 2l68 -101z" />
    <glyph glyph-name="Igrave" unicode="&#xcc;" horiz-adv-x="368" 
d="M283 1499q1 -6 -6 -8t-50 -8l-92 -13l-26 140q-26 142 -25 143q3 6 47 6q33 0 47 -2q3 -1 53 -125.5t52 -132.5zM328 1434v-1434h-287v1434h287z" />
    <glyph glyph-name="Iacute" unicode="&#xcd;" horiz-adv-x="368" 
d="M276 1651q-11 -53 -40 -113q-8 -23 -29 -65q-19 5 -49 16q-65 26 -66 31v2l35 88q32 84 37 84q44 -13 112 -43zM328 1434v-1434h-287v1434h287z" />
    <glyph glyph-name="Icircumflex" unicode="&#xce;" horiz-adv-x="368" 
d="M311 1718q8 0 -25 -77q-3 -8 -7 -17q-31 -85 -66 -143q-28 25 -78 82q-64 71 -73.5 83t-6.5 17q19 24 58 55q31 -18 86 -73q9 6 27.5 18t27.5 18q31 24 57 37zM328 1434v-1434h-287v1434h287z" />
    <glyph glyph-name="Idieresis" unicode="&#xcf;" horiz-adv-x="368" 
d="M301 1614q26 -20 23 -51q3 -42 -35 -62q-32 -14 -60 -2q-20 9 -31 28.5t-8 41.5q3 41 43 57q39 14 68 -12zM127 1628q49 -16 49 -67q0 -23 -13.5 -41.5t-35.5 -24.5q-16 -8 -39 0q-48 17 -45 64q0 35 25 57q25 19 59 12zM328 1434v-1434h-287v1434h287z" />
    <glyph glyph-name="Eth" unicode="&#xd0;" horiz-adv-x="1085" 
d="M211 2l-170 -2v571q-6 1 -18.5 2t-18.5 2q-7 49 -2 87v79h39v693h154q168 12 340 -27q147 -40 278 -135q73 -60 127 -125q107 -131 138 -297.5t-23 -327.5q-63 -195 -231.5 -332.5t-374.5 -173.5l-70 -14h-168zM328 1135v-392h92v-8q2 -4 2 -86l-2 -78h-92v-295h12
q18 0 43 7q161 24 283 137q103 85 135.5 213.5t-17.5 251.5q-56 103 -153 168t-213 75q-35 7 -62 7h-28z" />
    <glyph glyph-name="Ntilde" unicode="&#xd1;" horiz-adv-x="1001" 
d="M682 1692l29 -4v-21q-1 -58 -42 -97.5t-98 -39.5q-64 0 -110 49q-2 2 -17 12q-7 0 -10 6q-21 14 -41 0q-19 -19 -22 -45q0 -9 -6 -11t-31 1q-34 5 -38 8t-3 23q6 70 57 121q35 24 74 18q38 -6 63 -41q38 -47 72 -47q40 0 55 57q3 9 6.5 11.5t16.5 3.5q17 0 45 -4z
M326 713l2 -713h-287v1434h285v-260l41 -66q56 -91 172 -285q134 -219 135 -219v830h287v-1434h-287v168l-80 125q-14 22 -72.5 113t-81.5 129q-25 40 -60 93l-34 54z" />
    <glyph glyph-name="Ograve" unicode="&#xd2;" 
d="M600 1499q2 -6 -5 -8t-50 -8l-92 -13l-27 140q-26 142 -25 143q3 6 48 6q33 0 47 -2q3 -1 52.5 -125.5t51.5 -132.5zM37 291q-9 41 -11.5 110.5t-2.5 323.5q0 275 2.5 329.5t17.5 98.5q52 136 164.5 200t271.5 79q171 14 311.5 -72t174.5 -225q10 -42 12 -94t2 -306
q0 -251 -2.5 -320.5t-11.5 -111.5q-33 -120 -117 -187t-217 -106q-67 -16 -131 -10q-74 -4 -123 6q-119 17 -212 94.5t-128 190.5zM301 1069q-6 -20 -6.5 -63.5t0.5 -288.5q0 -257 2 -306.5t12 -78.5q15 -51 55.5 -86.5t92.5 -42.5q50 -6 100 6q35 10 74 41q50 47 65 108
q6 20 8 67.5t3 274.5q1 249 -1 306.5t-14 89.5q-25 76 -96 114q-52 22 -107 19q-75 -3 -129 -60q-44 -41 -59 -100z" />
    <glyph glyph-name="Oacute" unicode="&#xd3;" 
d="M594 1651q-10 -50 -41 -113q-8 -23 -29 -65q-19 5 -49 16q-64 28 -65 33q0 3 34 88q32 84 37 84q47 -14 113 -43zM37 291q-9 41 -11.5 110.5t-2.5 323.5q0 275 2.5 329.5t17.5 98.5q52 136 164.5 200t271.5 79q171 14 311.5 -72t174.5 -225q10 -42 12 -94t2 -306
q0 -251 -2.5 -320.5t-11.5 -111.5q-33 -120 -117 -187t-217 -106q-67 -16 -131 -10q-74 -4 -123 6q-119 17 -212 94.5t-128 190.5zM301 1069q-6 -20 -6.5 -63.5t0.5 -288.5q0 -257 2 -306.5t12 -78.5q15 -51 55.5 -86.5t92.5 -42.5q50 -6 100 6q35 10 74 41q50 47 65 108
q6 20 8 67.5t3 274.5q1 249 -1 306.5t-14 89.5q-25 76 -96 114q-52 22 -107 19q-75 -3 -129 -60q-44 -41 -59 -100z" />
    <glyph glyph-name="Ocircumflex" unicode="&#xd4;" 
d="M629 1718q2 -1 2.5 -3t-3.5 -13.5t-11 -28.5t-21 -49q-31 -85 -66 -143q-25 21 -77 82q-64 71 -73.5 83t-6.5 17q21 26 57 55q31 -18 86 -73q9 6 27.5 18t27.5 18q29 22 58 37zM37 291q-9 41 -11.5 110.5t-2.5 323.5q0 275 2.5 329.5t17.5 98.5q52 136 164.5 200
t271.5 79q171 14 311.5 -72t174.5 -225q10 -42 12 -94t2 -306q0 -251 -2.5 -320.5t-11.5 -111.5q-33 -120 -117 -187t-217 -106q-67 -16 -131 -10q-74 -4 -123 6q-119 17 -212 94.5t-128 190.5zM301 1069q-6 -20 -6.5 -63.5t0.5 -288.5q0 -257 2 -306.5t12 -78.5
q15 -51 55.5 -86.5t92.5 -42.5q50 -6 100 6q35 10 74 41q50 47 65 108q6 20 8 67.5t3 274.5q1 249 -1 306.5t-14 89.5q-25 76 -96 114q-52 22 -107 19q-75 -3 -129 -60q-44 -41 -59 -100z" />
    <glyph glyph-name="Otilde" unicode="&#xd5;" 
d="M682 1692l29 -4v-21q-1 -58 -42 -97.5t-98 -39.5q-64 0 -110 49q-2 2 -17 12q-7 0 -10 6q-21 14 -41 0q-19 -19 -22 -45q0 -9 -6 -11t-31 1q-34 5 -38 8t-3 23q6 70 57 121q35 24 74 18q38 -6 63 -41q38 -47 72 -47q40 0 55 57q3 9 6.5 11.5t16.5 3.5q17 0 45 -4zM37 291
q-9 41 -11.5 110.5t-2.5 323.5q0 275 2.5 329.5t17.5 98.5q52 136 164.5 200t271.5 79q171 14 311.5 -72t174.5 -225q10 -42 12 -94t2 -306q0 -251 -2.5 -320.5t-11.5 -111.5q-33 -120 -117 -187t-217 -106q-67 -16 -131 -10q-74 -4 -123 6q-119 17 -212 94.5t-128 190.5z
M301 1069q-6 -20 -6.5 -63.5t0.5 -288.5q0 -257 2 -306.5t12 -78.5q15 -51 55.5 -86.5t92.5 -42.5q50 -6 100 6q35 10 74 41q50 47 65 108q6 20 8 67.5t3 274.5q1 249 -1 306.5t-14 89.5q-25 76 -96 114q-52 22 -107 19q-75 -3 -129 -60q-44 -41 -59 -100z" />
    <glyph glyph-name="Odieresis" unicode="&#xd6;" 
d="M618 1614q26 -20 23 -51q3 -42 -35 -62q-32 -14 -59 -2q-20 9 -31 28.5t-8 41.5q3 41 43 57q38 13 67 -12zM444 1628q23 -7 36.5 -25.5t13.5 -41.5t-14 -41.5t-36 -24.5q-15 -8 -38 0q-22 8 -34.5 25t-11.5 39q0 35 25 57q25 19 59 12zM37 291q-9 41 -11.5 110.5
t-2.5 323.5q0 275 2.5 329.5t17.5 98.5q52 136 164.5 200t271.5 79q171 14 311.5 -72t174.5 -225q10 -42 12 -94t2 -306q0 -251 -2.5 -320.5t-11.5 -111.5q-33 -120 -117 -187t-217 -106q-67 -16 -131 -10q-74 -4 -123 6q-119 17 -212 94.5t-128 190.5zM301 1069
q-6 -20 -6.5 -63.5t0.5 -288.5q0 -257 2 -306.5t12 -78.5q15 -51 55.5 -86.5t92.5 -42.5q50 -6 100 6q35 10 74 41q50 47 65 108q6 20 8 67.5t3 274.5q1 249 -1 306.5t-14 89.5q-25 76 -96 114q-52 22 -107 19q-75 -3 -129 -60q-44 -41 -59 -100z" />
    <glyph glyph-name="multiply" unicode="&#xd7;" horiz-adv-x="755" 
d="M625 379l28 -49l-59 -58l-59 -57q-2 0 -80 111q-74 110 -78 110q-18 -25 -27 -41q-111 -184 -114 -184q-1 0 -66 61l-61 60l4 10q4 12 57 109l53 98l-37 55q-81 124 -84 135q-3 6 52 68q31 40 57 63q85 -103 137 -186q11 -15 19 -25t11.5 -12.5t4.5 -1.5l61 109
q60 104 64 104q85 -70 137 -125q0 -3 -59 -98l-60 -96q27 -55 99 -160z" />
    <glyph glyph-name="multiply" unicode="&#xe928;" horiz-adv-x="755" 
d="M625 379l28 -49l-59 -58l-59 -57q-2 0 -80 111q-74 110 -78 110q-18 -25 -27 -41q-111 -184 -114 -184q-1 0 -66 61l-61 60l4 10q4 12 57 109l53 98l-37 55q-81 124 -84 135q-3 6 52 68q31 40 57 63q85 -103 137 -186q11 -15 19 -25t11.5 -12.5t4.5 -1.5l61 109
q60 104 64 104q85 -70 137 -125q0 -3 -59 -98l-60 -96q27 -55 99 -160z" />
    <glyph glyph-name="Oslash" unicode="&#xd8;" 
d="M37 291q-9 41 -11.5 110.5t-2.5 323.5q0 275 2.5 329.5t17.5 98.5q52 136 164.5 200t271.5 79q43 3 76 -2q1 3 2 8t2 8l47 176l31 -14q200 -89 205 -99q6 -6 -23 -102q-2 -9 -7 -27.5t-7 -27.5q130 -86 160 -217q10 -42 12 -94t2 -306q0 -251 -2.5 -320.5t-11.5 -111.5
q-33 -120 -117 -187t-217 -106q-67 -16 -131 -10q-27 -2 -80 -2q-20 -62 -23 -74q-4 -11 -8 -37q2 -2 -2.5 -7t-7.5 -5q-9 0 -111 57q-27 13 -53.5 27.5t-40.5 23t-14 9.5q0 7 22 94q-103 74 -145 205zM301 1069q-6 -20 -6.5 -63.5t0.5 -288.5v-219q36 121 47 168
q19 67 61.5 220t49.5 175q15 47 18 65q4 18 8 29q6 19 21 74q-83 0 -140 -60q-44 -41 -59 -100zM477 201q44 0 80 8q35 10 74 41q50 47 65 108q6 20 8 67.5t3 274.5q3 237 0 306q-2 -8 -25 -76q-5 -12 -24 -79t-23 -87q-4 -18 -8 -29q-1 -2 -25 -88q-4 -14 -26 -92.5
t-35 -122.5q-9 -34 -21.5 -79t-25.5 -90.5t-17 -61.5z" />
    <glyph glyph-name="Ugrave" unicode="&#xd9;" horiz-adv-x="1083" 
d="M641 1499q1 -6 -5.5 -8t-49.5 -8l-92 -13l-27 140q-26 142 -25 143q3 6 47 6q34 0 48 -2q3 -1 52.5 -125.5t51.5 -132.5zM49 297q-12 46 -15 133.5t-3 487.5v516h288v-514q0 -502 7 -537q12 -72 67 -127q59 -59 142 -49q38 -3 73 8q62 20 104 72t48 116q4 28 4 527v500
h289v-510q0 -397 -2.5 -482.5t-14.5 -128.5q-38 -116 -131.5 -194t-214.5 -95q-123 -28 -244 -16q-135 6 -243 86.5t-154 206.5z" />
    <glyph glyph-name="Uacute" unicode="&#xda;" horiz-adv-x="1083" 
d="M635 1651q-10 -50 -41 -113q-8 -23 -29 -65q-19 5 -49 16q-64 28 -65 33q0 3 34 88q32 84 37 84q47 -14 113 -43zM49 297q-12 46 -15 133.5t-3 487.5v516h288v-514q0 -502 7 -537q12 -72 67 -127q59 -59 142 -49q38 -3 73 8q62 20 104 72t48 116q4 28 4 527v500h289v-510
q0 -397 -2.5 -482.5t-14.5 -128.5q-38 -116 -131.5 -194t-214.5 -95q-123 -28 -244 -16q-135 6 -243 86.5t-154 206.5z" />
    <glyph glyph-name="Ucircumflex" unicode="&#xdb;" horiz-adv-x="1083" 
d="M670 1718q2 -1 2.5 -3t-3.5 -13.5t-11 -28.5t-21 -49q-31 -85 -66 -143q-25 21 -77 82q-64 71 -73.5 83t-6.5 17q21 26 57 55q31 -18 86 -73q9 6 27.5 18t27.5 18q29 22 58 37zM49 297q-12 46 -15 133.5t-3 487.5v516h288v-514q0 -502 7 -537q12 -72 67 -127
q59 -59 142 -49q38 -3 73 8q62 20 104 72t48 116q4 28 4 527v500h289v-510q0 -397 -2.5 -482.5t-14.5 -128.5q-38 -116 -131.5 -194t-214.5 -95q-123 -28 -244 -16q-135 6 -243 86.5t-154 206.5z" />
    <glyph glyph-name="Udieresis" unicode="&#xdc;" horiz-adv-x="1083" 
d="M659 1614q26 -20 23 -51q3 -42 -35 -62q-32 -14 -59 -2q-20 9 -31 28.5t-8 41.5q3 41 43 57q38 13 67 -12zM485 1628q23 -7 36.5 -25.5t13.5 -41.5t-14 -41.5t-36 -24.5q-16 -8 -39 0q-48 17 -45 64q0 35 25 57q25 19 59 12zM49 297q-12 46 -15 133.5t-3 487.5v516h288
v-514q0 -502 7 -537q12 -72 67 -127q59 -59 142 -49q38 -3 73 8q62 20 104 72t48 116q4 28 4 527v500h289v-510q0 -397 -2.5 -482.5t-14.5 -128.5q-38 -116 -131.5 -194t-214.5 -95q-123 -28 -244 -16q-135 6 -243 86.5t-154 206.5z" />
    <glyph glyph-name="Yacute" unicode="&#xdd;" horiz-adv-x="1136" 
d="M662 1651q-10 -50 -41 -113q-8 -23 -29 -65q-19 5 -49 16q-65 26 -66 31v2l35 88q32 84 37 84q47 -14 113 -43zM387 694q-67 91 -149.5 203.5t-136 185.5t-60.5 82q-28 35 -70 95q0 1 49 39.5t105 81t70 51.5q4 3 13.5 -7t41.5 -55q294 -413 315 -434q121 136 209 274
q158 222 164 222q26 -13 47 -31q13 -9 53.5 -40.5t59.5 -45.5q33 -21 67 -55q-10 -20 -22 -35q-33 -41 -230 -307q-119 -165 -180 -246l-22 -31v-641h-287v645z" />
    <glyph glyph-name="Thorn" unicode="&#xde;" horiz-adv-x="915" 
d="M797 647q52 -116 10 -233q-54 -127 -165.5 -208t-248.5 -95q-11 0 -22 -7q-4 -13 -2 -22q0 -33 -23 -59q-25 -23 -98 -25q-17 0 -51 -1t-43 -1h-39l2 33q3 31 3 499.5t-3 503.5l-2 35h69q103 1 120 0t36 -10q15 -7 17.5 -11t4.5 -18q0 -1 1.5 -35.5t1.5 -60.5v-78h57
q80 3 156 -25q71 -20 128 -67.5t91 -114.5zM584 453q24 21 24 53q3 30 -20 53q-87 71 -197 74l-22 2v-143q0 -144 2 -144q12 4 28 8q107 22 185 97z" />
    <glyph glyph-name="Thorn" unicode="&#xe935;" horiz-adv-x="915" 
d="M797 647q52 -116 10 -233q-54 -127 -165.5 -208t-248.5 -95q-11 0 -22 -7q-4 -13 -2 -22q0 -33 -23 -59q-25 -23 -98 -25q-17 0 -51 -1t-43 -1h-39l2 33q3 31 3 499.5t-3 503.5l-2 35h69q103 1 120 0t36 -10q15 -7 17.5 -11t4.5 -18q0 -1 1.5 -35.5t1.5 -60.5v-78h57
q80 3 156 -25q71 -20 128 -67.5t91 -114.5zM584 453q24 21 24 53q3 30 -20 53q-87 71 -197 74l-22 2v-143q0 -144 2 -144q12 4 28 8q107 22 185 97z" />
    <glyph glyph-name="germandbls" unicode="&#xdf;" horiz-adv-x="1136" 
d="M715 764q137 -51 228 -156.5t91 -242.5q3 -143 -98 -234q-123 -123 -297 -129q-87 -9 -180 21q0 119 12 198q0 1 3 1.5t10.5 -0.5t19.5 -3q62 -8 92 -8q32 0 90 8q100 28 128 95t-28 143q-104 128 -266 164l-45 10l-2 121q-4 125 0 125q0 1 43 20q107 46 160.5 96.5
t38.5 91.5q-17 44 -105.5 73.5t-222.5 37.5l-43 2l2 -115q0 -71 4 -555q2 -296 1 -372.5t-5 -89.5q-7 -42 -43 -58q-17 -6 -30.5 -7.5t-79.5 -4.5h-89q-2 0 -2 717v714l62 3q204 4 287 -3q131 -3 251 -55.5t211 -146.5q34 -42 45 -93.5t-6 -103.5q-68 -137 -202 -219
q-7 -4 -19 -11.5t-19 -12t-10 -5.5l-10 -8q9 -4 23 -8z" />
    <glyph glyph-name="germandbls" unicode="&#xe937;" horiz-adv-x="1136" 
d="M715 764q137 -51 228 -156.5t91 -242.5q3 -143 -98 -234q-123 -123 -297 -129q-87 -9 -180 21q0 119 12 198q0 1 3 1.5t10.5 -0.5t19.5 -3q62 -8 92 -8q32 0 90 8q100 28 128 95t-28 143q-104 128 -266 164l-45 10l-2 121q-4 125 0 125q0 1 43 20q107 46 160.5 96.5
t38.5 91.5q-17 44 -105.5 73.5t-222.5 37.5l-43 2l2 -115q0 -71 4 -555q2 -296 1 -372.5t-5 -89.5q-7 -42 -43 -58q-17 -6 -30.5 -7.5t-79.5 -4.5h-89q-2 0 -2 717v714l62 3q204 4 287 -3q131 -3 251 -55.5t211 -146.5q34 -42 45 -93.5t-6 -103.5q-68 -137 -202 -219
q-7 -4 -19 -11.5t-19 -12t-10 -5.5l-10 -8q9 -4 23 -8z" />
    <glyph glyph-name="agrave" unicode="&#xe0;" horiz-adv-x="1050" 
d="M625 1499q1 -6 -6 -8t-50 -8l-92 -13l-26 140q-26 142 -25 143q3 6 47 6q33 0 47 -2q3 -1 53 -125.5t52 -132.5zM696 1419q0 -2 3 -11.5t5.5 -20t4.5 -19.5q1 -5 19.5 -74.5t33.5 -119.5q9 -36 20.5 -81.5t18 -71t8.5 -30.5t4.5 -15.5t6 -24.5t5.5 -23q4 -14 17.5 -66
t27.5 -102q18 -101 41 -160q2 -8 19 -74q5 -19 10.5 -40t17.5 -65t25 -93q43 -166 66 -244q22 -79 22 -82h-303l-25 98q-5 20 -12 47t-10 39t-4 13q-6 3 -248 6l-131 2l-19 -86q-4 -19 -9.5 -44t-8.5 -40t-4 -19l-4 -18h-156q-73 -6 -155 4q0 8 14 62q3 19 12.5 60t11.5 50
q3 15 9.5 41.5t7.5 32.5q3 13 10.5 44t21 89t27.5 115q6 32 15 69t16.5 68t9.5 39q8 34 26.5 111.5t43.5 185.5q30 129 43 178q5 19 10 45l6 25q9 54 49 202l4 13h373zM520 410l142 2l-152 598q-1 0 -16 -66.5t-31 -141t-19 -93.5q-1 -2 -6 -30t-10 -48q-13 -56 -29 -135
q-4 -17 -8.5 -37t-6.5 -30.5t-3 -12.5q-1 -3 4 -4q10 -2 135 -2z" />
    <glyph glyph-name="aacute" unicode="&#xe1;" horiz-adv-x="1050" 
d="M618 1651q-11 -53 -40 -113q-8 -23 -29 -65q-19 5 -49 16q-65 26 -66 31v2l35 88q32 84 37 84q44 -13 112 -43zM696 1419q0 -2 3 -11.5t5.5 -20t4.5 -19.5q1 -5 19.5 -74.5t33.5 -119.5q9 -36 20.5 -81.5t18 -71t8.5 -30.5t4.5 -15.5t6 -24.5t5.5 -23q4 -14 17.5 -66
t27.5 -102q18 -101 41 -160q2 -8 19 -74q5 -19 10.5 -40t17.5 -65t25 -93q43 -166 66 -244q22 -79 22 -82h-303l-25 98q-5 20 -12 47t-10 39t-4 13q-6 3 -248 6l-131 2l-19 -86q-4 -19 -9.5 -44t-8.5 -40t-4 -19l-4 -18h-156q-73 -6 -155 4q0 8 14 62q3 19 12.5 60t11.5 50
q3 15 9.5 41.5t7.5 32.5q3 13 10.5 44t21 89t27.5 115q6 32 15 69t16.5 68t9.5 39q8 34 26.5 111.5t43.5 185.5q30 129 43 178q5 19 10 45l6 25q9 54 49 202l4 13h373zM520 410l142 2l-152 598q-1 0 -16 -66.5t-31 -141t-19 -93.5q-1 -2 -6 -30t-10 -48q-13 -56 -29 -135
q-4 -17 -8.5 -37t-6.5 -30.5t-3 -12.5q-1 -3 4 -4q10 -2 135 -2z" />
    <glyph glyph-name="acircumflex" unicode="&#xe2;" horiz-adv-x="1050" 
d="M653 1718q8 0 -25 -77q-3 -8 -7 -17q-31 -85 -66 -143q-28 25 -78 82q-64 71 -73.5 83t-6.5 17q19 24 58 55q31 -18 86 -73q9 6 27.5 18t27.5 18q31 24 57 37zM696 1419q0 -2 3 -11.5t5.5 -20t4.5 -19.5q1 -5 19.5 -74.5t33.5 -119.5q9 -36 20.5 -81.5t18 -71t8.5 -30.5
t4.5 -15.5t6 -24.5t5.5 -23q4 -14 17.5 -66t27.5 -102q18 -101 41 -160q2 -8 19 -74q5 -19 10.5 -40t17.5 -65t25 -93q43 -166 66 -244q22 -79 22 -82h-303l-25 98q-5 20 -12 47t-10 39t-4 13q-6 3 -248 6l-131 2l-19 -86q-4 -19 -9.5 -44t-8.5 -40t-4 -19l-4 -18h-156
q-73 -6 -155 4q0 8 14 62q3 19 12.5 60t11.5 50q3 15 9.5 41.5t7.5 32.5q3 13 10.5 44t21 89t27.5 115q6 32 15 69t16.5 68t9.5 39q8 34 26.5 111.5t43.5 185.5q30 129 43 178q5 19 10 45l6 25q9 54 49 202l4 13h373zM520 410l142 2l-152 598q-1 0 -16 -66.5t-31 -141
t-19 -93.5q-1 -2 -6 -30t-10 -48q-13 -56 -29 -135q-4 -17 -8.5 -37t-6.5 -30.5t-3 -12.5q-1 -3 4 -4q10 -2 135 -2z" />
    <glyph glyph-name="atilde" unicode="&#xe3;" horiz-adv-x="1050" 
d="M707 1692l28 -4v-21q-1 -58 -41.5 -97.5t-97.5 -39.5q-65 0 -111 49q-4 4 -16 12q-7 0 -10 6q-21 14 -41 0q-20 -20 -23 -45q0 -9 -6 -11t-31 1q-34 5 -38 8t-3 23q6 69 58 121q35 24 74 18q38 -6 63 -41q38 -47 72 -47q40 0 55 57q3 9 6.5 11.5t16.5 3.5q17 0 45 -4z
M696 1419q0 -2 3 -11.5t5.5 -20t4.5 -19.5q1 -5 19.5 -74.5t33.5 -119.5q9 -36 20.5 -81.5t18 -71t8.5 -30.5t4.5 -15.5t6 -24.5t5.5 -23q4 -14 17.5 -66t27.5 -102q18 -101 41 -160q2 -8 19 -74q5 -19 10.5 -40t17.5 -65t25 -93q43 -166 66 -244q22 -79 22 -82h-303l-25 98
q-5 20 -12 47t-10 39t-4 13q-6 3 -248 6l-131 2l-19 -86q-4 -19 -9.5 -44t-8.5 -40t-4 -19l-4 -18h-156q-73 -6 -155 4q0 8 14 62q3 19 12.5 60t11.5 50q3 15 9.5 41.5t7.5 32.5q3 13 10.5 44t21 89t27.5 115q6 32 15 69t16.5 68t9.5 39q8 34 26.5 111.5t43.5 185.5
q30 129 43 178q5 19 10 45l6 25q9 54 49 202l4 13h373zM520 410l142 2l-152 598q-1 0 -16 -66.5t-31 -141t-19 -93.5q-1 -2 -6 -30t-10 -48q-13 -56 -29 -135q-4 -17 -8.5 -37t-6.5 -30.5t-3 -12.5q-1 -3 4 -4q10 -2 135 -2z" />
    <glyph glyph-name="adieresis" unicode="&#xe4;" horiz-adv-x="1050" 
d="M643 1614q26 -20 23 -51q3 -42 -35 -62q-32 -14 -60 -2q-20 9 -31 28.5t-8 41.5q3 41 43 57q39 14 68 -12zM469 1628q49 -16 49 -67q0 -23 -13.5 -41.5t-35.5 -24.5q-16 -8 -39 0q-48 17 -45 64q0 35 25 57q25 19 59 12zM696 1419q0 -2 3 -11.5t5.5 -20t4.5 -19.5
q1 -5 19.5 -74.5t33.5 -119.5q9 -36 20.5 -81.5t18 -71t8.5 -30.5t4.5 -15.5t6 -24.5t5.5 -23q4 -14 17.5 -66t27.5 -102q18 -101 41 -160q2 -8 19 -74q5 -19 10.5 -40t17.5 -65t25 -93q43 -166 66 -244q22 -79 22 -82h-303l-25 98q-5 20 -12 47t-10 39t-4 13q-6 3 -248 6
l-131 2l-19 -86q-4 -19 -9.5 -44t-8.5 -40t-4 -19l-4 -18h-156q-73 -6 -155 4q0 8 14 62q3 19 12.5 60t11.5 50q3 15 9.5 41.5t7.5 32.5q3 13 10.5 44t21 89t27.5 115q6 32 15 69t16.5 68t9.5 39q8 34 26.5 111.5t43.5 185.5q30 129 43 178q5 19 10 45l6 25q9 54 49 202
l4 13h373zM520 410l142 2l-152 598q-1 0 -16 -66.5t-31 -141t-19 -93.5q-1 -2 -6 -30t-10 -48q-13 -56 -29 -135q-4 -17 -8.5 -37t-6.5 -30.5t-3 -12.5q-1 -3 4 -4q10 -2 135 -2z" />
    <glyph glyph-name="aring" unicode="&#xe5;" horiz-adv-x="1050" 
d="M582 1729q33 -15 53.5 -45.5t23.5 -67.5q4 -44 -17.5 -82t-61.5 -57q-48 -20 -91 -9q-37 10 -61 37q-35 38 -36.5 92t30.5 95q23 29 63 45q49 15 97 -8zM537 1589q17 10 10 27q-3 16 -23 16q-9 -2 -15.5 -8.5t-8.5 -15.5q0 -10 10 -17q3 -6 12 -6q11 0 15 4zM696 1419
q0 -2 3 -11.5t5.5 -20t4.5 -19.5q1 -5 19.5 -74.5t33.5 -119.5q9 -36 20.5 -81.5t18 -71t8.5 -30.5t4.5 -15.5t6 -24.5t5.5 -23q4 -14 17.5 -66t27.5 -102q18 -101 41 -160q2 -8 19 -74q5 -19 10.5 -40t17.5 -65t25 -93q43 -166 66 -244q22 -79 22 -82h-303l-25 98
q-5 20 -12 47t-10 39t-4 13q-6 3 -248 6l-131 2l-19 -86q-4 -19 -9.5 -44t-8.5 -40t-4 -19l-4 -18h-156q-73 -6 -155 4q0 8 14 62q3 19 12.5 60t11.5 50q3 15 9.5 41.5t7.5 32.5q3 13 10.5 44t21 89t27.5 115q6 32 15 69t16.5 68t9.5 39q8 34 26.5 111.5t43.5 185.5
q30 129 43 178q5 19 10 45l6 25q9 54 49 202l4 13h373zM520 410l142 2l-152 598q-1 0 -16 -66.5t-31 -141t-19 -93.5q-1 -2 -6 -30t-10 -48q-13 -56 -29 -135q-4 -17 -8.5 -37t-6.5 -30.5t-3 -12.5q-1 -3 4 -4q10 -2 135 -2z" />
    <glyph glyph-name="ae" unicode="&#xe6;" horiz-adv-x="1851" 
d="M696 1419q0 -2 3 -11.5t5.5 -20t4.5 -19.5q1 -5 19.5 -74.5t33.5 -119.5q34 -137 43 -150v211v199h387q379 -2 385 -7q-1 -1 -8 -14t-21.5 -38.5t-27.5 -47.5l-54 -94h-145q-104 2 -127.5 1t-36.5 -7q-39 -16 -57 -53q-6 -12 -7 -34t-1 -141v-155l65 2q78 0 92 -2l27 -2
v-213h-184v-363l10 -16q19 -32 53 -47h303l66 -97q58 -87 65 -102h-5q-4 -1 -17 -1.5t-32.5 -1t-51 -0.5t-71.5 -0.5t-95 -0.5h-121h-395v2h-33l-25 98q-5 20 -12 47t-10 39t-4 13q-6 3 -248 6l-131 2l-19 -86q-4 -19 -9.5 -44t-8.5 -40t-4 -19l-4 -18h-156q-73 -6 -155 4
q0 8 14 62q3 19 12.5 60t11.5 50q3 15 9.5 41.5t7.5 32.5q3 13 10.5 44t21 89t27.5 115q6 32 15 69t16.5 68t9.5 39q8 34 26.5 111.5t43.5 185.5q30 129 43 178q5 19 10 45l6 25q9 54 49 202l4 13h373zM520 410l142 2l-152 598q-1 0 -16 -66.5t-31 -141t-19 -93.5
q-1 -2 -6 -30t-10 -48q-13 -56 -29 -135q-4 -17 -8.5 -37t-6.5 -30.5t-3 -12.5q-1 -3 4 -4q10 -2 135 -2z" />
    <glyph glyph-name="ccedilla" unicode="&#xe7;" horiz-adv-x="788" 
d="M471 1202q-116 0 -180 -121q-9 -22 -10.5 -73t0.5 -303q-6 -164 10 -345q13 -44 43 -71q33 -36 81.5 -49.5t96.5 -1.5q42 7 68 30l14 11l45 -33q25 -18 109 -78l61 -43l-18 -19q-85 -73 -203 -98q-30 -4 -90 -8q-1 -2 -9 -10l-12 -17l10 -12q17 -26 19 -37q10 -23 4 -43
q-6 -44 -42 -73t-81 -29q-21 0 -39 6q-34 8 -57 41q-17 25 -9 25q2 0 7 -1q28 -4 43 -4q23 -3 51 11q25 12 32 29t-5 32q-21 21 -56 21q-9 -2 -22 2q-1 0 0 9.5t4 30.5t4 31q-237 64 -301 277q-11 44 -13.5 113t-2.5 333q0 296 3.5 351t26.5 108q53 113 161 176.5t235 63.5
q81 6 163 -19q75 -22 138 -59q14 -9 25.5 -18.5t16.5 -16t3 -8.5q-11 -10 -109.5 -80t-101.5 -70q-5 0 -9 4q-21 21 -53 27q-32 8 -51 8z" />
    <glyph glyph-name="egrave" unicode="&#xe8;" horiz-adv-x="800" 
d="M500 1499q1 -6 -6 -8t-50 -8l-92 -13l-26 140q-26 142 -25 143q3 6 47 6q33 0 47 -2q3 -1 53 -125.5t52 -132.5zM336 1174q-6 -12 -7 -34t-1 -141v-155l65 2q78 0 92 -2l27 -2v-213h-184v-363l10 -16q19 -32 53 -47h303l66 -97q58 -87 65 -102h-5q-4 -1 -17 -1.5
t-32.5 -1t-51 -0.5t-71.5 -0.5t-95 -0.5h-121h-395l2 518q2 285 2 717v199h387q379 -2 385 -7q-1 -1 -8 -14t-21.5 -38.5t-27.5 -47.5l-54 -94h-145q-104 2 -127.5 1t-36.5 -7q-39 -16 -57 -53z" />
    <glyph glyph-name="eacute" unicode="&#xe9;" horiz-adv-x="800" 
d="M494 1651q-10 -50 -41 -113q-8 -23 -29 -65q-19 5 -49 16q-65 26 -66 31v2l35 88q32 84 37 84q47 -14 113 -43zM336 1174q-6 -12 -7 -34t-1 -141v-155l65 2q78 0 92 -2l27 -2v-213h-184v-363l10 -16q19 -32 53 -47h303l66 -97q58 -87 65 -102h-5q-4 -1 -17 -1.5t-32.5 -1
t-51 -0.5t-71.5 -0.5t-95 -0.5h-121h-395l2 518q2 285 2 717v199h387q379 -2 385 -7q-1 -1 -8 -14t-21.5 -38.5t-27.5 -47.5l-54 -94h-145q-104 2 -127.5 1t-36.5 -7q-39 -16 -57 -53z" />
    <glyph glyph-name="ecircumflex" unicode="&#xea;" horiz-adv-x="800" 
d="M528 1718q8 0 -25 -77q-3 -8 -7 -17q-31 -85 -66 -143q-28 25 -78 82q-64 71 -73.5 83t-6.5 17q19 24 58 55q31 -18 86 -73q9 6 27.5 18t27.5 18q31 24 57 37zM336 1174q-6 -12 -7 -34t-1 -141v-155l65 2q78 0 92 -2l27 -2v-213h-184v-363l10 -16q19 -32 53 -47h303
l66 -97q58 -87 65 -102h-5q-4 -1 -17 -1.5t-32.5 -1t-51 -0.5t-71.5 -0.5t-95 -0.5h-121h-395l2 518q2 285 2 717v199h387q379 -2 385 -7q-1 -1 -8 -14t-21.5 -38.5t-27.5 -47.5l-54 -94h-145q-104 2 -127.5 1t-36.5 -7q-39 -16 -57 -53z" />
    <glyph glyph-name="edieresis" unicode="&#xeb;" horiz-adv-x="800" 
d="M518 1614q26 -20 23 -51q3 -42 -35 -62q-32 -14 -60 -2q-20 9 -30.5 28.5t-7.5 41.5q3 41 43 57q38 13 67 -12zM344 1628q49 -16 49 -67q0 -23 -13.5 -41.5t-35.5 -24.5q-16 -8 -39 0q-48 17 -45 64q0 35 25 57q25 19 59 12zM336 1174q-6 -12 -7 -34t-1 -141v-155l65 2
q78 0 92 -2l27 -2v-213h-184v-363l10 -16q19 -32 53 -47h303l66 -97q58 -87 65 -102h-5q-4 -1 -17 -1.5t-32.5 -1t-51 -0.5t-71.5 -0.5t-95 -0.5h-121h-395l2 518q2 285 2 717v199h387q379 -2 385 -7q-1 -1 -8 -14t-21.5 -38.5t-27.5 -47.5l-54 -94h-145q-104 2 -127.5 1
t-36.5 -7q-39 -16 -57 -53z" />
    <glyph glyph-name="igrave" unicode="&#xec;" horiz-adv-x="368" 
d="M283 1499q1 -6 -6 -8t-50 -8l-92 -13l-26 140q-26 142 -25 143q3 6 47 6q33 0 47 -2q3 -1 53 -125.5t52 -132.5zM328 1434v-1434h-287v1434h287z" />
    <glyph glyph-name="iacute" unicode="&#xed;" horiz-adv-x="368" 
d="M276 1651q-11 -53 -40 -113q-8 -23 -29 -65q-19 5 -49 16q-65 26 -66 31v2l35 88q32 84 37 84q44 -13 112 -43zM328 1434v-1434h-287v1434h287z" />
    <glyph glyph-name="icircumflex" unicode="&#xee;" horiz-adv-x="368" 
d="M311 1718q8 0 -25 -77q-3 -8 -7 -17q-31 -85 -66 -143q-28 25 -78 82q-64 71 -73.5 83t-6.5 17q19 24 58 55q31 -18 86 -73q9 6 27.5 18t27.5 18q31 24 57 37zM328 1434v-1434h-287v1434h287z" />
    <glyph glyph-name="idieresis" unicode="&#xef;" horiz-adv-x="368" 
d="M301 1614q26 -20 23 -51q3 -42 -35 -62q-32 -14 -60 -2q-20 9 -31 28.5t-8 41.5q3 41 43 57q39 14 68 -12zM127 1628q49 -16 49 -67q0 -23 -13.5 -41.5t-35.5 -24.5q-16 -8 -39 0q-48 17 -45 64q0 35 25 57q25 19 59 12zM328 1434v-1434h-287v1434h287z" />
    <glyph glyph-name="eth" unicode="&#xf0;" horiz-adv-x="985" 
d="M711 809q80 -78 124.5 -180.5t45.5 -214.5q3 -98 -43 -195q-43 -89 -123 -146t-178 -69q-47 -5 -105 -2q-181 19 -297 160q-25 56 -31 110q-14 93 29 175.5t127 123.5q93 41 199 35q31 -2 37.5 -3t7.5 -5l1 -6q1 -6 1 -12l12 -70q2 -8 2 -18q2 -6 0 -7.5t-14 -1.5
q-65 -2 -119.5 -36.5t-83.5 -92.5q-14 -25 -10 -61q0 -29 1.5 -37t8.5 -20q25 -51 84 -68q61 -12 119 6q88 30 133 121q8 18 8 88q0 28 -4 94q-19 84 -35 131q-28 70 -76 121l-22 25l-12 -6q-7 -2 -74 -33l-64 -31q-26 49 -34 70q24 12 53 26q55 23 55 27q-24 18 -55 24
q-17 7 -35 7h-22v45q0 45 -3 57q-2 11 6 14t44 4q110 3 204 -51l39 -20l27 12q104 46 109 51q29 -29 47 -59q-9 -9 -21 -12q-41 -16 -88 -45q3 -3 8 -8.5t9 -9.5t8 -7z" />
    <glyph glyph-name="eth" unicode="&#xe938;" horiz-adv-x="985" 
d="M711 809q80 -78 124.5 -180.5t45.5 -214.5q3 -98 -43 -195q-43 -89 -123 -146t-178 -69q-47 -5 -105 -2q-181 19 -297 160q-25 56 -31 110q-14 93 29 175.5t127 123.5q93 41 199 35q31 -2 37.5 -3t7.5 -5l1 -6q1 -6 1 -12l12 -70q2 -8 2 -18q2 -6 0 -7.5t-14 -1.5
q-65 -2 -119.5 -36.5t-83.5 -92.5q-14 -25 -10 -61q0 -29 1.5 -37t8.5 -20q25 -51 84 -68q61 -12 119 6q88 30 133 121q8 18 8 88q0 28 -4 94q-19 84 -35 131q-28 70 -76 121l-22 25l-12 -6q-7 -2 -74 -33l-64 -31q-26 49 -34 70q24 12 53 26q55 23 55 27q-24 18 -55 24
q-17 7 -35 7h-22v45q0 45 -3 57q-2 11 6 14t44 4q110 3 204 -51l39 -20l27 12q104 46 109 51q29 -29 47 -59q-9 -9 -21 -12q-41 -16 -88 -45q3 -3 8 -8.5t9 -9.5t8 -7z" />
    <glyph glyph-name="ntilde" unicode="&#xf1;" 
d="M682 1692l29 -4v-21q-1 -58 -42 -97.5t-98 -39.5q-64 0 -110 49q-2 2 -17 12q-7 0 -10 6q-21 14 -41 0q-19 -19 -22 -45q0 -9 -6 -11t-31 1q-34 5 -38 8t-3 23q6 70 57 121q35 24 74 18q38 -6 63 -41q38 -47 72 -47q40 0 55 57q3 9 6.5 11.5t16.5 3.5q17 0 45 -4z
M41 1434h289v-330l32 -31q7 -7 26.5 -24.5t48.5 -43.5t48 -44q17 -15 71 -63.5t69 -63.5l49 -46l2 324v322h287v-1434h-287v506l-29 22q-19 18 -252 220l-65 59l-2 -404v-403h-287v1434z" />
    <glyph glyph-name="ograve" unicode="&#xf2;" horiz-adv-x="1001" 
d="M600 1499q2 -6 -5 -8t-50 -8l-92 -13l-27 140q-26 142 -25 143q3 6 48 6q33 0 47 -2q3 -1 52.5 -125.5t51.5 -132.5zM545 1434q144 -3 259.5 -78t158.5 -207q12 -42 14 -98.5t2 -319.5q0 -251 -2.5 -318t-13.5 -108q-16 -62 -48 -111.5t-77.5 -83.5t-95 -57.5
t-113.5 -42.5q-55 -13 -127 -10q-63 -3 -125 6q-112 15 -200.5 85t-131.5 175q-15 46 -18 100.5t-4 340.5q0 286 2.5 344t15.5 100q46 126 154 197q160 92 350 86zM707 700q1 250 -1 308t-14 90q-20 62 -78 104q-67 39 -145 27q-72 -12 -120.5 -66.5t-53.5 -128.5
q-3 -27 0 -344l2 -319l10 -31q18 -66 76 -111q70 -42 152 -26q45 11 90 41q52 46 71 116q6 20 8 67t3 273z" />
    <glyph glyph-name="oacute" unicode="&#xf3;" horiz-adv-x="1001" 
d="M594 1651q-10 -50 -41 -113q-8 -23 -29 -65q-19 5 -49 16q-64 28 -65 33q0 3 34 88q32 84 37 84q47 -14 113 -43zM545 1434q144 -3 259.5 -78t158.5 -207q12 -42 14 -98.5t2 -319.5q0 -251 -2.5 -318t-13.5 -108q-16 -62 -48 -111.5t-77.5 -83.5t-95 -57.5t-113.5 -42.5
q-55 -13 -127 -10q-63 -3 -125 6q-112 15 -200.5 85t-131.5 175q-15 46 -18 100.5t-4 340.5q0 286 2.5 344t15.5 100q46 126 154 197q160 92 350 86zM707 700q1 250 -1 308t-14 90q-20 62 -78 104q-67 39 -145 27q-72 -12 -120.5 -66.5t-53.5 -128.5q-3 -27 0 -344l2 -319
l10 -31q18 -66 76 -111q70 -42 152 -26q45 11 90 41q52 46 71 116q6 20 8 67t3 273z" />
    <glyph glyph-name="ocircumflex" unicode="&#xf4;" horiz-adv-x="1001" 
d="M629 1718q2 -1 2.5 -3t-3.5 -13.5t-11 -28.5t-21 -49q-31 -85 -66 -143q-25 21 -77 82q-64 71 -73.5 83t-6.5 17q21 26 57 55q31 -18 86 -73q9 6 27.5 18t27.5 18q29 22 58 37zM545 1434q144 -3 259.5 -78t158.5 -207q12 -42 14 -98.5t2 -319.5q0 -251 -2.5 -318
t-13.5 -108q-16 -62 -48 -111.5t-77.5 -83.5t-95 -57.5t-113.5 -42.5q-55 -13 -127 -10q-63 -3 -125 6q-112 15 -200.5 85t-131.5 175q-15 46 -18 100.5t-4 340.5q0 286 2.5 344t15.5 100q46 126 154 197q160 92 350 86zM707 700q1 250 -1 308t-14 90q-20 62 -78 104
q-67 39 -145 27q-72 -12 -120.5 -66.5t-53.5 -128.5q-3 -27 0 -344l2 -319l10 -31q18 -66 76 -111q70 -42 152 -26q45 11 90 41q52 46 71 116q6 20 8 67t3 273z" />
    <glyph glyph-name="otilde" unicode="&#xf5;" horiz-adv-x="1001" 
d="M682 1692l29 -4v-21q-1 -58 -42 -97.5t-98 -39.5q-64 0 -110 49q-2 2 -17 12q-7 0 -10 6q-21 14 -41 0q-19 -19 -22 -45q0 -9 -6 -11t-31 1q-34 5 -38 8t-3 23q6 70 57 121q35 24 74 18q38 -6 63 -41q38 -47 72 -47q40 0 55 57q3 9 6.5 11.5t16.5 3.5q17 0 45 -4z
M545 1434q144 -3 259.5 -78t158.5 -207q12 -42 14 -98.5t2 -319.5q0 -251 -2.5 -318t-13.5 -108q-16 -62 -48 -111.5t-77.5 -83.5t-95 -57.5t-113.5 -42.5q-55 -13 -127 -10q-63 -3 -125 6q-112 15 -200.5 85t-131.5 175q-15 46 -18 100.5t-4 340.5q0 286 2.5 344t15.5 100
q46 126 154 197q160 92 350 86zM707 700q1 250 -1 308t-14 90q-20 62 -78 104q-67 39 -145 27q-72 -12 -120.5 -66.5t-53.5 -128.5q-3 -27 0 -344l2 -319l10 -31q18 -66 76 -111q70 -42 152 -26q45 11 90 41q52 46 71 116q6 20 8 67t3 273z" />
    <glyph glyph-name="odieresis" unicode="&#xf6;" horiz-adv-x="1001" 
d="M618 1614q26 -20 23 -51q3 -42 -35 -62q-32 -14 -59 -2q-20 9 -31 28.5t-8 41.5q3 41 43 57q38 13 67 -12zM444 1628q23 -7 36.5 -25.5t13.5 -41.5t-14 -41.5t-36 -24.5q-15 -8 -38 0q-22 8 -34.5 25t-11.5 39q0 35 25 57q25 19 59 12zM545 1434q144 -3 259.5 -78
t158.5 -207q12 -42 14 -98.5t2 -319.5q0 -251 -2.5 -318t-13.5 -108q-16 -62 -48 -111.5t-77.5 -83.5t-95 -57.5t-113.5 -42.5q-55 -13 -127 -10q-63 -3 -125 6q-112 15 -200.5 85t-131.5 175q-15 46 -18 100.5t-4 340.5q0 286 2.5 344t15.5 100q46 126 154 197
q160 92 350 86zM707 700q1 250 -1 308t-14 90q-20 62 -78 104q-67 39 -145 27q-72 -12 -120.5 -66.5t-53.5 -128.5q-3 -27 0 -344l2 -319l10 -31q18 -66 76 -111q70 -42 152 -26q45 11 90 41q52 46 71 116q6 20 8 67t3 273z" />
    <glyph glyph-name="divide" unicode="&#xf7;" horiz-adv-x="626" 
d="M272 696q-34 14 -49 43q-13 17 -10 39q-2 27 12.5 47.5t38.5 26.5q28 12 53 0q42 -12 58 -53q17 -52 -23 -88q-38 -30 -80 -15zM524 612v-163l-207 -3q-112 -6 -211 5q-7 50 -2 86v81h209l209 3zM248 367q25 22 59 22q36 0 62 -24.5t26 -59.5t-33 -61q-35 -21 -69 -6
q-23 3 -39 22q-25 22 -25 55q-3 30 19 52z" />
    <glyph glyph-name="divide" unicode="&#xe929;" horiz-adv-x="626" 
d="M272 696q-34 14 -49 43q-13 17 -10 39q-2 27 12.5 47.5t38.5 26.5q28 12 53 0q42 -12 58 -53q17 -52 -23 -88q-38 -30 -80 -15zM524 612v-163l-207 -3q-112 -6 -211 5q-7 50 -2 86v81h209l209 3zM248 367q25 22 59 22q36 0 62 -24.5t26 -59.5t-33 -61q-35 -21 -69 -6
q-23 3 -39 22q-25 22 -25 55q-3 30 19 52z" />
    <glyph glyph-name="oslash" unicode="&#xf8;" horiz-adv-x="1001" 
d="M764 1378q27 -12 51 -30q27 -10 27 -13q4 0 0 -8q87 -74 121 -178q12 -42 14 -98.5t2 -319.5q0 -251 -2.5 -318t-13.5 -108q-16 -62 -48 -111.5t-77.5 -83.5t-95 -57.5t-113.5 -42.5q-55 -13 -127 -10q-51 -3 -113 4q-6 -6 -10 -6l-35 14q-78 18 -145 64q-39 16 -39 18
q0 4 2 10q-74 63 -117 162q-15 46 -18 100.5t-4 340.5q0 286 2.5 344t15.5 100q46 126 154 197q160 92 350 86q116 -3 219 -56zM297 510q8 23 24.5 71.5t20.5 63.5q20 56 62.5 181t48.5 143q15 37 18 53q5 18 8 25q5 7 62 182q-35 6 -72 0q-72 -12 -120.5 -66.5
t-53.5 -128.5q-3 -27 0 -344zM707 700v228q-15 -46 -25 -66q-5 -12 -24 -66.5t-23 -70.5q-3 -14 -8 -23q-2 -4 -25 -71q-50 -146 -61 -176q-7 -22 -64 -189q-4 -10 -11 -31.5t-11 -31.5q40 -9 80 0q45 11 90 41q52 46 71 116q6 20 8 67t3 273z" />
    <glyph glyph-name="ugrave" unicode="&#xf9;" horiz-adv-x="1083" 
d="M641 1499q1 -6 -5.5 -8t-49.5 -8l-92 -13l-27 140q-26 142 -25 143q3 6 47 6q34 0 48 -2q3 -1 52.5 -125.5t51.5 -132.5zM762 1430l119 2q108 0 143 -5l29 -2v-505q0 -382 -3 -473.5t-14 -137.5q-23 -78 -77.5 -141t-129.5 -98q-179 -84 -378 -66q-16 0 -66 10
q-117 19 -208.5 95t-129.5 188q-12 46 -14 125t-2 493v515l16 2q18 2 138.5 2.5t129.5 -2.5q16 -267 4 -514q0 -499 9 -543q10 -60 51 -104.5t100 -61.5q55 -9 109 0q60 13 104.5 56.5t61.5 103.5l8 24v1037z" />
    <glyph glyph-name="uacute" unicode="&#xfa;" horiz-adv-x="1083" 
d="M635 1651q-10 -50 -41 -113q-8 -23 -29 -65q-19 5 -49 16q-64 28 -65 33q0 3 34 88q32 84 37 84q47 -14 113 -43zM762 1430l119 2q108 0 143 -5l29 -2v-505q0 -382 -3 -473.5t-14 -137.5q-23 -78 -77.5 -141t-129.5 -98q-179 -84 -378 -66q-16 0 -66 10
q-117 19 -208.5 95t-129.5 188q-12 46 -14 125t-2 493v515l16 2q18 2 138.5 2.5t129.5 -2.5q16 -267 4 -514q0 -499 9 -543q10 -60 51 -104.5t100 -61.5q55 -9 109 0q60 13 104.5 56.5t61.5 103.5l8 24v1037z" />
    <glyph glyph-name="ucircumflex" unicode="&#xfb;" horiz-adv-x="1083" 
d="M670 1718q2 -1 2.5 -3t-3.5 -13.5t-11 -28.5t-21 -49q-31 -85 -66 -143q-25 21 -77 82q-64 71 -73.5 83t-6.5 17q21 26 57 55q31 -18 86 -73q9 6 27.5 18t27.5 18q29 22 58 37zM762 1430l119 2q108 0 143 -5l29 -2v-505q0 -382 -3 -473.5t-14 -137.5q-23 -78 -77.5 -141
t-129.5 -98q-179 -84 -378 -66q-16 0 -66 10q-117 19 -208.5 95t-129.5 188q-12 46 -14 125t-2 493v515l16 2q18 2 138.5 2.5t129.5 -2.5q16 -267 4 -514q0 -499 9 -543q10 -60 51 -104.5t100 -61.5q55 -9 109 0q60 13 104.5 56.5t61.5 103.5l8 24v1037z" />
    <glyph glyph-name="udieresis" unicode="&#xfc;" horiz-adv-x="1083" 
d="M659 1614q26 -20 23 -51q3 -42 -35 -62q-32 -14 -59 -2q-20 9 -31 28.5t-8 41.5q3 41 43 57q38 13 67 -12zM485 1628q23 -7 36.5 -25.5t13.5 -41.5t-14 -41.5t-36 -24.5q-16 -8 -39 0q-48 17 -45 64q0 35 25 57q25 19 59 12zM762 1430l119 2q108 0 143 -5l29 -2v-505
q0 -382 -3 -473.5t-14 -137.5q-23 -78 -77.5 -141t-129.5 -98q-179 -84 -378 -66q-16 0 -66 10q-117 19 -208.5 95t-129.5 188q-12 46 -14 125t-2 493v515l16 2q18 2 138.5 2.5t129.5 -2.5q16 -267 4 -514q0 -499 9 -543q10 -60 51 -104.5t100 -61.5q55 -9 109 0
q60 13 104.5 56.5t61.5 103.5l8 24v1037z" />
    <glyph glyph-name="yacute" unicode="&#xfd;" horiz-adv-x="1136" 
d="M662 1651q-10 -50 -41 -113q-8 -23 -29 -65q-19 5 -49 16q-65 26 -66 31v2l35 88q32 84 37 84q47 -14 113 -43zM152 1016q-116 160 -138 182q-23 29 -43 62q0 4 112.5 90t115.5 84q1 0 61 -82q26 -34 100 -140q202 -282 209 -278q1 1 32.5 43.5t80.5 109.5t86 119
q73 99 88 121q34 48 49 66q5 6 11 15t10 14.5t6 7.5q4 5 32 -16l74 -56q125 -94 125 -98q-2 -4 -24 -37q-57 -73 -207 -279l-223 -305l4 -639h-287v643l-113 154q-33 44 -90.5 123.5t-70.5 95.5z" />
    <glyph glyph-name="thorn" unicode="&#xfe;" horiz-adv-x="993" 
d="M852 772q55 -108 32.5 -226t-112.5 -196q-152 -146 -364 -168l-46 -6v-178h-258v717l-2 715l107 2q109 4 127 0l18 -2v-390l35 -2q143 -3 266.5 -74t196.5 -192zM651 600q9 46 -31.5 88t-121.5 70q-65 21 -131 30l-13 3v-185q0 -134 1 -158t5 -24q86 11 181.5 60.5
t109.5 115.5z" />
    <glyph glyph-name="thorn" unicode="&#xe936;" horiz-adv-x="993" 
d="M852 772q55 -108 32.5 -226t-112.5 -196q-152 -146 -364 -168l-46 -6v-178h-258v717l-2 715l107 2q109 4 127 0l18 -2v-390l35 -2q143 -3 266.5 -74t196.5 -192zM651 600q9 46 -31.5 88t-121.5 70q-65 21 -131 30l-13 3v-185q0 -134 1 -158t5 -24q86 11 181.5 60.5
t109.5 115.5z" />
    <glyph glyph-name="ydieresis" unicode="&#xff;" horiz-adv-x="1136" 
d="M686 1614q26 -20 23 -51q3 -42 -35 -62q-32 -14 -60 -2q-20 9 -31 28.5t-8 41.5q3 41 43 57q39 14 68 -12zM512 1628q49 -16 49 -67q0 -23 -13.5 -41.5t-35.5 -24.5q-16 -8 -39 0q-48 17 -45 64q0 35 25 57q25 19 59 12zM152 1016q-116 160 -138 182q-23 29 -43 62
q0 4 112.5 90t115.5 84q1 0 61 -82q26 -34 100 -140q202 -282 209 -278q1 1 32.5 43.5t80.5 109.5t86 119q73 99 88 121q34 48 49 66q5 6 11 15t10 14.5t6 7.5q4 5 32 -16l74 -56q125 -94 125 -98q-2 -4 -24 -37q-57 -73 -207 -279l-223 -305l4 -639h-287v643l-113 154
q-33 44 -90.5 123.5t-70.5 95.5z" />
    <glyph glyph-name="Dcroat" unicode="&#x110;" horiz-adv-x="1085" 
d="M211 2l-170 -2v571q-6 1 -18.5 2t-18.5 2q-7 49 -2 87v79h39v693h154q168 12 340 -27q147 -40 278 -135q73 -60 127 -125q107 -131 138 -297.5t-23 -327.5q-63 -195 -231.5 -332.5t-374.5 -173.5l-70 -14h-168zM328 1135v-392h92v-8q2 -4 2 -86l-2 -78h-92v-295h12
q18 0 43 7q161 24 283 137q103 85 135.5 213.5t-17.5 251.5q-56 103 -153 168t-213 75q-35 7 -62 7h-28z" />
    <glyph glyph-name="dcroat" unicode="&#x111;" horiz-adv-x="1085" 
d="M389 1430q177 -10 331.5 -98t254.5 -234q100 -148 111.5 -326t-68.5 -338q-84 -168 -241 -279t-347 -141q-118 -20 -248 -14h-141v612q-4 0 -12.5 1t-12.5 1q-7 48 -2 86v80h27v654h154q148 0 194 -4zM709 463h-2q108 117 108 278q0 74 -29 136q-58 125 -173.5 190
t-260.5 68h-24v-353h104v-8q2 -4 2 -86l-2 -78h-104v-336l22 2q7 0 27.5 3.5t23.5 3.5q101 28 173 68.5t135 111.5z" />
    <glyph glyph-name="Lslash" unicode="&#x141;" horiz-adv-x="739" 
d="M762 236v-236h-721v571q-6 1 -18.5 2t-18.5 2q-7 49 -2 87v79h39v693h287v-691h92v-8q2 -4 2 -86l-2 -78h-92v-340z" />
    <glyph glyph-name="lslash" unicode="&#x142;" horiz-adv-x="739" 
d="M41 2v569q-6 1 -18.5 2t-18.5 2q-7 49 -2 87v79h39v693h287v-691h92v-8q2 -4 2 -86l-2 -78h-92v-338h434v-231h-721z" />
    <glyph glyph-name="OE" unicode="&#x152;" horiz-adv-x="1699" 
d="M37 291q-9 41 -11.5 110.5t-2.5 323.5q0 275 2.5 329.5t17.5 98.5q52 136 164.5 200t271.5 79q117 9 224.5 -30.5t177.5 -115.5v148h776l-8 -15q-1 -3 -10 -17.5t-22.5 -38t-25.5 -44.5l-49 -86h-145q-146 0 -164 -6q-36 -14 -59 -56q-5 -11 -6 -35.5t-1 -136.5v-155h140
q66 6 141 -4q-17 -51 -43 -109l-45 -102l-96 -2h-97v-361l11 -16q18 -26 53 -47q6 -2 158 -2l145 2l68 -101l67 -100q0 -4 -397 0h-395v143q-77 -82 -246 -135q-67 -16 -131 -10q-74 -4 -123 6q-119 17 -212 94.5t-128 190.5zM301 1069q-6 -20 -6.5 -63.5t0.5 -288.5
q0 -257 2 -306.5t12 -78.5q15 -51 55.5 -86.5t92.5 -42.5q50 -6 100 6q35 10 74 41q50 47 65 108q6 20 8 67.5t3 274.5q1 249 -1 306.5t-14 89.5q-25 76 -96 114q-52 22 -107 19q-75 -3 -129 -60q-44 -41 -59 -100z" />
    <glyph glyph-name="oe" unicode="&#x153;" horiz-adv-x="1665" 
d="M545 1434q190 -7 313 -121v121h387q379 -2 385 -7q-1 -1 -8 -14t-21.5 -38.5t-27.5 -47.5l-53 -94h-146q-104 2 -127.5 1t-36.5 -7q-39 -16 -57 -53q-6 -12 -7 -34t-1 -141v-155l65 2q79 0 93 -2l26 -2v-213h-184v-363l10 -16q19 -32 53 -47h303l66 -97q58 -87 65 -102
h-4q-5 -1 -18 -1.5t-32.5 -1t-51 -0.5t-71.5 -0.5t-95 -0.5h-121h-395v123q-75 -70 -225 -113q-55 -13 -127 -10q-63 -3 -125 6q-112 15 -200.5 85t-131.5 175q-15 46 -18 100.5t-4 340.5q0 286 2.5 344t15.5 100q46 126 154 197q160 92 350 86zM707 700q1 250 -1 308
t-14 90q-20 62 -78 104q-67 39 -145 27q-72 -12 -120.5 -66.5t-53.5 -128.5q-3 -27 0 -344l2 -319l10 -31q18 -66 76 -111q70 -42 152 -26q45 11 90 41q52 46 71 116q6 20 8 67t3 273z" />
    <glyph glyph-name="Scaron" unicode="&#x160;" horiz-adv-x="817" 
d="M537 1534q5 -9 0 -14q-24 -30 -58 -54q-8 5 -43 35l-41 37q-18 -9 -57 -35q-29 -23 -55 -37q-4 0 -4 4q0 12 43.5 111t56.5 123q3 0 75 -77.5t83 -92.5zM528 1047q0 2 3 6.5t4 5.5q10 13 10 28q3 21 -10 41q-18 40 -62 60q-23 13 -49 10q-42 6 -72 -27q-33 -29 -30 -77
q-3 -27 10 -50q3 -7 84 -120q39 -53 131 -174l55 -74q1 -1 82 -109q51 -78 90 -172q26 -103 -19.5 -199.5t-140.5 -142.5q-50 -31 -118 -47q-40 -6 -84 -6q-140 0 -248 73.5t-150 205.5q-13 48 -8 88q-6 46 10 92q13 44 47 86q7 10 10.5 11.5t10.5 -1.5q5 -3 58.5 -35
t105 -63t53.5 -33q3 -3 -8 -14q-37 -46 -10 -101q25 -42 67 -65q25 -14 49 -11q42 -3 72 27q34 27 31 74q3 28 -15 57q-107 167 -247 344q-124 136 -191 305q-22 86 8 168t101 135q99 83 223 89q89 7 172.5 -22t148.5 -91q77 -74 101 -168q17 -85 2 -176q-7 -28 -13 -38.5
t-12 -8.5q-1 1 -15 7t-40.5 18t-50.5 24q-99 45 -123 57q-13 3 -23 13z" />
    <glyph glyph-name="scaron" unicode="&#x161;" horiz-adv-x="817" 
d="M537 1534q5 -9 0 -14q-24 -30 -58 -54q-8 5 -43 35l-41 37q-18 -9 -57 -35q-29 -23 -55 -37q-4 0 -4 4q0 12 43.5 111t56.5 123q3 0 75 -77.5t83 -92.5zM526 1047l9 16q10 17 10 33q-5 31 -24.5 56.5t-49.5 37.5q-21 12 -47 12q-34 1 -62.5 -19.5t-37.5 -52.5
q-10 -47 4 -81q17 -29 59 -86q92 -124 96 -129l135 -181q3 0 33 -43q86 -111 131 -250q13 -111 -51 -200q-89 -124 -244 -156q-83 -9 -159 2q-77 11 -156 60q-159 120 -170 286q-3 64 16 115q10 32 30.5 62t29.5 28q6 -3 111.5 -66t109.5 -67q1 0 1 -2t-2 -5.5t-5 -6.5
q-38 -45 -10 -103q25 -41 69 -65q21 -12 49 -9q24 -6 48 11q28 15 42 42t11 58q-1 26 -23 62.5t-88 128.5q-26 35 -78 104.5t-55 73.5q-84 106 -90 114q-78 105 -119 215q-22 76 2 153.5t84 131.5q77 74 176 98q47 12 95 9q81 3 149 -23q73 -23 131 -74t92 -120
q36 -67 33 -140q4 -48 -4 -82q-4 -26 -11 -46.5t-12 -20.5q-6 0 -98 45q-118 55 -127 59z" />
    <glyph glyph-name="Ydieresis" unicode="&#x178;" horiz-adv-x="1136" 
d="M686 1614q26 -20 23 -51q3 -42 -35 -62q-32 -14 -60 -2q-20 9 -31 28.5t-8 41.5q3 41 43 57q39 14 68 -12zM512 1628q49 -16 49 -67q0 -23 -13.5 -41.5t-35.5 -24.5q-16 -8 -39 0q-48 17 -45 64q0 35 25 57q25 19 59 12zM387 694q-67 91 -149.5 203.5t-136 185.5
t-60.5 82q-28 35 -70 95q0 1 49 39.5t105 81t70 51.5q4 3 13.5 -7t41.5 -55q294 -413 315 -434q121 136 209 274q158 222 164 222q26 -13 47 -31q13 -9 53.5 -40.5t59.5 -45.5q33 -21 67 -55q-10 -20 -22 -35q-33 -41 -230 -307q-119 -165 -180 -246l-22 -31v-641h-287v645z
" />
    <glyph glyph-name="Zcaron" unicode="&#x17d;" horiz-adv-x="925" 
d="M590 1534q5 -9 0 -14q-24 -30 -58 -54q-8 5 -43 35l-40 37q-22 -11 -58 -35q-29 -23 -55 -37q-4 0 -4 4q0 12 43.5 111t56.5 123q3 0 75 -77.5t83 -92.5zM287 1190l-289 4l-2 236h61q242 0 459 2l397 2l9 -9q6 -8 7.5 -17t2.5 -60q6 -72 -21 -140q-12 -27 -184 -319
l-383 -649q0 -2 166 -2h213q166 0 166 -2v-99q-2 -70 -3 -84t-7 -24q-9 -14 -23 -23q-9 -4 -62.5 -5t-340.5 -1t-341 1t-63 5q-20 11 -26.5 35.5t-6.5 91.5q0 72 9 95t84 153q134 228 180 309q25 48 53 90q5 7 49 86q29 49 66.5 112.5t62.5 106t27 45.5q19 29 31 58h-8
q-8 0 -22.5 0.5t-34 0.5h-45.5t-53.5 0.5t-61 0.5h-66.5z" />
    <glyph glyph-name="zcaron" unicode="&#x17e;" horiz-adv-x="925" 
d="M590 1534q5 -9 0 -14q-24 -30 -58 -54q-8 5 -43 35l-40 37q-22 -11 -58 -35q-29 -23 -55 -37q-4 0 -4 4q0 12 43.5 111t56.5 123q3 0 75 -77.5t83 -92.5zM-4 1315v115l133 2q24 0 191 1t270 1h184.5t96.5 -1t41.5 -2t9.5 -4q7 -5 8.5 -15.5t1.5 -57.5q6 -54 -8 -103
q-4 -17 -17 -51q-16 -32 -256 -438l-307 -522q123 -2 270 -2q273 0 275 -2v-97l-2 -96l-8 -16q-1 -2 -3 -5q-9 -17 -52 -19.5t-292 -2.5h-79q-281 0 -336 1t-64 5q-20 10 -30 39q-12 90 0 176q55 120 129 234l106 184q21 37 98 168t131 225q32 52 50 83t27 47.5t11 22t0 7.5
q-128 2 -284 2q-287 0 -289 2q-4 1 -5 19.5t-1 99.5z" />
    <glyph glyph-name="circumflex" unicode="&#x2c6;" horiz-adv-x="464" 
d="M360 1718q8 0 -25 -77q-3 -8 -7 -17q-31 -85 -66 -143q-28 25 -78 82q-64 71 -73.5 83t-6.5 17q19 24 58 55q31 -18 86 -73q9 6 27.5 18t27.5 18q31 24 57 37z" />
    <glyph glyph-name="circumflex" unicode="&#xe931;" horiz-adv-x="464" 
d="M360 1718q8 0 -25 -77q-3 -8 -7 -17q-31 -85 -66 -143q-28 25 -78 82q-64 71 -73.5 83t-6.5 17q19 24 58 55q31 -18 86 -73q9 6 27.5 18t27.5 18q31 24 57 37z" />
    <glyph glyph-name="caron" unicode="&#x2c7;" horiz-adv-x="464" 
d="M360 1534q5 -9 0 -14q-26 -32 -57 -54q-8 5 -43 35l-41 37q-18 -9 -57 -35q-26 -21 -56 -37q-4 0 -4 4q0 12 44 111t57 123q3 0 74.5 -77.5t82.5 -92.5z" />
    <glyph glyph-name="caron" unicode="&#xe92f;" horiz-adv-x="464" 
d="M360 1534q5 -9 0 -14q-26 -32 -57 -54q-8 5 -43 35l-41 37q-18 -9 -57 -35q-26 -21 -56 -37q-4 0 -4 4q0 12 44 111t57 123q3 0 74.5 -77.5t82.5 -92.5z" />
    <glyph glyph-name="breve" unicode="&#x2d8;" horiz-adv-x="636" 
d="M526 1622l9 -12l-17 -27q-35 -57 -96.5 -84t-128.5 -16q-65 9 -128 41t-63 57q0 26 21 48t43 18q6 -2 18 -10t13 -9q58 -49 137 -43q66 0 108 51q6 9 10 11t19 2q35 3 55 -27z" />
    <glyph glyph-name="breve" unicode="&#xe92a;" horiz-adv-x="636" 
d="M526 1622l9 -12l-17 -27q-35 -57 -96.5 -84t-128.5 -16q-65 9 -128 41t-63 57q0 26 21 48t43 18q6 -2 18 -10t13 -9q58 -49 137 -43q66 0 108 51q6 9 10 11t19 2q35 3 55 -27z" />
    <glyph glyph-name="dotaccent" unicode="&#x2d9;" horiz-adv-x="364" 
d="M182 1636q32 1 55 -21t23 -54q3 -20 -5.5 -40t-25.5 -32q-38 -26 -77 -12q-30 17 -41 39q-14 33 -5 69q9 24 29.5 38t46.5 13z" />
    <glyph glyph-name="ring" unicode="&#x2da;" horiz-adv-x="473" 
d="M291 1729q33 -15 54 -45.5t24 -67.5q4 -44 -18 -82t-62 -57q-48 -20 -90 -9q-38 10 -62 37q-35 38 -36.5 92t30.5 95q23 29 64 45q49 15 96 -8zM246 1589q17 10 10 27q-3 16 -23 16q-9 -2 -16 -8.5t-8 -15.5q0 -10 10 -17q3 -6 12 -6q11 0 15 4z" />
    <glyph glyph-name="ring" unicode="&#xe92b;" horiz-adv-x="473" 
d="M291 1729q33 -15 54 -45.5t24 -67.5q4 -44 -18 -82t-62 -57q-48 -20 -90 -9q-38 10 -62 37q-35 38 -36.5 92t30.5 95q23 29 64 45q49 15 96 -8zM246 1589q17 10 10 27q-3 16 -23 16q-9 -2 -16 -8.5t-8 -15.5q0 -10 10 -17q3 -6 12 -6q11 0 15 4z" />
    <glyph glyph-name="ring" unicode="&#x2030;" horiz-adv-x="473" 
d="M291 1729q33 -15 54 -45.5t24 -67.5q4 -44 -18 -82t-62 -57q-48 -20 -90 -9q-38 10 -62 37q-35 38 -36.5 92t30.5 95q23 29 64 45q49 15 96 -8zM246 1589q17 10 10 27q-3 16 -23 16q-9 -2 -16 -8.5t-8 -15.5q0 -10 10 -17q3 -6 12 -6q11 0 15 4z" />
    <glyph glyph-name="ogonek" unicode="&#x2db;" horiz-adv-x="446" 
d="M332 -137q27 -3 3 -20q-3 -3 -7 -5q-36 -31 -82 -28q-16 -2 -45 2q-40 11 -68.5 46t-28.5 76q-3 43 17 80.5t55 57.5q15 9 19 10t10 -4q26 -20 71 -68q-4 -16 -10 -22q-18 -30 -18 -68q3 -23 26.5 -38.5t57.5 -18.5z" />
    <glyph glyph-name="ogonek" unicode="&#xe92e;" horiz-adv-x="446" 
d="M332 -137q27 -3 3 -20q-3 -3 -7 -5q-36 -31 -82 -28q-16 -2 -45 2q-40 11 -68.5 46t-28.5 76q-3 43 17 80.5t55 57.5q15 9 19 10t10 -4q26 -20 71 -68q-4 -16 -10 -22q-18 -30 -18 -68q3 -23 26.5 -38.5t57.5 -18.5z" />
    <glyph glyph-name="tilde" unicode="&#x2dc;" horiz-adv-x="622" 
d="M492 1692l28 -4v-21q-1 -58 -41.5 -97.5t-97.5 -39.5q-65 0 -111 49q-4 4 -16 12q-7 0 -10 6q-20 14 -41 0q-20 -20 -23 -45q0 -9 -6 -11t-31 1q-34 5 -38 8t-3 23q6 69 58 121q35 24 73 18q39 -6 64 -41q38 -47 72 -47q40 0 55 57q3 9 6 11.5t16 3.5q18 0 46 -4z" />
    <glyph glyph-name="tilde" unicode="&#xe906;" horiz-adv-x="622" 
d="M492 1692l28 -4v-21q-1 -58 -41.5 -97.5t-97.5 -39.5q-65 0 -111 49q-4 4 -16 12q-7 0 -10 6q-20 14 -41 0q-20 -20 -23 -45q0 -9 -6 -11t-31 1q-34 5 -38 8t-3 23q6 69 58 121q35 24 73 18q39 -6 64 -41q38 -47 72 -47q40 0 55 57q3 9 6 11.5t16 3.5q18 0 46 -4z" />
    <glyph glyph-name="hungarumlaut" unicode="&#x2dd;" horiz-adv-x="692" 
d="M223 1786q3 0 65.5 -29.5t65.5 -32.5q3 -1 -55.5 -122t-62.5 -125q-1 -3 -5.5 -2.5t-17.5 5.5t-47 21q-61 26 -64 29t50 117q66 138 71 139zM387 1642q21 40 49.5 62.5t53 28t48 3t36.5 -7.5t16 -8q2 -2 -57.5 -123t-63.5 -124q-5 -2 -10 0t-58 24q-14 6 -29.5 13.5
t-24 11.5t-9.5 4q17 51 49 116z" />
    <glyph glyph-name="hungarumlaut" unicode="&#xe92d;" horiz-adv-x="692" 
d="M223 1786q3 0 65.5 -29.5t65.5 -32.5q3 -1 -55.5 -122t-62.5 -125q-1 -3 -5.5 -2.5t-17.5 5.5t-47 21q-61 26 -64 29t50 117q66 138 71 139zM387 1642q21 40 49.5 62.5t53 28t48 3t36.5 -7.5t16 -8q2 -2 -57.5 -123t-63.5 -124q-5 -2 -10 0t-58 24q-14 6 -29.5 13.5
t-24 11.5t-9.5 4q17 51 49 116z" />
    <glyph glyph-name="quoteleft" unicode="&#x2018;" horiz-adv-x="405" 
d="M205 1503q-42 0 -73.5 30.5t-31.5 72.5q2 30 18.5 55.5t43.5 38.5q42 13 78 8q16 -3 4 -27l-8 -16l14 -6q32 -13 45 -45q13 -33 -2 -64q-30 -47 -88 -47z" />
    <glyph glyph-name="quoteright" unicode="&#x2019;" horiz-adv-x="405" 
d="M199 1700q42 0 73 -30.5t31 -72.5q-2 -30 -18 -55.5t-43 -38.5q-42 -13 -78 -8q-16 3 -4 27l8 16l-14 6q-32 13 -45 45q-13 33 2 64q30 47 88 47z" />
    <glyph glyph-name="quotesinglbase" unicode="&#x201a;" horiz-adv-x="399" 
d="M213 195q52 -19 74 -70q22 -49 0 -98q-20 -44 -58 -64q-26 -13 -55 -10l-12 4q-8 2 -8.5 7t6.5 24l10 18l-16 8q-31 17 -44.5 50t-3.5 67q10 33 41.5 51.5t65.5 12.5z" />
    <glyph glyph-name="quotedblleft" unicode="&#x201c;" horiz-adv-x="634" 
d="M434 1497q-43 0 -74 29.5t-32 72.5q7 68 63 95q42 13 78 8q16 -3 4 -27l-8 -16l14 -6q32 -13 45 -45q13 -33 -2 -64q-30 -47 -88 -47zM207 1497q-43 0 -74.5 29.5t-32.5 72.5q2 29 19 55.5t45 39.5q35 11 76 8q16 -3 4 -27l-6 -16l14 -6q32 -13 45 -45q13 -33 -2 -64
q-30 -47 -88 -47z" />
    <glyph glyph-name="quotedblright" unicode="&#x201d;" horiz-adv-x="634" 
d="M199 1694q43 0 73.5 -30t32.5 -73q-7 -67 -63 -94q-42 -13 -78 -8q-16 3 -4 27l8 16l-14 6q-32 13 -45 45q-13 33 2 64q30 47 88 47zM426 1694q43 0 73.5 -30t32.5 -73q-2 -29 -18.5 -55t-44.5 -39q-35 -11 -76 -8q-16 3 -4 27l6 16l-14 6q-32 13 -45 45q-13 33 2 64
q30 47 88 47z" />
    <glyph glyph-name="quotedblbase" unicode="&#x201e;" horiz-adv-x="471" 
d="M152 195q51 -19 73 -70q22 -49 0 -98q-20 -45 -57 -64q-26 -13 -55 -10q0 1 -2 1.5t-5.5 1t-5.5 1.5q-8 2 -8.5 7t6.5 24l11 18l-17 8q-31 17 -44 50t-3 67q10 33 41.5 51.5t65.5 12.5zM346 195q52 -19 74 -70q22 -49 0 -98q-20 -44 -58 -64q-26 -13 -55 -10l-12 4
q-8 2 -8.5 7t6.5 24l10 18l-16 8q-31 17 -44 50t-3 67q10 33 41 51.5t65 12.5z" />
    <glyph glyph-name="dagger" unicode="&#x2020;" horiz-adv-x="434" 
d="M340 731v-90h86v-8q2 -4 2 -86l-2 -78l-86 -33q2 -415 -4 -447q-2 -13 -12 -26q-22 -29 -58 -35q-20 -4 -96 -4l-76 -2v545q-40 0 -84 6q-7 48 -2 86v80h86v819q-2 25 -2 62v16h197l16 -10q34 -14 31 -51q0 -5 0.5 -102.5t1.5 -284.5t2 -357z" />
    <glyph glyph-name="daggerdbl" unicode="&#x2021;" horiz-adv-x="434" 
d="M426 571l2 -8v-164l-88 -24q1 -281 -1 -337.5t-12 -70.5q-2 -3 -3 -4q-22 -29 -58 -35q-20 -4 -96 -4l-76 -2v475q-26 0 -84 4q-7 50 -2 86v82h86v39q-26 0 -84 4q-7 50 -2 86v82h86v678q-2 25 -2 62v16h197l16 -10q34 -14 31 -51q0 -5 0.5 -94.5t1.5 -262.5t2 -336h86
l2 -8v-164h-88v-39h86z" />
    <glyph glyph-name="bullet" unicode="&#x2022;" horiz-adv-x="477" 
d="M381 776q36 -57 12 -131q-29 -71 -98 -94q-42 -13 -80 -2q-68 19 -107 78t-30 131q9 75 84 112q29 13 61 13q47 0 90 -31t68 -76z" />
    <glyph glyph-name="bullet" unicode="&#xe91f;" horiz-adv-x="477" 
d="M381 776q36 -57 12 -131q-29 -71 -98 -94q-42 -13 -80 -2q-68 19 -107 78t-30 131q9 75 84 112q29 13 61 13q47 0 90 -31t68 -76z" />
    <glyph glyph-name="ellipsis" unicode="&#x2026;" horiz-adv-x="1179" 
d="M219 197q32 -14 52 -43t20 -64q0 -58 -47 -84q-32 -13 -62 -4q-50 13 -69 61q-20 46 -2 87q15 34 47 47q31 9 61 0zM612 197q32 -14 52 -43t20 -64q0 -58 -47 -84q-32 -13 -62 -4q-50 13 -69 61q-20 46 -2 87q15 34 47 47q31 9 61 0zM1006 197q32 -14 51.5 -43t19.5 -64
q0 -58 -47 -84q-32 -13 -61 -4q-52 13 -70 61q-20 46 -2 87q15 34 47 47q31 9 62 0z" />
    <glyph glyph-name="fraction" unicode="&#x2044;" horiz-adv-x="888" 
d="M784 1335q7 -4 -22 -84q-121 -361 -137 -389q-5 -12 -24 -66.5t-23 -70.5q-2 -10 -9 -23q-1 -2 -4 -11.5t-9 -27.5t-11 -32q-35 -101 -62 -176q-79 -244 -143 -416q-4 -9 -8 -31q2 -2 -2.5 -6t-7.5 -4q-8 0 -111 47q-109 46 -109 49q-1 3 111 340q64 184 72 211
q20 58 62 182.5t48 141.5q17 42 19 53q4 18 8 25q10 19 80 237l47 143l31 -10q201 -76 204 -82z" />
    <glyph glyph-name="Euro" unicode="&#x20ac;" horiz-adv-x="1013" 
d="M901 1079q13 -40 10 -75q3 -38 -10 -78q-7 -22 -14 -31q-17 2 -49 14q-24 8 -84 32t-66 26q-27 9 -37 14q-8 2 -24 10q4 8 6 10q6 6 10 23q3 29 -28 56.5t-74 35.5q-31 5 -70 -8q-30 -15 -47 -49q-10 -38 2 -68q5 -8 113.5 -128t197.5 -214q55 -58 109 -141
q46 -59 37 -135q-25 -86 -91.5 -146t-154.5 -77l-33 -9v-67q-3 -70 -6 -70q-45 -4 -135 -4q-4 4 -4 70l-4 67h-11q-121 14 -211 76.5t-127 171.5q-9 49 0 102q18 58 64 101q51 -15 100 -43q23 -12 49 -25t44.5 -22t19.5 -9l18 -8l-10 -12q-20 -20 -20 -51q3 -34 32 -53
q38 -44 99 -41q55 3 92 53q16 31 0 63q-30 58 -82 107q-32 35 -97 104.5t-96 104.5q-81 77 -131 155q-32 35 -44 81.5t-3 94.5q37 88 112.5 145.5t170.5 67.5l27 5l-5 129h64l65 2v-133l25 -5q40 -7 66 -16q79 -20 141 -74t94 -129z" />
    <glyph glyph-name="Euro" unicode="&#xe915;" horiz-adv-x="1013" 
d="M901 1079q13 -40 10 -75q3 -38 -10 -78q-7 -22 -14 -31q-17 2 -49 14q-24 8 -84 32t-66 26q-27 9 -37 14q-8 2 -24 10q4 8 6 10q6 6 10 23q3 29 -28 56.5t-74 35.5q-31 5 -70 -8q-30 -15 -47 -49q-10 -38 2 -68q5 -8 113.5 -128t197.5 -214q55 -58 109 -141
q46 -59 37 -135q-25 -86 -91.5 -146t-154.5 -77l-33 -9v-67q-3 -70 -6 -70q-45 -4 -135 -4q-4 4 -4 70l-4 67h-11q-121 14 -211 76.5t-127 171.5q-9 49 0 102q18 58 64 101q51 -15 100 -43q23 -12 49 -25t44.5 -22t19.5 -9l18 -8l-10 -12q-20 -20 -20 -51q3 -34 32 -53
q38 -44 99 -41q55 3 92 53q16 31 0 63q-30 58 -82 107q-32 35 -97 104.5t-96 104.5q-81 77 -131 155q-32 35 -44 81.5t-3 94.5q37 88 112.5 145.5t170.5 67.5l27 5l-5 129h64l65 2v-133l25 -5q40 -7 66 -16q79 -20 141 -74t94 -129z" />
    <glyph glyph-name="trademark" unicode="&#x2122;" horiz-adv-x="600" 
d="M193 1665q57 2 66 2.5t28 -0.5q2 -59 2 -65q-3 -5 -23 -5h-20v-61q4 -37 -4 -66q-40 -6 -84 0q-4 42 -2 64v63h-27l-27 2l-2 31v33zM494 1618q0 -7 1 -40t1 -50v-60h-31q-23 0 -35 2q-6 3 -6 33t-2 30q-1 0 -3 -2l-1 -1q-6 -5 -9 -4.5t-12 6.5l-14 6v-33l-2 -32h-31
q-31 -2 -35 2q-6 90 0 176q18 -8 45 -27q44 -27 46 -27q16 13 34 27q34 27 41 27q10 0 13 -33z" />
    <glyph glyph-name="trademark" unicode="&#xe921;" horiz-adv-x="600" 
d="M193 1665q57 2 66 2.5t28 -0.5q2 -59 2 -65q-3 -5 -23 -5h-20v-61q4 -37 -4 -66q-40 -6 -84 0q-4 42 -2 64v63h-27l-27 2l-2 31v33zM494 1618q0 -7 1 -40t1 -50v-60h-31q-23 0 -35 2q-6 3 -6 33t-2 30q-1 0 -3 -2l-1 -1q-6 -5 -9 -4.5t-12 6.5l-14 6v-33l-2 -32h-31
q-31 -2 -35 2q-6 90 0 176q18 -8 45 -27q44 -27 46 -27q16 13 34 27q34 27 41 27q10 0 13 -33z" />
    <glyph glyph-name="minus" unicode="&#x2212;" horiz-adv-x="626" 
d="M522 633q2 -4 2 -86l-2 -78h-205q-102 -8 -211 4q-7 48 -2 86v80l209 2h209v-8z" />
    <glyph glyph-name="uniF000" unicode="&#xf000;" horiz-adv-x="1327" 
d="M283 326q11 50 45 188q3 9 8 39q-1 3 -10.5 -1t-22 -12.5t-22.5 -17.5q-62 -62 -91 -145q0 -11 -60 20l-7 4q-74 41 -92.5 53.5t-18.5 18.5q23 123 123 212.5t225 100.5q33 3 33 7q0 7 10 49.5t22.5 91.5t14.5 57q4 25 13 51q2 9 12.5 54t19 83.5t9.5 43.5q10 51 51 202
l2 13h375l12 -47q12 -54 18 -72q6 -21 43 -162q28 -116 92 -348q31 -121 60 -231q4 -17 16 -63t13 -48q74 -286 102 -381q20 -72 20 -82q0 -2 -151 -2h-152l-41 166q-58 230 -61 233q-2 2 -128.5 47.5t-131.5 45.5q-4 1 -6 -6q-5 -14 -39 -173q-5 -24 -21 -98t-22 -106
l-23 -109h-155q-74 -6 -158 4q0 1 3.5 15t9.5 40t11 50q34 144 50 215zM674 723q-1 -4 0 -5.5t8 -5.5t21 -8.5l42 -13.5q67 -24 78 -24q6 0 -6 43q-1 2 -17 65t-26 105q-8 31 -17 64.5t-13.5 50.5t-4.5 18q-1 3 -10 -35t-22 -103q-30 -144 -33 -151z" />
    <glyph glyph-name="uniF001" unicode="&#xf001;" horiz-adv-x="1224" 
d="M883 -37q-9 27 -117 453l-23 90l-120 2q-121 0 -121 -2q-7 -33 -15 -72q-51 -242 -69 -323l-23 -111h-155q-91 -4 -156 4q0 9 25 107q59 267 110 473q0 2 1 5.5t1 4.5l4 22q0 2 1 5.5t1 5.5q4 24 9 39q22 91 26 110q3 11 12.5 49.5t14.5 55.5q4 21 13 60.5t11 47.5
q38 145 56 232q10 59 49 204l4 13h373l12 -49q4 -12 11 -38t9 -32q2 -7 7 -27t14.5 -56.5t21.5 -78.5q5 -21 91 -350q31 -112 59 -229q13 -48 29 -113q6 -17 19 -68t17 -67q76 -294 97 -348q29 -79 100 -117q16 -8 25 -17q-29 -55 -64 -118q-41 -75 -54.5 -97t-19.5 -22
q-12 0 -28 8q-98 56 -165.5 145.5t-92.5 198.5zM678 713q11 0 11 3l-1 3q-2 9 -7 28.5t-15.5 62t-20.5 83.5q-28 112 -33 121q0 1 -4.5 -17.5t-12.5 -54.5t-15 -72l-31 -149q20 -4 59 -4q62 -4 70 -4z" />
    <glyph glyph-name="uniF002" unicode="&#xf002;" horiz-adv-x="1216" 
d="M377 2h-156q-91 -4 -155 4q0 9 24 107q97 415 111 471q8 40 8 43q5 30 8 39q4 18 10 39.5t9.5 37t7.5 33.5q35 118 51 213q3 10 5.5 22t4 20.5t2.5 10.5q1 5 12.5 51.5t20.5 84.5t10 43q9 54 49 202l4 13h373l12 -47q3 -10 7.5 -26.5t8 -28.5t5.5 -17q5 -24 41 -160
q7 -29 19 -74.5t33 -125t40 -150.5q11 -43 23 -89t20 -76t16 -64q13 -48 29 -113q6 -18 20 -71t17 -64q29 -170 109 -342q55 -99 155 -125q88 -9 162 43q20 10 23 10q8 -9 67 -107t59 -102q-36 -39 -86 -63q-115 -68 -249 -62q-168 22 -283 146q-86 83 -139.5 195t-71.5 235
q-33 125 -65 260l-23 88l-121 2q-121 0 -121 -2q-6 -33 -14 -72q-34 -160 -70 -323zM561 868q-31 -138 -31 -149h4q3 0 8.5 -0.5t12.5 -1t16.5 -0.5h18.5q62 -4 69 -4t10 1.5t1 4.5q-5 15 -43 172q-30 118 -33 121q0 1 -4.5 -17t-13 -54t-15.5 -73z" />
    <glyph glyph-name="uniF003" unicode="&#xf003;" horiz-adv-x="1157" 
d="M651 23q-10 -2 -36 -7t-33 -6q-110 -11 -236 -8h-211v602q0 602 -2 602q-25 -12 -54.5 -41.5t-49.5 -58.5q-6 -12 -15 -21q-4 0 -82 60q-75 58 -75 65q26 72 90.5 132.5t138.5 87.5l25 8h315q230 1 293.5 -1t97.5 -12q60 -19 101 -64.5t53 -105.5q17 -64 4 -137
q-12 -78 -60 -140.5t-120 -96.5q-6 -1 -25 -11q6 -4 18 -8t13 -4q90 -29 166 -80.5t129.5 -132t58.5 -172.5q9 -161 -133.5 -288t-370.5 -162zM406 1188q4 -28 4 -115v-88l45 2q35 0 73 6q84 9 148 70q45 31 45 88q0 25 -6 36.5t-25 18.5q-10 6 -30 7t-119 1h-138zM530 229
q49 2 107 18t114 43.5t96 72t46 96.5q3 75 -53 125q-163 135 -377 135l-51 2l2 -248q3 -245 6 -248q51 -6 110 4z" />
    <glyph glyph-name="uniF004" unicode="&#xf004;" horiz-adv-x="1073" 
d="M1051 2h-789v580l-18 -19q-51 -54 -80 -129l-4 -10l-21 14q-13 8 -80 54.5t-69 48.5q30 85 96.5 157.5t149.5 114.5l28 12v613h778l-10 -15q-3 -6 -57 -100l-49 -86h-144q-146 0 -166 -6q-38 -15 -57 -55q-6 -10 -7 -33t-1 -139v-158h139q78 7 141 -4q-14 -45 -43 -107
l-45 -104h-96l-96 -2v-361l10 -16q19 -32 53 -47q6 -2 158 -2l146 2l67 -101q66 -98 66 -102z" />
    <glyph glyph-name="uniF005" unicode="&#xf005;" horiz-adv-x="942" 
d="M438 1186q-6 -10 -7 -31t-1 -131v-147h137q62 5 142 -5q-16 -45 -43 -102l-45 -96l-97 -2h-94v-344q0 -312 -1.5 -384t-8.5 -102q-16 -69 -49 -125q-33 -68 -91.5 -126.5t-127.5 -96.5q-23 -11 -29 -12t-10 6q-17 24 -73 117t-56 96q0 5 10 8q101 56 129 170
q12 50 14 135t4 508q2 291 2 719v191h385q383 0 383 -2q-63 -109 -94 -160l-14 -25l-148 -2q-148 -2 -166 -8q-34 -15 -51 -49z" />
    <glyph glyph-name="uniF006" unicode="&#xf006;" horiz-adv-x="1292" 
d="M631 440v-442h-287v387l-8 -14q-34 -67 -31 -148q2 -14 -4 -16q-92 -7 -219 -4q-6 4 -6 41q-2 109 46.5 206t135.5 160q46 30 80 39q8 0 6 576v209h287v-764h348v764h287v-1436h-287v442h-348z" />
    <glyph glyph-name="uniF007" unicode="&#xf007;" horiz-adv-x="1083" 
d="M387 438l2 -444h-287v1438h285v-764h346v764h287l2 -1457l12 -30q16 -34 24.5 -49.5t26.5 -35t43 -34.5q19 -11 19 -14q0 -6 -64 -127t-67 -123q-22 9 -29 14q-94 60 -157 152t-85 200q-17 130 -8 271l-2 239h-348z" />
    <glyph glyph-name="uniF008" unicode="&#xf008;" horiz-adv-x="1116" 
d="M752 -88q-24 153 -15 309v219h-346v-444h-287v1438h287v-764h346v764h287v-729q0 -565 2 -663t12 -120q1 -1 1.5 -2t0.5 -2q10 -25 33 -39t51 -14q64 -6 119 33q18 13 25 10q6 -6 77 -102.5t72 -100.5q2 -6 -31 -39q-61 -61 -143 -82q-75 -15 -156 -2q-131 24 -221.5 112
t-113.5 218z" />
    <glyph glyph-name="uniF009" unicode="&#xf009;" horiz-adv-x="1140" 
d="M340 901l254 324q146 187 147 188l17 21h172q79 3 174 -4q-55 -84 -152 -205q-64 -78 -157 -199q-128 -166 -131 -170l-39 -49l24 -4q121 -35 205 -125q123 -125 185 -298.5t65 -365.5v-18h-105q-34 0 -81 1l-46 1q-24 2 -24 10q0 1 -1 9t-2.5 21t-2.5 25
q-5 69 -26.5 148.5t-57.5 158t-93.5 138.5t-125.5 80q-39 11 -84 2q-48 -48 -84 -109l-31 -43l-2 -344q12 -184 -10 -377q-27 -123 -104 -226.5t-187 -156.5q-9 -4 -14 4q-18 30 -72.5 128.5t-54.5 101.5q6 6 22 14q83 61 113 156q11 53 18 117q4 50 4 809v770h285v-267z
" />
    <glyph glyph-name="uniF00A" unicode="&#xf00a;" horiz-adv-x="1236" 
d="M1128 -467q-109 82 -166 202t-57 259q-3 241 -131 455q-40 55 -79 88t-97 55q-42 9 -84 0q-47 -47 -88 -111l-29 -43v-438h-286v1434h284l2 -265v-266l62 78q38 47 192 244q29 37 66.5 84t58 73t23.5 31l18 21h172q77 3 172 -4q-78 -119 -151 -203q-105 -135 -158 -201
q-23 -30 -71.5 -92t-59.5 -76l-39 -49l25 -4q120 -34 204 -125q125 -125 187.5 -302t62.5 -368q-3 -56 15 -108q13 -40 22 -54q20 -42 64 -71q16 -6 16 -13q0 -2 -59 -124q-21 -54 -64 -121q-18 7 -27 14z" />
    <glyph glyph-name="uniF00B" unicode="&#xf00b;" horiz-adv-x="1198" 
d="M385 436v-438h-287v1436h287v-531l254 322q118 151 149 188l17 21h172q79 3 172 -7q-68 -101 -152 -202q-24 -30 -155 -199q-99 -128 -133 -168l-39 -49l26 -4q95 -27 179.5 -102.5t139 -167.5t83.5 -191q56 -183 53 -375q-6 -60 14 -116q24 -62 90 -62q49 0 99 33
q18 15 24 12q5 -5 72.5 -102t67.5 -101q-12 -27 -48 -59q-49 -39 -98 -53q-43 -16 -82 -13q-31 -2 -76 5q-117 18 -198 96t-109 194q-25 103 -22 201q3 77 -13 158q-15 83 -49 167t-97.5 161t-139.5 100q-48 10 -84 2q-49 -49 -88 -113z" />
    <glyph glyph-name="uniF00C" unicode="&#xf00c;" horiz-adv-x="1028" 
d="M61 -682q-23 -13 -27.5 -14t-10.5 4q-7 9 -67 116.5t-60 112.5q0 7 20 17q62 42 94 112.5t35 151.5q4 50 4 825v791h262l11 -25q14 -34 114 -307q20 -50 42 -108.5t32.5 -87t11.5 -29.5q33 67 60 157q63 186 77 223q6 19 19 56.5t16 46.5q12 36 23 59l6 15h266v-1438
h-287v698q-2 0 -57 -131q-115 -268 -121 -268q-60 102 -96 205v1l-1 1v1l-1 1v1l-1 1v1l-1 1v1l-1 1v1v1l-1 1v1l-1 1v1l-1 1v1l-1 1v1l-1 1v2l-82 179q-2 -222 -2 -489q11 -244 -8 -522q-26 -117 -95 -213.5t-170 -159.5z" />
    <glyph glyph-name="uniF00D" unicode="&#xf00d;" horiz-adv-x="1085" 
d="M389 0h-287v1434h263l10 -25q22 -54 117 -305q19 -51 40 -108.5t31.5 -86t11.5 -30.5q33 67 60 157q39 106 113 324q13 42 22 59l6 15h266v-762l2 -762l13 -35q7 -21 26 -55q27 -40 70 -64q16 -8 16 -12q0 -5 -108 -205q-11 -25 -27 -41q-12 2 -33 15q-90 61 -151 151
t-84 195q-6 25 -7 79.5t-1 354.5v91t-0.5 84.5t-0.5 74v63t-0.5 48t-0.5 31.5v11q-3 0 -58 -131q-90 -208 -103 -237t-17 -29q-62 105 -97 203l-92 205v-707z" />
    <glyph glyph-name="uniF00E" unicode="&#xf00e;" horiz-adv-x="1105" 
d="M756 696q-27 -57 -58 -131q-90 -208 -103 -237t-17 -29q-60 98 -97 203l-90 205l-2 -355v-352h-287v1434h263l10 -25q23 -58 117 -307l83 -223q32 63 60 155q133 381 135 385l6 15h266v-775q0 -585 2 -694.5t13 -130.5l2 -4q12 -25 35 -40t49 -15q66 -3 119 35
q18 13 24 10q6 -6 78.5 -101.5t73.5 -99.5q0 -8 -31 -39q-65 -62 -145 -82q-74 -15 -154 -2q-130 22 -222.5 110.5t-115.5 217.5q-10 47 -12 111.5t-2 369.5v391z" />
    <glyph glyph-name="uniF00F" unicode="&#xf00f;" horiz-adv-x="997" 
d="M963 0h-285v170l-80 125q-14 22 -72.5 113t-81.5 129q-73 117 -94 149l-18 29l-2 -490q0 -366 -1 -431.5t-7 -90.5q-26 -117 -95 -214.5t-170 -160.5q-21 -12 -28 -13.5t-11 3.5q-7 8 -67 117t-60 112q0 6 19 17q124 86 131 264q4 50 4 823v787h285v-258l41 -68
q27 -50 172 -287l133 -219q2 0 2 416v416h285v-1438z" />
    <glyph glyph-name="uniF010" unicode="&#xf010;" horiz-adv-x="1042" 
d="M1006 -2l-287 2v168l-78 125q-60 90 -154 242q-94 145 -96 147l-18 31v-398q0 -366 4 -400q3 -23 18 -50l4 -8q29 -57 80 -86q19 -15 19 -17q0 -6 -64 -125t-67 -121q-90 36 -162.5 132t-100.5 198q-14 50 -16 128.5t-2 512.5v955h287v-258l39 -68q10 -15 36 -57.5
t68 -112.5t70 -115l133 -219q2 0 2 416v414h285v-1436z" />
    <glyph glyph-name="uniF011" unicode="&#xf011;" horiz-adv-x="1069" 
d="M1241 -487q-74 -15 -154 -2q-127 17 -220.5 108t-116.5 219q-18 105 -15 211v121l-78 125q-14 21 -47 74.5t-60.5 96.5t-45.5 71q-25 40 -60 93l-34 54l-21 31v-713h-287v1434h287v-258l39 -66q10 -16 72 -119t102 -168q130 -219 133 -219v830h287v-768v-223
q0 -428 1.5 -502.5t12.5 -94.5q1 -1 1.5 -2t0.5 -2q10 -25 33 -39t51 -14q66 -3 119 35q20 13 25 8q6 -6 77 -101.5t72 -99.5q3 -7 -29 -39q-63 -63 -145 -81z" />
    <glyph glyph-name="uniF012" unicode="&#xf012;" horiz-adv-x="1009" 
d="M831 2h-135v39q3 198 -86 375q-27 45 -78 86q-13 4 -17 3.5t-44 -7.5q-82 -12 -92 -13l-43 -4q-2 0 -2 -313q0 -302 6 -358q3 -53 27 -121q36 -79 102 -125q12 -6 23 -17q-50 -101 -136 -237q-12 4 -32 16q-126 71 -205.5 196t-79.5 265q-4 70 -4 858l-2 795h266
q154 9 307 -6q113 -19 197.5 -86.5t120.5 -173.5q55 -134 24.5 -275.5t-135.5 -241.5l-31 -30l13 -15q41 -49 73 -112q102 -209 99 -437v-59zM680 920q35 100 -14 200q-31 60 -91 88l-28 15h-213v-506l28 2q116 13 195.5 58.5t122.5 142.5z" />
    <glyph glyph-name="uniF013" unicode="&#xf013;" horiz-adv-x="1089" 
d="M420 2h-299v420q0 123 -1 383t-1 334l-2 297h268q154 9 307 -6q113 -19 196.5 -86t119.5 -173q55 -134 25 -274t-134 -240l-33 -30l15 -15q118 -158 153 -352q25 -122 19 -240q-3 -72 8 -135q19 -85 94 -135q14 -9 16.5 -12.5t-0.5 -9.5q-6 -15 -63 -126.5t-59 -111.5
q-22 9 -29 14q-90 62 -148.5 154.5t-78.5 200.5q-1 13 -9 51q-4 66 -4 96q3 95 -14 211q-18 140 -111 254q-29 29 -41.5 33t-56.5 -4q-52 -10 -131 -17q-4 0 -5 -33.5t-1 -205.5v-242zM420 1219v-502l29 2q120 17 195.5 59.5t121.5 141.5q36 98 -14 196q-31 59 -90 90
l-29 13h-213z" />
    <glyph glyph-name="uniF014" unicode="&#xf014;" horiz-adv-x="1095" 
d="M414 2h-299v422q0 123 -1 383t-1 334l-2 297h268q154 9 307 -6q107 -12 194 -84t121 -174q56 -133 26 -275t-134 -240l-33 -30l14 -15q118 -158 152 -344q27 -127 21 -258l2 -157l10 -23q9 -39 47 -57q21 -8 51 -8q57 0 100 34q14 9 21 11q1 -2 4 -5.5t4 -5.5l14 -18
q2 -2 5 -5.5t4 -4.5q24 -33 52.5 -73t44 -62.5t17.5 -24.5q4 -11 -34 -49q-85 -82 -199 -82q-26 -3 -51 0q-149 15 -252 123.5t-109 257.5q-2 18 -6 153q6 108 -16 220q-21 138 -115 243q-25 23 -36 26t-54 -5q-64 -12 -131 -15q-4 0 -5 -33.5t-1 -207.5v-242zM414 1221
v-502l28 2q16 0 66 10q83 12 149.5 62.5t102.5 126.5q35 100 -15 198q-31 61 -90 88l-28 15h-213z" />
    <glyph glyph-name="uniF015" unicode="&#xf015;" horiz-adv-x="1114" 
d="M1112 1436v-242h-420q0 -219 2 -485t2 -752q9 -157 -8 -299q-26 -117 -96.5 -213t-173.5 -158q-7 -5 -29 -14q-21 28 -59 98q-53 93 -68 119q-8 15 -6 18.5t25 18.5q58 42 83 93.5t39 131.5q5 49 5 742l-2 698l-189 2h-190v238h147q24 0 221 1t322 1z" />
    <glyph glyph-name="uniF016" unicode="&#xf016;" horiz-adv-x="745" 
d="M983 1192q-150 4 -211 0h-59l2 -381q4 -418 4 -598l2 -215h-291v1194h-100q-84 0 -101 -3t-34 -22q-25 -25 -19 -61q3 -43 29 -84q8 -8 8 -16q-2 -3 -87 -63t-89 -60q-32 19 -53 49q-54 63 -54 149q0 69 19 119q25 85 89 144.5t150 78.5q21 6 88.5 8t399.5 3h461v-242
h-154z" />
    </font>
</defs>
</svg>
