<svg width="102" height="102" viewBox="0 0 102 102" fill="none" xmlns="http://www.w3.org/2000/svg">
<path fill-rule="evenodd" clip-rule="evenodd" d="M51.4835 1.81352C60.3494 0.145525 69.4772 0.86326 77.5477 5.64843C86.756 11.1082 96.2893 18.5484 99.64 30.3664C103.01 42.2512 99.6262 55.5621 94.8598 66.71C90.5969 76.6803 82.9228 83.4503 74.7401 88.6038C67.5489 93.1329 59.4863 92.5803 51.4835 94.0288C41.6638 95.8062 30.1722 105.907 22.6178 98.0379C14.8831 89.9805 24.1395 73.3877 20.5253 61.7793C16.5604 49.0444 -1.52661 42.7418 1.29797 29.5608C4.05549 16.6928 20.7461 19.9524 30.6635 14.4691C37.9026 10.4666 43.6304 3.29097 51.4835 1.81352Z" stroke="black"/>
</svg>
