<svg viewBox="0 0 198 104" fill="none" xmlns="http://www.w3.org/2000/svg">
<path d="M95.5757 14.2172C76.9312 13.0872 57.8563 14.1171 39.3588 16.5855C28.7889 17.9961 11.7169 19.3267 5.82811 30.4216C-4.74356 50.3393 10.1898 74.8797 27.2678 85.2673C51.949 100.28 85.771 104.345 114.024 100.475C143.587 96.4248 178.252 87.2173 193.051 58.8417C202.316 41.0779 190.928 21.6258 174.354 12.9707C164.501 7.82541 152.234 7.4082 141.447 6.36428C126.654 4.93279 111.798 3.83045 96.9468 3.24805C89.3875 2.95161 77.5036 0.843431 70.0225 3.24805C68.2237 3.82624 68.6514 6.02914 68.6514 7.48613" stroke="black" stroke-width="3" stroke-linecap="round"/>
</svg>
