<svg width="24" height="24" viewBox="0 0 24 24" fill="none" xmlns="http://www.w3.org/2000/svg">
<path d="M7 20.5C6.72386 20.5 6.5 20.7239 6.5 21C6.5 21.2761 6.72386 21.5 7 21.5V20.5ZM17 21.5C17.2761 21.5 17.5 21.2761 17.5 21C17.5 20.7239 17.2761 20.5 17 20.5V21.5ZM9 17.5C9 17.2239 8.77614 17 8.5 17C8.22386 17 8 17.2239 8 17.5H9ZM8 20.5C8 20.7761 8.22386 21 8.5 21C8.77614 21 9 20.7761 9 20.5H8ZM16 17.5C16 17.2239 15.7761 17 15.5 17C15.2239 17 15 17.2239 15 17.5H16ZM15 20.5C15 20.7761 15.2239 21 15.5 21C15.7761 21 16 20.7761 16 20.5H15ZM7 21.5H17V20.5H7V21.5ZM4 3.5H20V2.5H4V3.5ZM20 3.5C20.8284 3.5 21.5 4.17157 21.5 5H22.5C22.5 3.61929 21.3807 2.5 20 2.5V3.5ZM21.5 5V15H22.5V5H21.5ZM21.5 15C21.5 15.8284 20.8284 16.5 20 16.5V17.5C21.3807 17.5 22.5 16.3807 22.5 15H21.5ZM20 16.5H4V17.5H20V16.5ZM4 16.5C3.17157 16.5 2.5 15.8284 2.5 15H1.5C1.5 16.3807 2.61929 17.5 4 17.5V16.5ZM2.5 15V5H1.5V15H2.5ZM2.5 5C2.5 4.17157 3.17157 3.5 4 3.5V2.5C2.61929 2.5 1.5 3.61929 1.5 5H2.5ZM8 17.5V20.5H9V17.5H8ZM15 17.5V20.5H16V17.5H15Z" fill="black"/>
</svg>
